<?xml version="1" encoding="UTF-8" standalone="no"?>
<!-- Created with Inkscape (http://www.inkscape.org/) -->

<svg
   xmlns:dc="http://purl.org/dc/elements/1/"
   xmlns:cc="http://creativecommons.org/ns#"
   xmlns:rdf="http://www.w3.org/1999/02/22-rdf-syntax-ns#"
   xmlns:svg="http://www.w3.org/2000/svg"
   xmlns="http://www.w3.org/2000/svg"
   xmlns:sodipodi="http://sodipodi.sourceforge.net/DTD/sodipodi-0.dtd"
   xmlns:inkscape="http://www.inkscape.org/namespaces/inkscape"
   width="1440"
   height="900"
   id="svg2"
   version="1"
   inkscape:version="0 r9654"
   sodipodi:docname="ballpath.svg">
  <defs
     id="defs4" />
  <sodipodi:namedview
     id="base"
     pagecolor="#ffffff"
     bordercolor="#666666"
     borderopacity="1"
     inkscape:pageopacity="0"
     inkscape:pageshadow="2"
     inkscape:zoom="7"
     inkscape:cx="533"
     inkscape:cy="618"
     inkscape:document-units="px"
     inkscape:current-layer="layer1"
     showgrid="false"
     inkscape:window-width="1440"
     inkscape:window-height="823"
     inkscape:window-x="0"
     inkscape:window-y="24"
     inkscape:window-maximized="1" />
  <metadata
     id="metadata7">
    <rdf:RDF>
      <cc:Work
         rdf:about="">
        <dc:format>image/svg+xml</dc:format>
        <dc:type
           rdf:resource="http://purl.org/dc/dcmitype/StillImage" />
        <dc:title />
      </cc:Work>
    </rdf:RDF>
  </metadata>
  <g
     inkscape:label="Camada 1"
     inkscape:groupmode="layer"
     id="layer1"
     transform="translate(0,-152)">
    <path
       style="font-size:medium;font-style:normal;font-variant:normal;font-weight:normal;font-stretch:normal;text-indent:0;text-align:start;text-decoration:none;line-height:normal;letter-spacing:normal;word-spacing:normal;text-transform:none;direction:ltr;block-progression:tb;writing-mode:lr-tb;text-anchor:start;baseline-shift:baseline;color:#000000;fill:#000000;fill-opacity:1;stroke:none;stroke-width:1;marker:none;visibility:visible;display:inline;overflow:visible;enable-background:accumulate;font-family:Sans;-inkscape-font-specification:Sans"
       d="
    m 694,294
    L 746,300 z 
    L 751,301 z 
    L 782,316 z 
    L 806,336 l
    L 808,338 z 
    L 814,344 z 
m -229,0 0,0 -0,0 0,0 0,-0 0,-0 -0,-0 z 
m 230,0 0,0 0,-0 -0,-0 z 
m -231,1 0,0 0,-0 -0,-0 z 
m 233,0 0,0 -0,0 0,0 0,-0 -0,-0 0,-0 -0,-0 z 
m -234,1 -0,0 0,0 0,-0 0,-0 0,-0 -0,-0 z 
m 235,0 0,0 0,-0 -0,-0 z 
m -236,1 0,0 0,-0 -0,-0 z 
m 237,0 0,0 -0,0 0,0 0,-0 -0,-0 -0,-0 z 
m -238,1 -0,0 0,0 0,0 0,0 0,-0 -0,-0 z 
m 240,0 0,0 0,-0 -0,-0 z 
m -241,1 0,0 0,-0 -0,-0 z 
m 242,0 0,0 0,0 0,-0 -0,-0 0,-0 -0,-0 z 
m -243,1 0,0 0,-0 -0,-0 z 
m 244,0 0,0 0,-0 -0,-0 z 
m -245,1 0,0 0,-0 -0,-0 z 
m 246,0 0,0 -0,0 0,0 0,-0 -0,-0 0,-0 -0,-0 z 
M 575,359 l 0,0 0,-0 -0,-0 z 
m 248,-0 0,0 0,-0 -0,-0 z 
m -249,1 0,0 0,-0 -0,-0 z 
m 251,-0 0,0 0,0 0,-0 -0,-0 -0,-0 z 
m -252,1 0,0 0,-0 -0,-0 z 
M 826,362 l 0,0 0,-0 -0,-0 z 
m -254,1 0,0 0,-0 -0,-0 z 
m 255,-0 0,0 0,0 0,-0 -0,-0 -0,-0 z 
m -256,1 0,0 0,-0 -0,-0 z 
m 257,-0 0,0 0,-0 -0,-0 z 
m -257,2 0,0 0,-0 -0,-0 z 
m 258,-0 0,0 0,-0 -0,-0 z 
m -259,2 0,0 0,-0 -0,-0 z 
M 830,369 l 0,0 0,-0 -0,-0 z 
m -261,2 0,0 0,-0 -0,-0 z 
m 262,-0 0,0 0,-0 -0,-0 z 
m -263,2 0,0 0,-0 -0,-0 z 
m 264,-0 0,0 0,-0 -0,-0 z 
m -265,2 0,0 0,-0 L 567,374 z 
m 266,-0 0,0 0,-0 -0,-0 z 
m -267,2 -0,0 0,0 0,-0 -0,0 0,-0 -0,-0 z 
m 267,-0 0,0 0,0 0,-0 0,-0 0,-0 -0,-0 -0,-0 z 
m -268,2 0,0 0,-0 -0,-0 z 
m 269,-0 0,0 0,-0 -0,-0 z 
m -270,2 -0,0 0,0 0,-0 0,-0 -0,-0 z 
m 271,-0 0,0 0,0 0,0 0,-0 -0,-0 0,-0 -0,-0 z 
m 0,1 0,0 0,-0 -0,-0 z 
m -272,0 0,0 0,-0 -0,-0 z 
m 274,1 -0,0 0,0 0,0 0,-0 -0,-0 -0,-0 z 
m -274,0 -0,0 0,0 0,-0 0,-0 -0,-0 z 
m 274,1 0,0 0,-0 -0,-0 z 
m -275,0 0,0 0,-0 -0,-0 z 
m 276,1 0,0 0,-0 -0,-0 z 
M 561,387 l -0,0 0,0 0,-0 0,-0 -0,-0 z 
m 277,2 0,0 0,0 0,-0 -0,-0 0,-0 -0,-0 z 
M 560,390 l 0,0 0,-0 -0,-0 z 
m 279,1 0,0 0,-0 -0,-0 z 
m -280,0 0,0 0,-0 -0,-0 z 
m 280,1 0,0 0,0 0,-0 -0,-0 -0,-0 z 
m -281,0 0,0 0,-0 -0,-0 z 
m 282,1 0,0 0,-0 -0,-0 z 
m -282,0 0,0 0,-0 -0,-0 z 
m 283,1 0,0 0,-0 -0,-0 z 
m -283,0 -0,0 0,0 0,-0 0,-0 -0,-0 z 
m 284,1 0,0 0,0 0,-0 -0,-0 -0,-0 z 
m -285,0 0,0 0,-0 -0,-0 z 
m 285,1 0,0 0,-0 -0,-0 z 
m -286,0 -0,0 -0,0 0,0 0,-0 0,-0 0,-0 -0,-0 z 
m 286,1 0,0 0,-0 -0,-0 z 
m -287,0 0,0 0,-0 -0,-0 z 
m 288,1 0,0 0,-0 -0,-0 z 
m -288,0 0,0 0,-0 -0,-0 z 
m 289,1 0,0 L 846,407 845,406 z 
M 555,407 l -0,0 0,0 0,-0 -0,0 0,-0 -0,-0 z 
m 290,1 0,0 0,-0 -0,-0 z 
m -290,0 0,0 0,-0 -0,-0 z 
m 291,0 0,0 0,-0 -0,-0 z 
m -291,1 0,0 0,-0 L 554,410 z 
m 292,0 0,0 0,0 0,0 0,-0 -0,-0 0,-0 -0,-0 z 
m -292,1 0,0 0,-0 -0,-0 z 
m 293,0 0,0 1,-0 -0,-0 z 
m -293,1 0,0 0,-1 -0,-0 z 
m 294,0 0,0 0,-0 -0,-0 z 
m -294,1 1,0 0,-1 -0,-0 z 
m 294,0 0,1 0,-0 -0,-0 z 
m -295,1 0,0 0,-1 L 552,418 z 
m 295,0 0,0 0,-0 -0,-1 z 
m -296,1 1,0 0,-0 -0,-0 z 
m 296,0 0,1 0,-0 -0,-1 z 
m -296,1 1,0 0,-1 -0,-0 z 
m 297,0 0,1 0,-0 -0,-1 z 
m -297,1 1,0 0,-1 -0,-0 z 
m 297,0 0,0 1,-0 -0,-0 z 
m -298,0 0,0 -0,0 0,0 0,-0 0,-0 0,-0 -0,-0 z 
m 358,-0 0,1 1,-0 0,-1 z 
m 2,0 0,0 0,0 0,-1 -0,0 -0,0 z 
m 2,0 1,0 0,-1 -1,0 z 
m -6,-0 0,1 0,-0 0,0 0,-1 -0,0 z 
m 8,0 0,0 0,0 0,-1 -0,0 -0,0 z 
m -10,-0 0,1 1,-0 0,-1 z 
m 12,0 1,0 0,-1 -1,-0 z 
m 2,0 0,0 0,0 0,-1 -0,-0 -0,-0 z 
m -16,-0 0,1 0,-0 0,0 0,-1 -0,0 z 
m 18,1 1,0 0,-1 -0,-0 z 
m -20,-0 0,1 1,-0 -0,-1 z 
m -2,0 0,1 1,-0 -0,-1 z 
m 24,0 0,0 0,0 0,-0 -0,-0 -0,0 z 
m 2,0 1,0 0,-1 -1,-0 z 
m -28,-0 0,1 1,-0 -0,-1 z 
m 30,1 0,0 0,0 0,0 0,-1 -0,-0 -0,0 z 
m -32,-0 0,1 0,-0 -0,-1 z 
m -1,0 -0,0 0,1 0,-0 0,-0 -0,-1 z 
m 35,0 1,0 0,-1 -1,-0 z 
m 2,0 0,0 0,0 0,-1 -0,-0 -0,-0 z 
m -39,-0 0,1 1,-0 -0,-0 z 
m -1,0 0,1 0,-0 -0,-1 z 
m 43,0 1,0 0,-1 -1,-0 z 
M 887,427 l 0,1 1,-0 -0,-1 z 
m 47,0 0,0 0,0 0,-0 -0,-0 -0,0 -0,-0 z 
m -85,-0 0,0 0,0 0,-0 -0,-0 -0,-0 z 
m 35,0 0,1 0,-0 -0,-1 z 
m 51,0 1,0 0,-1 -1,-0 z 
m -53,-0 0,1 1,-0 -0,-0 z 
m -332,0 1,0 0,-1 -1,-0 z 
m 388,0 0,0 0,0 0,0 0,-1 -0,-0 -0,-0 z 
m -57,-0 0,0 1,-0 -0,-1 z 
m 59,1 0,0 0,-1 -1,-0 z 
m -61,-0 0,1 1,-0 -0,-0 z 
m 63,1 0,0 0,-0 0,0 0,-0 -0,-0 -0,-0 z 
m -65,-0 0,0 1,-0 -0,-1 z 
m 67,1 1,0 0,-1 -1,-0 z 
M 875,429 l 0,0 0,-0 -0,-1 z 
m -1,0 0,1 0,-0 -0,-1 z 
m 73,0 0,0 0,0 0,0 0,-0 -0,-0 -0,-0 z 
m -75,-0 0,0 1,-0 -0,-0 z 
m 77,0 0,0 0,-0 -0,-0 z 
m -99,-0 0,1 0,-0 -0,-1 z 
m 19,0 -0,0 -0,0 0,0 0,0 0,-0 -0,-0 z 
m -319,0 1,0 L 551,430 550,429 z 
M 951,430 952,431 l 0,-0 -0,-0 z 
m -83,-0 0,1 0,-0 -0,-0 z 
m 85,0 0,0 0,-1 -0,-0 z 
m -87,-0 0,0 0,-0 -0,-1 z 
m 89,0 0,0 0,-0 -1,-0 z 
m -91,-0 0,1 1,-0 -0,-0 z 
m 93,1 0,0 0,-0 -0,-0 z 
m -95,-0 0,0 1,-0 -0,-0 z 
m -11,0 0,1 1,-0 -0,-1 z 
m 108,0 0,0 0,-0 -0,-0 z 
m -99,-0 0,1 0,-0 -0,-1 z 
m -309,1 1,0 0,-1 -1,-0 z 
m 307,-0 0,0 0,-0 -0,-0 z 
m 103,0 0,0 0,-0 -0,-0 z 
m -105,-0 0,0 0,-0 -0,-1 z 
m 106,0 0,0 0,-0 -0,-0 z 
M 854,433 l 0,0 0,-0 -0,-0 z 
m 110,0 0,0 0,0 0,0 0,-0 -0,-0 -0,0 -0,-0 z 
m -112,-0 0,0 -0,0 0,0 0,-0 0,0 0,-0 -0,-0 z 
m -2,0 0,0 0,0 0,-0 0,-0 -0,-0 0,-0 -0,-0 z 
m 116,1 0,0 0,-0 L 967,433 z 
m -416,0 1,0 0,-1 -1,-0 z 
m 418,0 0,0 0,0 0,0 0,-0 -0,-0 -0,-0 z 
m 1,0 0,0 0,-0 -0,-0 z 
m 1,0 0,0 0,0 0,-0 -0,-0 -0,0 -0,-0 z 
m -422,0 1,0 0,-0 L 550,435 z 
m 424,0 0,0 0,-0 -0,-0 z 
m 1,0 0,0 0,-0 L 976,436 z 
m -487,-0 0,1 1,-0 0,-1 z 
m 2,0 1,0 0,-1 -1,0 z 
m -4,-0 0,1 1,-0 0,-1 z 
m 6,0 1,0 0,-1 -1,0 z 
m 1,0 1,0 0,-1 -1,-0 z 
m -10,-0 0,1 1,-0 -0,-1 z 
m 12,1 0,0 0,0 0,0 0,-1 -0,0 -0,0 z 
m -14,-0 0,1 1,-0 -0,-1 z 
m 16,1 1,0 0,-1 -1,-0 z 
m -18,-0 0,1 1,-0 -0,-1 z 
m 20,0 0,0 0,0 0,-1 -0,0 -0,0 -0,-0 z 
m -22,-0 0,1 1,-0 -0,-1 z 
m 24,0 1,0 0,-1 -1,-0 z 
m -26,-0 0,1 1,-0 -0,-1 z 
m 28,0 0,0 0,0 0,-1 -0,-0 -0,-0 z 
m -30,-0 0,1 1,-0 -0,-1 z 
m 31,0 1,0 0,-1 -1,-0 z 
m 471,0 0,0 0,-0 -0,-0 z 
m -505,-0 0,1 1,-0 -0,-1 z 
m 35,0 1,0 0,-1 -0,-0 z 
m 2,0 1,0 0,-1 -1,-0 z 
m -39,-0 0,1 1,-0 -0,-1 z 
m 79,0 0,0 -0,0 1,0 0,-0 0,-0 0,-0 -1,-0 z 
m -37,0 1,0 0,-1 -1,-0 z 
m -43,-0 0,1 0,-0 0,0 -0,-0 -0,-0 -0,0 z 
m 45,1 1,0 0,-1 -1,-0 z 
m -47,-0 0,0 1,-0 -0,-1 z 
m 513,0 0,0 0,-0 -0,-0 z 
m -463,0 0,0 0,-1 -1,-0 z 
m -51,-0 -0,0 -0,0 0,1 0,-0 0,0 0,-0 -0,-1 z 
m 53,1 1,0 0,-1 -1,-0 z 
m -55,-0 0,1 0,-0 -0,-0 z 
m 57,0 1,0 0,-1 -1,-0 z 
M 460,439 l -0,0 0,1 0,-0 0,-0 -0,-1 z 
m 61,1 1,0 0,-1 -1,-0 z 
M 981,440 l 0,0 0,-0 -0,-0 z 
m -523,-0 0,1 0,-0 -0,-1 z 
m 65,0 1,0 0,-1 -0,-0 z 
m -67,-0 -0,0 0,0 0,-0 0,0 0,-0 -0,-1 z 
m 69,0 1,0 0,-0 -1,-0 z 
m 23,0 1,0 0,-1 -1,-0 z 
m -21,0 1,0 0,-1 -1,-0 z 
m 455,-0 0,0 0,-0 -0,-0 z 
m -529,-0 0,1 0,-0 -0,-0 z 
m 75,1 1,0 0,-1 -0,-0 z 
m -77,-0 0,1 0,-0 -0,-1 z 
m 79,1 1,0 0,-1 -0,-0 z 
M 450,440 l 0,1 0,-0 -0,-0 z 
m 534,0 0,0 0,0 0,-0 -0,-0 -0,-0 z 
m -451,0 0,0 0,0 0,-1 -0,-0 -0,-0 z 
m -85,-0 0,0 0,-0 -0,-0 z 
m 87,0 1,0 0,-1 -1,-0 z 
m -89,-0 0,0 0,-0 -0,-0 z 
m 540,0 0,0 0,-0 -0,-0 z 
m -449,0 0,0 0,-0 -0,-0 z 
m 11,0 1,0 0,-1 -1,-0 z 
m -104,-0 0,0 0,-0 L 445,442 z 
m 95,0 1,0 0,-0 L 540,442 z 
m 1,0 0,0 0,0 0,-0 -0,-0 -0,-0 z 
m 447,-0 0,0 0,0 0,-0 -0,-0 0,-0 -0,-0 z 
M 442,442 l 0,0 0,-0 -0,-0 z 
m 101,1 1,0 0,-1 -1,-0 z 
M 440,443 441,444 442,443 441,443 z 
m 104,1 1,0 0,-0 -0,-0 z 
m 445,-0 0,0 0,-0 -0,-0 z 
m -551,-0 -0,0 -0,0 0,0 L 440,444 l 0,0 0,0 -0,-0 -0,0 z 
m 107,1 0,0 0,0 0,-0 -0,-0 -0,-0 z 
m 1,0 0,0 -0,0 0,0 0,0 0,-0 0,-0 -1,-0 z 
m -112,-0 0,0 0,-0 -0,-0 z 
m 555,0 0,0 L 993,444 993,444 z 
m -557,-0 -0,0 L 435,445 l 0,0 0,-0 0,-0 -0,-0 z 
m 558,1 0,0 0,-0 -0,-0 z 
m -561,-0 0,0 0,-0 -0,-0 z 
m -1,0 -0,0 0,0 0,-0 0,0 0,-0 -0,-0 z 
M 996,447 l 0,0 0,-0 -0,-0 z 
M 429,447 l 0,0 0,-0 -0,-0 z 
m 568,1 0,0 0,-0 -0,-0 z 
m -570,-0 0,0 0,-0 -0,-0 z 
m -1,0 0,0 0,-0 -0,-0 z 
m 573,0 0,0 0,-0 -0,-0 z 
m -575,0 0,0 0,-0 -0,-0 z 
m 577,0 0,0 0,-0 0,0 0,-0 -0,-0 -0,-0 -0,-0 z 
M 421,450 l 0,0 0,-0 -0,-0 z 
m 580,1 0,0 0,-0 -0,-0 z 
m -582,-0 0,0 0,-0 -0,-0 z 
m -1,0 -0,0 0,0 0,-0 0,-0 0,-0 L 419,451 z 
m 585,0 0,0 0,-0 -0,-0 z 
m -588,0 0,0 0,-0 -0,-0 z 
m 589,0 0,0 0,-0 -0,-0 z 
m -591,-0 -0,0 0,0 0,-0 0,-0 0,-0 -0,-0 z 
m 592,1 0,0 0,-0 -0,-0 z 
m -594,-0 0,0 0,-0 -0,-0 z 
m -1,0 0,0 0,-0 -0,-0 z 
m 598,0 0,0 0,-0 -0,-0 z 
m -599,0 0,0 0,-0 -0,-0 z 
M 1010,457 l 0,0 0,-0 -0,-0 z 
m -603,0 0,0 0,-0 -0,-0 z 
m 604,0 0,0 0,0 0,-0 -0,-0 -0,-0 z 
M 405,458 l 0,0 0,-0 -0,-0 z 
m 608,1 0,0 0,-0 -0,-0 z 
m -609,0 0,0 0,-0 -0,-0 z 
m 611,1 0,0 0,-0 -0,-0 z 
m -612,-0 -0,0 -0,0 0,0 0,-0 0,0 0,-0 -0,-0 z 
m -2,1 0,0 0,-0 -0,-0 z 
m 616,0 0,0 0,-0 -0,-0 z 
M 399,463 l 0,0 0,-0 -0,-0 z 
m 619,0 0,0 0,-0 -0,-0 z 
m -620,0 0,0 0,-0 -0,-0 z 
m 622,0 0,0 0,0 0,0 0,-0 -0,-0 -0,0 -0,-0 z 
m -623,0 0,0 0,-0 -0,-0 z 
m 625,0 0,0 0,-0 -0,-0 z 
m -626,0 0,0 0,-0 -0,-0 z 
m 628,0 0,0 0,-0 -0,-0 z 
M 393,467 393,468 l 0,0 0,-0 0,0 0,-0 -0,-0 z 
m 630,1 0,0 0,-0 -0,-0 z 
m -632,0 -0,0 0,0 0,-0 0,-0 -0,-0 z 
m 633,1 0,0 0,-0 -0,-0 z 
m -635,0 0,0 0,-0 -0,-0 z 
m 636,1 0,0 0,0 0,-0 -0,-0 -0,-0 z 
m -638,0 0,0 0,-0 -0,-0 z 
m -1,1 0,0 0,-0 -0,-0 z 
m 641,0 0,0 -0,0 0,0 0,-0 -0,-0 0,-0 L 1029,472 z 
m -642,1 0,0 0,-0 -0,-0 z 
m 643,0 0,0 0,-0 -0,-0 z 
m -644,0 -0,0 0,0 0,-0 0,-0 -0,-0 z 
m 646,0 0,0 0,-0 -0,-0 z 
m -647,1 -0,0 0,0 0,-0 -0,0 0,-0 L 383,477 z 
M 1032,478 l 0,0 0,0 0,-0 -0,-0 -0,-0 z 
m -650,1 0,0 0,-0 -0,-0 z 
m 651,0 0,0 -0,0 0,0 0,-0 -0,-0 0,-0 -0,-0 z 
m -653,1 0,0 0,-0 L 380,480 z 
m 654,0 0,0 0,-0 -0,-0 z 
m -655,1 0,0 0,-0 -0,-0 z 
m 656,0 0,0 0,-0 -0,-0 z 
m -657,0 -0,0 0,0 0,-0 -0,0 0,-0 -0,-0 z 
m 658,1 0,0 0,-0 -0,-0 z 
m -660,0 0,0 -0,0 0,0 0,-0 -0,0 0,-0 -0,-0 z 
m 661,0 0,0 0,0 0,-0 -0,-0 -0,-0 -0,-0 z 
m -662,1 0,0 0,-0 -0,-0 z 
m 663,0 0,0 0,-0 -0,-0 z 
m -664,0 0,0 0,-0 -0,-0 z 
m 666,0 0,0 0,-0 -0,-0 z 
m -666,0 -0,0 0,0 0,-0 -0,-0 -0,-0 z 
m 667,1 0,0 0,0 0,-0 -0,-0 0,-0 -0,-0 z 
m -669,0 0,0 -0,0 0,0 0,-0 0,-0 0,-0 -0,-0 z 
m 670,1 0,0 0,0 0,-0 -0,-0 -0,0 -0,-0 z 
m -671,0 0,0 0,-0 -0,-0 z 
m 672,0 0,0 0,-0 -0,-0 z 
m -673,0 0,0 0,-0 -0,-0 z 
m 674,0 0,0 0,-0 -0,-0 z 
m -675,0 0,0 0,-0 -0,-0 z 
M 1045,498 l 0,0 0,0 0,0 0,-0 L 1046,498 l 0,-0 -0,-0 z 
m -677,0 -0,0 0,0 0,-0 -0,0 0,-0 -0,-0 z 
m 678,1 0,0 0,-0 -0,-0 z 
m -679,0 0,0 0,-0 -0,-0 z 
m 680,0 0,0 0,-0 -0,-0 z 
m -681,0 0,0 0,-0 -0,-0 z 
m 682,0 0,0 0,0 0,-0 -0,-0 -0,-0 z 
m -682,0 -0,0 -0,0 0,0 0,-0 0,-0 0,-0 -0,-0 z 
m 683,1 0,0 0,-0 -0,-0 z 
m -684,0 0,0 0,-0 -0,-0 z 
m 685,1 0,0 0,-0 -0,-0 z 
m -686,0 0,0 0,-0 -0,-0 z 
m 687,1 0,0 0,0 0,-0 -0,-0 0,-0 -0,-0 z 
M 362,509 363,509 363,509 362,508 z 
m 689,1 0,0 0,-0 -0,-0 z 
m -689,0 -0,0 0,0 0,-0 0,-0 -0,-0 z 
m 690,1 0,0 0,-0 -0,-0 z 
m -691,0 0,0 0,-0 -0,-0 z 
m 692,1 0,0 0,0 0,-0 -0,-0 -0,-0 z 
m -692,0 0,0 0,-0 -0,-0 z 
m 693,1 0,0 0,-0 -0,-0 z 
m -694,0 0,0 -0,0 0,0 0,-0 L 360,516 359,516 z 
M 1054,518 l 0,0 0,-0 -0,-0 z 
m -695,0 0,0 0,-0 -0,-0 z 
m 696,1 0,0 0,-0 -0,-0 z 
m -697,0 0,0 0,-0 -0,-0 z 
m 697,1 0,0 -0,0 0,0 0,-0 -0,-0 -0,-0 z 
m -698,0 -0,0 0,0 0,-0 0,-0 -0,-0 z 
m 699,1 0,0 0,-0 -0,-0 z 
M 356,524 l 0,0 0,-0 -0,-0 z 
m 700,1 0,0 0,-0 -0,-0 z 
m -700,0 0,0 0,-0 -0,-0 z 
m 701,1 0,0 0,0 0,-0 -0,-0 -0,-0 z 
M 355,528 l 0,0 0,-0 -0,-0 z 
m 702,1 0,0 0,0 0,0 0,-0 0,-0 -0,-0 z 
m -703,0 0,0 0,-0 -0,-0 z 
m 703,1 0,0 0,-0 -0,-0 z 
m -704,0 -0,0 0,0 0,-0 0,-0 -0,-0 z 
m 704,1 0,0 0,-0 -0,-0 z 
m -705,0 0,0 0,-0 -0,-0 z 
m 705,1 0,0 0,0 L 1060,536 1060,535 1059,535 z 
m -706,0 0,0 0,-0 -0,-0 z 
m -0,1 0,0 -0,0 0,0 0,-0 0,-0 -0,-0 z 
m 706,-0 0,0 0,0 0,-0 0,-0 L 1060,537 z 
m -707,2 0,0 0,-0 -0,-0 z 
m 707,-0 0,1 0,-0 -0,-0 z 
m -708,1 -0,0 -0,0 0,0 0,-0 0,-0 -0,-0 z 
m 708,0 0,1 1,-0 -0,-1 z 
m -709,2 1,0 0,-0 -0,-0 z 
m 709,-0 0,1 1,-0 -0,-1 z 
m -709,2 0,0 0,-0 -0,-0 z 
m 709,-0 0,0 0,0 0,-0 -0,-0 0,-0 -0,-0 z 
m -710,2 -0,0 1,0 0,-0 0,-0 -1,-0 z 
m 710,-0 0,0 0,-0 0,-0 0,-0 -0,-0 z 
M 349,549 l 1,0 0,-1 -0,-0 z 
m 711,-0 0,1 1,-0 -0,-1 z 
m -711,2 0,0 0,-1 -0,-0 z 
m 711,-0 0,1 1,-0 -0,-1 z 
m -711,2 -0,0 0,0 0,-0 0,-0 0,-0 -0,-0 z 
m 711,-0 0,1 1,-0 -0,-1 z 
m -712,2 0,0 0,-1 -1,-0 z 
m 712,-0 0,0 0,0 1,-0 0,-0 0,-0 -0,-0 z 
m -712,2 0,0 0,-0 -0,-0 z 
m 712,-0 0,0 -0,0 1,0 0,-0 -0,-0 z 
m -712,2 -0,0 1,0 0,-0 0,-0 -1,-0 z 
m 712,0 1,0 0,-1 -1,-0 z 
m -713,1 1,0 0,-1 -1,-0 z 
m 712,0 1,0 0,-1 -1,-0 z 
m -713,1 1,0 0,-1 -1,-0 z 
m 713,0 0,0 0,-1 -1,-0 z 
M 348,564 l -0,0 1,0 0,-0 0,-0 0,-0 -0,-0 z 
m 713,1 1,0 0,-1 -1,-0 z 
m -713,1 0,0 0,0 1,0 0,-0 0,-0 0,-0 -1,-0 z 
m 713,-0 -0,0 0,0 0,-0 0,-0 -1,-0 z 
m -713,2 1,0 0,-1 -1,-0 z 
m 712,-0 0,0 -0,0 1,0 0,-0 0,-0 -1,-0 z 
m -713,2 1,0 0,-1 -1,0 z 
m 712,-0 -0,0 1,0 0,-0 0,-0 0,-0 -1,-0 z 
m -712,1 0,0 1,0 0,-0 0,-0 -1,0 z 
m 712,0 0,0 0,-1 -1,-0 z 
m -712,1 1,0 0,-1 -1,0 z 
m 712,0 0,0 0,-0 -1,-0 z 
m -712,1 1,0 -0,-1 -0,0 z 
m 711,0 1,0 0,-0 -0,-0 z 
m -711,0 0,1 1,-0 -0,-1 z 
m 711,0 1,0 0,-1 -1,-0 z 
m -0,1 1,0 0,-0 -1,-0 z 
m -710,-0 0,0 0,0 0,-0 0,-0 -0,-0 z 
m 710,1 -0,0 0,0 0,-0 0,-0 0,-0 -1,-0 z 
m -710,0 0,1 1,-0 -0,-1 z 
m 709,2 0,0 0,-0 -0,-0 z 
M 348,584 l 0,1 1,-0 -0,-1 z 
m 709,2 -0,0 0,0 0,-0 0,-0 -0,-0 z 
M 348,586 l 0,1 1,-0 -0,-1 z 
m 708,2 0,0 0,-0 -0,-0 z 
m -708,-0 0,0 0,0 1,-0 -0,-0 -0,-0 z 
m 707,2 0,0 0,0 0,-0 0,-0 -0,-0 z 
M 348,590 l 0,0 0,0 0,0 0,-0 -0,-0 0,-0 -0,-0 z 
m 706,2 0,0 0,-0 -0,-0 z 
m -706,-0 0,1 1,-0 -0,-1 z 
m 705,2 0,0 0,-0 -0,-0 z 
m -705,-0 0,1 0,-0 -0,-0 z 
m 704,2 0,0 0,-0 -0,-0 z 
m -704,-0 0,1 0,-0 -0,-0 z 
m 703,1 0,0 0,-0 -0,-0 z 
m -703,0 0,0 0,0 0,-0 -0,-0 -0,-0 z 
m 702,1 0,0 0,-0 -0,-0 z 
m -702,0 0,0 0,0 0,-0 -0,-0 0,-0 -0,-0 z 
m 701,1 0,0 0,-0 -0,-0 z 
m -700,0 0,1 0,-0 -0,-0 z 
m 700,0 -0,0 0,0 0,-0 0,-0 0,-0 -0,-0 z 
m -699,1 0,0 0,-0 -0,-0 z 
m 698,1 0,0 0,-0 L 1050,605 z 
M 351,606 l 0,0 0,-0 -0,-0 z 
m 697,0 0,0 -0,0 0,0 0,-0 0,-0 0,-0 -0,-0 z 
m -696,1 0,0 0,-0 -0,-0 z 
m 695,1 0,0 0,-0 -0,-0 z 
m -695,0 0,0 0,0 0,0 0,-0 -0,-0 0,-0 -0,-0 z 
m 694,0 -0,0 0,0 0,-0 0,-0 0,0 0,-0 -0,-0 z 
m -693,1 0,0 0,-0 -0,-0 z 
M 1046,612 l 0,0 0,-0 -0,-0 z 
m -1,1 0,0 0,-0 -0,-0 z 
m -691,-0 0,0 0,0 0,0 0,-0 0,-0 0,-0 -0,-0 z 
m 690,2 0,0 0,-0 -0,-0 z 
m -689,-0 0,0 0,-0 -0,-0 z 
m 688,1 0,0 0,-0 -0,-0 z 
m -687,-0 0,0 0,-0 -0,-0 z 
m 686,1 0,0 0,-0 -0,-0 z 
m -685,0 0,0 0,-0 -0,-0 z 
m 684,1 0,0 0,-0 -0,-0 z 
m -683,0 0,0 0,-0 -0,-0 z 
m 682,1 0,0 0,-0 -0,-0 z 
m -682,0 0,0 0,0 0,-0 -0,-0 -0,-0 z 
m 680,1 0,0 0,-0 -0,-0 z 
m -680,0 0,0 0,-0 -0,-0 z 
m 678,0 0,0 0,-0 -0,-0 z 
m -678,0 0,0 0,0 0,-0 -0,-0 0,0 -0,-0 z 
m 676,0 0,0 0,-0 -0,-0 z 
M 360,629 l 0,0 0,-0 -0,-0 z 
m 675,-0 0,0 -0,0 0,0 0,-0 0,-0 -0,-0 z 
m -1,2 0,0 0,-0 -0,-0 z 
m -672,-0 0,0 0,-0 -0,-0 z 
m 671,1 -0,0 0,0 0,-0 0,0 0,-0 -0,-0 z 
m -670,0 0,0 0,-0 -0,-0 z 
m 669,1 0,0 0,-0 -0,-0 z 
M 363,634 l 0,0 0,-0 -0,-0 z 
m 667,0 0,0 -0,0 0,0 0,-0 0,-0 -0,-0 z 
M 364,636 l 0,0 0,-0 -0,-0 z 
m 664,1 0,0 0,-0 -0,-0 z 
m -663,0 0,0 0,-0 -0,-0 z 
m 662,0 -0,0 0,0 0,-0 0,-0 -0,-0 z 
m -661,1 0,0 0,-0 -0,-0 z 
m 659,0 0,0 0,-0 -0,-0 z 
m -658,1 0,0 0,-0 -0,-0 z 
m 657,0 -0,0 0,0 0,-0 0,-0 -0,-0 z 
m -656,1 0,0 0,0 0,0 0,-0 -0,-0 -0,-0 z 
m 654,0 0,0 0,-0 -0,-0 z 
m -1,1 -0,0 0,0 0,-0 0,-0 0,-0 -0,-0 z 
m -652,0 0,0 0,-0 -0,-0 z 
m 650,1 0,0 0,-0 -0,-0 z 
m -649,0 0,0 0,0 0,0 0,0 0,-0 -0,-0 0,-0 -0,-0 z 
m 648,1 -0,0 0,0 -0,0 0,0 0,-0 0,-0 -0,-0 z 
m -647,0 0,0 0,-0 -0,-0 z 
m 645,1 0,0 0,-0 -0,-0 z 
m -644,0 0,0 0,0 0,0 0,0 0,-0 -0,-0 -0,-0 z 
m 643,0 -0,0 0,0 0,-0 0,-0 -0,-0 z 
m -641,0 0,0 0,-0 -0,-0 z 
m 640,0 0,0 0,-0 -0,-0 z 
m -639,0 0,0 0,0 0,-0 0,-0 -0,-0 z 
m 637,0 -0,0 0,0 0,-0 0,-0 -0,-0 z 
m -636,1 0,0 0,-0 -0,-0 z 
m 634,0 0,0 0,-0 -0,-0 z 
m -633,1 0,0 0,-0 -0,-0 z 
m 632,-0 -0,0 0,0 0,-0 0,-0 -0,-0 z 
m -1,1 0,0 0,-0 -0,-0 z 
m -629,0 0,0 0,-0 -0,-0 z 
m 627,0 -0,0 0,0 0,-0 0,-0 -0,-0 z 
m -626,0 0,0 0,-0 -0,-0 z 
m 624,0 0,0 0,-0 -0,-0 z 
m -623,0 0,0 0,-0 -0,-0 z 
m 622,0 -0,0 0,0 0,-0 0,-0 0,-0 L 1004,660 z 
m -620,0 0,0 0,-0 -0,-0 z 
m 618,0 0,0 0,-0 -0,-0 z 
m -617,0 0,0 0,-0 -0,-0 z 
m 616,-0 -0,0 0,0 0,-0 0,-0 -0,-0 z 
m -615,1 0,0 0,-0 -0,-0 z 
m 612,0 0,0 0,-0 -0,-0 z 
m -611,1 0,0 0,-0 -0,-0 z 
m 610,-0 -0,0 0,0 0,-0 0,-0 -0,-0 z 
m -609,1 0,0 0,-0 -0,-0 z 
m 606,-0 0,0 0,-0 -0,-0 z 
m -1,1 0,0 0,-0 L 995,667 z 
m -603,0 0,0 0,-0 -0,-0 z 
m 602,0 0,0 0,-0 -0,-0 z 
m -600,0 0,0 0,-0 -0,-0 z 
m 599,0 0,0 0,-0 -0,-0 z 
m -597,0 0,0 0,-0 -0,-0 z 
m 595,0 0,0 0,-0 -0,-0 z 
M 395,672 l 0,0 0,-0 -0,-0 z 
m 592,0 0,0 0,-0 L 989,672 z 
m -591,0 0,0 0,-0 -0,-0 z 
m 590,-0 -0,0 -0,0 0,0 0,-0 0,-0 0,-0 -0,-0 z 
m -588,1 0,0 0,-0 -0,-0 z 
m 586,0 0,0 0,-0 -0,-0 z 
m -584,1 0,0 0,-0 -0,-0 z 
m 583,0 0,0 0,-0 -0,-0 z 
m -581,1 0,0 0,-0 -0,-0 z 
M 982,676 l -0,0 0,0 0,-0 0,0 0,-0 -0,-0 z 
m -578,1 0,0 0,-0 L 404,677 z 
M 979,678 l 0,0 0,-0 -0,-0 z 
m -1,1 0,0 0,-0 -0,-0 z 
m -573,0 0,0 0,-0 -0,-0 z 
m 571,0 -0,0 0,0 0,-0 0,0 0,-0 -0,-0 z 
m -570,0 0,0 0,-0 -0,-0 z 
m 568,0 0,0 0,-0 -0,-0 z 
m -566,0 0,0 0,-0 L 408,681 z 
m 564,0 0,0 0,-0 -0,-0 z 
m -563,0 0,0 0,-0 -0,-0 z 
m 561,0 0,0 0,-0 -0,-0 z 
m -559,0 0,0 0,0 0,0 0,-0 -0,-0 -0,-0 z 
m 558,0 0,0 0,-0 -0,-0 z 
m -556,0 0,0 0,-0 -0,-0 z 
m 554,0 -0,0 -0,0 0,0 0,-0 0,-0 -0,-0 z 
M 415,686 l 0,0 0,0 0,-0 -0,-0 -0,-0 z 
m 551,0 0,0 0,-0 -0,-0 z 
m -549,1 0,0 0,-0 -0,-0 z 
m 547,-0 0,0 0,-0 -0,-0 z 
m -545,1 0,0 0,0 0,0 0,-0 -0,-0 -0,-0 z 
m 544,-0 0,0 L 964,688 l -0,-0 z 
m -542,1 0,0 0,-0 -0,-0 z 
M 961,689 l -0,0 0,0 0,-0 0,0 0,-0 -0,-0 z 
m -539,1 0,0 0,-0 -0,-0 z 
m 537,-0 0,0 0,-0 L 960,689 z 
m -535,1 0,0 0,-0 -0,-0 z 
m 533,-0 0,0 0,-0 -0,-0 z 
m -1,0 0,0 0,-0 -0,-0 z 
m -530,0 0,0 0,-0 -0,-0 z 
m 1,0 0,0 0,0 0,-0 -0,-0 -0,-0 z 
m 527,-0 0,0 0,-0 -0,-0 z 
m -525,1 0,0 0,-0 -0,-0 z 
m 527,0 0,0 0,-0 -0,-0 z 
m -525,0 0,0 0,-0 -0,-0 z 
M 432,696 l 0,0 0,-0 -0,-0 z 
m 524,0 0,0 0,-0 L 958,695 z 
m -522,0 0,0 0,-0 L 434,696 z 
m 1,0 0,0 0,-0 -0,-0 z 
m 522,0 0,0 0,-0 -0,-0 z 
m -520,0 0,0 0,-0 -0,-0 z 
m 1,0 0,0 0,-0 -0,-0 z 
m 519,-0 0,0 0,0 0,-0 0,-0 -0,-0 z 
m -518,0 0,0 0,-0 -0,-0 z 
m 1,0 0,0 0,-0 -0,-0 z 
M 960,701 l 0,0 0,-0 -0,-0 z 
m -515,0 0,0 0,-0 -0,-0 z 
m 1,0 0,0 0,-0 -0,-0 z 
m 514,-0 0,0 0,0 0,-0 -0,-0 -0,-0 -0,-0 z 
m -512,0 0,0 0,0 0,-0 -0,-0 -0,-0 z 
m 1,0 0,0 0,-0 -0,-0 z 
m 512,0 0,0 0,-0 -0,-0 z 
m -510,0 0,0 0,-0 -0,-0 z 
m 1,0 0,0 0,-0 -0,-0 z 
m 1,0 0,0 0,-0 -0,-0 z 
m 507,-0 0,0 0,-0 0,-0 0,-0 -0,-0 z 
m -505,0 0,0 0,-0 -0,-0 z 
m 1,0 0,0 0,0 0,0 0,-0 -0,-0 -0,0 -0,-0 z 
m 504,0 0,0 0,-0 L 966,707 z 
m -503,0 0,0 0,-0 -0,-0 z 
m 1,0 0,0 0,-0 -0,-0 z 
m 1,0 0,0 0,0 0,-0 -0,-0 z 
m 0,0 -0,0 0,0 0,-0 -0,-0 z 
m 499,-0 0,0 0,-0 -0,-0 z 
m 1,1 0,0 0,-0 -0,-0 z 
m -502,1 0,0 0,-0 -0,-0 z 
m 503,0 0,0 0,-0 -0,-0 z 
m -504,1 0,0 0,-0 -0,-0 z 
m 505,0 0,0 0,0 0,-0 -0,-0 -0,0 -0,-0 z 
m -505,0 0,0 -0,0 0,0 0,-0 0,-0 -0,-0 z 
m 506,1 0,0 0,-0 -0,-0 z 
m -508,1 0,0 0,-0 -0,-0 z 
m 509,0 0,0 0,-0 -0,-0 z 
m -509,1 0,0 0,-0 -0,-0 z 
m 510,0 0,0 0,0 0,-0 -0,-0 -0,0 -0,-0 z 
M 460,721 l 0,0 0,-0 -0,-0 z 
m 512,0 0,0 0,-0 L 974,721 z 
M 459,722 l 0,0 0,-0 -0,-0 z 
m 514,0 0,0 0,-0 -0,-0 z 
M 458,724 l 0,0 0,-0 -0,-0 z 
m 516,0 0,0 0,0 L 976,725 976,724 l -0,-0 z 
m -516,1 0,0 -0,0 0,0 0,-0 0,-0 -0,-0 z 
m 517,0 0,0 0,-0 -0,-0 z 
m -518,1 0,0 0,-0 -0,-0 z 
m 519,0 0,0 0,-0 -0,-0 z 
m -520,1 0,0 0,-0 -0,-0 z 
m 521,0 0,0 0,0 0,-0 -0,-0 -0,-0 z 
m -522,1 0,0 0,-0 L 455,731 z 
M 978,732 l 0,0 0,-0 -0,-0 z 
m -523,1 0,0 0,-0 -0,-0 z 
m 524,0 0,0 0,-0 -0,-0 z 
m -525,1 0,0 0,-0 -0,-0 z 
m 526,0 0,0 0,-0 -0,-0 z 
M 453,737 l 0,0 0,-0 -0,-0 z 
m 527,0 0,0 0,-0 -0,-0 z 
m -528,1 0,0 0,-0 -0,-0 z 
m 528,0 0,0 -0,0 0,0 0,-0 -0,-0 0,-0 -0,-0 z 
m -529,1 0,0 0,-0 -0,-0 z 
m 530,0 0,0 0,-0 -0,-0 z 
m -531,1 0,0 0,-0 -0,-0 z 
m 531,0 0,0 0,-0 -0,-0 z 
m -532,1 0,0 0,-0 L 450,744 z 
m 533,0 0,0 0,-0 -0,-0 z 
m -533,1 0,0 0,-0 -0,-0 z 
m 534,0 0,0 0,-0 -0,-0 z 
m -534,0 0,0 -0,0 0,0 0,-0 0,-0 -0,-0 z 
m 535,0 0,0 0,0 0,0 0,-0 0,-0 -0,-0 z 
m -536,1 0,0 L 449,750 448,749 z 
m 536,0 0,0 0,-0 -0,-0 z 
m -537,1 0,0 0,-0 -0,-0 z 
m 538,0 0,0 0,0 0,-0 -0,-0 -0,0 0,-0 -0,-0 z 
m -538,1 0,0 0,-0 -0,-0 z 
m 539,0 0,0 0,-0 -0,-0 z 
m -539,1 0,0 0,-0 -0,-0 z 
m 540,0 0,0 0,0 0,-0 -0,-0 L 987,756 z 
m -540,1 -0,0 0,0 0,-0 0,-0 0,-0 -0,-0 z 
m 541,0 0,0 0,-0 -0,-0 z 
m -541,1 0,0 0,-0 -0,-0 z 
m 542,0 0,0 1,-0 -0,-1 z 
m -542,0 0,0 -0,0 0,0 0,-0 0,-0 -0,-0 z 
m 543,1 0,0 0,-0 -0,-0 z 
m -543,1 0,0 0,-0 -0,-0 z 
m 544,0 0,0 1,-0 -0,-1 z 
m -544,0 -0,0 0,0 0,-0 0,-0 0,-0 -0,-0 z 
m 544,1 0,0 0,-0 -0,-1 z 
m -545,1 0,0 0,-0 -0,-0 z 
m 545,0 0,0 1,-0 -0,-0 z 
M 442,770 l 0,0 0,-0 -1,-0 z 
m 546,0 0,1 1,-0 -0,-1 z 
m -546,1 0,0 0,-0 -1,-0 z 
m 547,0 0,1 0,-0 -0,-1 z 
m -547,1 1,0 0,-0 -1,-0 z 
m 547,0 0,0 0,0 0,0 1,-0 0,-0 -0,-0 z 
m -548,1 1,0 0,-0 -1,-0 z 
m 548,0 0,0 1,-0 -0,-0 z 
m -548,1 1,0 0,-1 -0,-0 z 
m 548,0 0,0 0,0 0,0 1,-0 -0,-0 -0,-0 z 
m -549,1 0,0 0,-1 -1,-0 z 
m 549,0 0,1 1,-0 -0,-1 z 
m -549,1 0,0 0,-1 -1,-0 z 
m 549,0 0,0 0,0 1,-0 0,-0 0,-0 -0,-0 z 
m -549,1 0,0 0,-0 -1,-0 z 
m 550,0 0,1 1,-0 -0,-1 z 
m -550,1 1,0 0,-0 -0,-0 z 
m 550,0 0,0 0,0 1,0 0,-0 0,-0 z 
m -550,1 0,0 0,-1 -1,-0 z 
m 550,1 1,0 0,-1 -1,-0 z 
m -550,0 0,0 0,-1 -1,-0 z 
m 550,1 0,0 -0,0 1,0 0,-0 0,-0 0,-0 -1,-0 z 
m -550,0 1,0 0,-1 -0,-0 z 
m 550,1 1,0 0,-1 -1,-0 z 
m -551,0 1,0 0,-1 -0,-0 z 
m 550,1 0,0 0,0 1,0 0,-0 0,-0 0,-0 -1,-0 z 
m -551,0 1,0 0,-1 -1,-0 z 
m 550,1 1,0 0,-1 -1,-0 z 
m -550,0 1,0 0,-1 -1,-0 z 
m 550,1 0,0 -0,0 1,0 0,-0 0,-0 0,-0 -1,-0 z 
m -550,0 1,0 0,-1 -1,-0 z 
m 550,1 1,0 0,-1 -0,-0 z 
m -550,0 1,0 0,-1 -1,0 z 
m 550,1 0,0 0,0 1,0 0,-0 0,-0 0,-0 -0,-0 z 
m -550,0 1,0 0,-1 -1,0 z 
m 550,1 0,0 0,-1 -1,-0 z 
m -550,-0 0,1 1,-0 -0,-1 z 
m 549,2 1,0 0,-1 -1,-0 z 
m -549,-0 0,1 1,-0 0,-1 z 
m 549,2 0,0 0,-1 -0,-0 z 
m -549,-0 0,1 1,-0 -0,-1 z 
m 549,2 1,0 0,-1 -1,-0 z 
m -548,-0 0,1 1,-0 -0,-1 z 
M 988,813 l 0,0 0,-1 L 988,812 z 
m -548,-0 0,1 1,-0 -0,-0 z 
m 547,2 0,0 0,-0 -0,-0 z 
m -547,-0 0,1 1,-0 -0,-1 z 
m 547,2 0,0 0,-0 -0,-0 z 
m -547,-0 0,1 1,-0 -0,-1 z 
m 546,1 0,0 0,-0 -0,-0 z 
m -546,0 0,1 1,-0 -0,-1 z 
m 546,1 -0,0 0,0 0,-0 0,-0 0,-0 -0,-0 z 
m -545,1 0,1 1,-0 -0,-1 z 
m 544,1 0,0 0,-0 -0,-0 z 
m -544,0 0,1 1,-0 -0,-1 z 
m 544,1 0,0 -0,0 0,0 0,-0 0,-0 0,-0 -0,-0 z 
m -543,0 0,0 0,0 0,0 0,-0 -0,-0 0,0 -0,-0 z 
m 543,1 0,0 0,-0 L 984,825 z 
M 441,826 l 0,0 0,-0 -0,-0 z 
m 542,1 0,0 0,-0 -0,-0 z 
m -541,0 0,0 0,0 0,0 0,0 0,-0 -0,-0 0,-0 -0,-0 z 
m 540,1 0,0 0,-0 -0,-0 z 
m -540,0 0,1 0,-0 -0,-0 z 
m 539,1 0,0 0,-0 -0,-0 z 
m -539,0 0,0 0,0 0,0 0,-0 -0,-0 0,-0 -0,-0 z 
m 538,1 0,0 0,-0 -0,-0 z 
m -537,0 0,0 0,-0 -0,-0 z 
m 537,1 0,0 0,-0 -0,-0 z 
m -536,0 0,0 0,0 0,-0 0,-0 0,0 -0,-0 z 
m 536,0 0,0 -0,0 0,0 0,-0 0,-0 0,-0 -0,-0 z 
m -535,1 0,0 0,-0 -0,-0 z 
m 534,0 0,0 0,-0 -0,-0 z 
m -533,1 0,0 L 446,841 446,840 z 
m 532,0 0,0 0,-0 -0,-0 z 
m -0,1 0,0 0,-0 -0,-0 z 
m -531,-0 0,0 0,-0 -0,-0 z 
m 530,2 0,0 0,-0 -0,-0 z 
m -529,-0 0,0 0,-0 -0,-0 z 
m 529,1 -0,0 -0,0 0,0 0,-0 0,-0 -0,-0 z 
m -528,0 0,0 0,-0 -0,-0 z 
M 974,847 l 0,0 0,-0 -0,-0 z 
m -526,-0 0,0 0,-0 -0,-0 z 
m 525,1 0,0 0,-0 -0,-0 z 
m -524,0 0,0 0,0 0,0 0,-0 -0,-0 -0,-0 -0,-0 z 
m 523,1 0,0 0,-0 -0,-0 z 
m -522,0 0,0 0,-0 -0,-0 z 
m 521,1 0,0 0,-0 -0,-0 z 
m -520,0 0,0 0,0 0,-0 -0,-0 -0,-0 z 
m 519,0 0,0 -0,0 0,0 0,-0 0,-0 -0,-0 z 
m -518,1 0,0 0,-0 -0,-0 z 
m 517,1 0,0 0,-0 -0,-0 z 
m -516,0 0,0 0,-0 -0,-0 z 
m 515,1 0,0 0,-0 -0,-0 z 
M 453,858 l 0,0 0,-0 -0,-0 z 
m 513,0 0,0 0,-0 -0,-0 z 
m -512,0 0,0 0,-0 -0,-0 z 
m 511,0 -0,0 0,0 0,-0 0,0 0,-0 0,-0 -0,-0 z 
m -248,1 -0,0 0,0 0,0 0,-0 0,0 0,-0 0,-0 -0,-0 -0,-0 z 
m -262,0 0,0 0,-0 L 456,861 z 
m 508,0 -0,0 0,0 0,-0 0,-0 -0,-0 z 
m -245,1 0,0 0,0 0,-0 -0,-0 -0,-0 z 
m -2,-0 0,0 -0,0 0,0 0,-0 0,-0 -0,-0 z 
m -260,0 0,0 0,0 0,-0 -0,-0 -0,-0 -0,-0 z 
m 506,0 0,0 0,-0 -0,-0 z 
m -242,0 0,0 0,0 0,-0 -0,-0 -0,-0 z 
m -5,0 0,0 0,-0 0,-0 -0,-0 -0,-0 z 
m -257,-0 0,0 0,0 0,0 0,-0 -0,-0 -0,-0 z 
m 504,0 0,0 0,-0 -0,-0 z 
m -239,0 0,0 0,-0 -0,-0 z 
m -7,0 -0,0 0,0 0,-0 0,-0 -0,-0 z 
m 246,0 -0,0 0,0 0,-0 0,-0 -0,-0 z 
M 458,867 459,868 l 0,-0 -0,-0 z 
m 264,0 0,0 0,-0 -0,-0 z 
m -10,0 0,0 0,-0 -0,-0 z 
m 246,0 0,0 0,-0 -0,-0 z 
m -499,0 0,0 0,-0 -0,-0 z 
m 264,0 0,0 0,-0 -0,-0 z 
m -13,0 0,0 0,-0 -0,-0 z 
m 246,0 0,0 0,-0 -0,-0 z 
m -231,0 0,0 0,-0 -0,-0 z 
m -265,0 0,0 0,-0 -0,-0 z 
m 248,1 0,0 0,-0 -0,-0 z 
m 18,0 0,0 0,-0 -0,-0 z 
m 229,-0 0,0 -0,0 0,0 0,-0 0,-0 -0,-0 z 
m -494,0 -0,0 0,0 0,0 0,0 0,-0 -0,-0 0,-0 -0,0 z 
M 708,873 l 0,0 0,-0 -0,-0 z 
m 21,0 0,0 0,-0 -0,-0 z 
m 225,0 0,0 0,-0 -0,-0 z 
m -491,0 0,0 0,0 0,-0 L 464,873 464,873 z 
m 267,0 0,0 0,-0 -0,-0 z 
m -23,0 0,0 0,-0 -0,-0 z 
m 246,0 0,0 0,-0 -0,-0 z 
m -488,0 0,0 0,-0 -0,-0 z 
m 267,0 0,0 0,0 0,-0 -0,-0 -0,-0 z 
m -26,-0 -0,0 0,0 0,-0 0,-0 0,-0 -0,-0 z 
m 246,0 -0,0 0,0 0,-0 0,-0 -0,-0 z 
m -486,1 0,0 0,-0 -0,-0 z 
m 267,0 0,0 0,-0 -0,-0 z 
m -29,0 0,0 0,-0 -0,-0 z 
m 246,0 0,0 0,-0 -0,-0 z 
m -215,0 0,0 0,-0 -0,-0 z 
m -268,0 0,0 0,-0 -0,-0 z 
m 235,0 0,0 0,-0 -0,-0 z 
m 246,0 0,0 0,-0 -0,-0 z 
m -212,0 0,0 0,0 0,0 0,-0 -0,-0 -0,-0 z 
m -268,0 0,0 0,0 0,-0 -0,-0 0,-0 -0,-0 z 
m 232,0 0,0 0,-0 -0,-0 z 
m 247,-0 -0,0 -0,0 0,0 0,-0 0,-0 0,-0 L 948,879 z 
m -209,0 0,0 0,-0 -0,-0 z 
m -268,0 0,0 0,0 0,-0 -0,-0 -0,-0 z 
m 229,0 0,0 0,-0 -0,-0 z 
m 40,0 0,0 0,-0 -0,-0 z 
m 206,-0 0,0 0,-0 -0,-0 z 
m -475,0 0,0 0,-0 -0,-0 z 
m 227,-0 -0,0 -0,0 0,0 0,-0 0,-0 -0,-0 z 
m 43,0 0,0 0,0 0,0 0,-0 -0,-0 -0,-0 z 
m 203,0 0,0 0,-0 -0,-0 z 
M 743,884 l 0,0 0,-0 -0,-0 z 
m -270,-0 0,0 0,-0 -0,-0 z 
m 223,0 0,0 0,-0 -0,-0 z 
m 247,-0 -0,0 -0,0 0,0 0,-0 0,-0 0,-0 -0,-0 z 
m -198,1 0,0 0,-0 -0,-0 z 
m -270,-0 -0,0 0,0 0,0 0,-0 -0,-0 -0,0 z 
m 220,0 0,0 0,-0 -0,-0 z 
m 246,0 0,0 0,-0 -0,-0 z 
m -195,0 0,0 0,-0 -0,-0 z 
m -271,0 0,0 0,0 0,-0 -0,-0 -0,0 -0,-0 z 
m 218,-0 -0,0 0,0 0,-0 0,-0 0,-0 -0,-0 z 
m 246,0 0,0 0,-0 -0,-0 z 
m -192,0 0,0 0,-0 -0,-0 z 
m -56,0 0,0 0,-0 L 692,887 z 
M 477,888 l 0,0 0,-0 -0,-0 z 
m 461,0 -0,0 0,0 0,-0 0,-0 -0,-0 z 
m -189,0 0,0 0,-0 -0,-0 z 
m -59,0 0,0 0,-0 -0,-0 z 
M 478,889 l 0,0 0,-0 -0,-0 z 
m 273,0 0,0 0,-0 -0,-0 z 
m 185,0 0,0 0,-0 -0,-0 z 
m -247,0 0,-0 -0,0 0,0 0,-0 0,0 0,-0 -0,-0 z 
m -209,0 0,0 0,0 0,-0 -0,-0 -0,0 -0,-0 z 
m 273,0 0,0 0,0 0,-0 -0,-0 -0,-0 z 
m 181,0 0,0 0,-0 -0,-0 z 
m -180,0 0,0 0,-0 L 755,891 z 
M 687,892 l 0,0 0,-0 L 688,891 z 
m -205,0 0,0 0,-0 -0,-0 z 
m 452,0 -0,0 0,0 0,-0 0,-0 -0,-0 z 
m -177,0 0,0 0,-0 -0,-0 z 
m -70,0 0,0 0,-0 -0,-0 z 
m -202,0 0,0 0,-0 -0,-0 z 
M 931,894 l 0,0 0,-0 -0,-0 z 
m -173,0 0,0 0,-0 -0,-0 z 
m -73,0 0,0 0,-0 -0,-0 z 
m -199,0 0,0 0,-0 -0,-0 z 
m 275,0 0,0 0,-0 -0,-0 z 
m 170,-0 0,0 0,-0 -0,-0 z 
m -247,0 0,0 0,-0 -0,-0 z 
m -196,0 0,0 0,0 0,-0 -0,-0 -0,-0 z 
m 275,0 0,0 0,-0 -0,-0 z 
m 167,-0 -0,0 0,0 0,-0 0,-0 0,-0 -0,-0 z 
m -247,0 -0,0 0,0 0,-0 0,0 0,-0 -0,-0 z 
m -193,0 0,0 0,-0 -0,-0 z 
m 275,0 0,0 0,-0 -0,-0 z 
m 163,0 0,0 0,-0 -0,-0 z 
m -247,0 0,0 0,-0 -0,-0 z 
m 85,0 0,0 0,-0 -0,-0 z 
m -275,-0 0,0 0,-0 -0,-0 z 
M 925,898 926,899 l 0,-0 -0,-0 z 
m -158,0 0,0 0,-0 -0,-0 z 
m -88,-0 -0,0 0,0 0,-0 0,-0 -0,-0 z 
m -187,0 0,0 0,0 0,-0 -0,-0 -0,-0 z 
m 432,0 -0,0 0,0 0,-0 0,0 0,-0 -0,-0 z 
m -155,0 0,0 0,-0 -0,-0 z 
m -275,0 0,0 0,-0 -0,-0 z 
m 183,-0 0,0 0,-0 -0,-0 z 
m 245,0 0,0 0,-0 -0,-0 z 
m -151,0 0,0 0,-0 -0,-0 z 
m -275,0 0,0 0,-0 -0,-0 z 
m 180,-0 0,0 0,-0 -0,-0 z 
m 97,0 0,0 0,-0 -0,-0 z 
m 148,-0 0,0 0,-0 -0,-0 z 
m -424,0 0,0 0,0 0,0 0,-0 -0,-0 0,0 -0,-0 z 
M 673,902 l 0,0 0,-0 -0,-0 z 
m 100,0 0,0 0,-0 -0,-0 z 
M 918,902 918,903 l 0,0 0,-0 0,-0 -0,-0 z 
m -421,0 0,0 0,-0 -0,-0 z 
m 173,-0 0,0 0,-0 -0,-0 z 
m 104,0 0,0 0,-0 -0,-0 z 
m 141,-0 0,0 0,-0 -0,-0 z 
m -139,0 0,0 0,-0 -0,-0 z 
m -277,-0 0,0 0,0 0,0 0,-0 -0,-0 -0,0 z 
m 170,-0 0,0 0,-0 -0,-0 z 
m 245,0 0,0 0,-0 -0,-0 z 
m -136,0 0,0 0,-0 -0,-0 z 
m -277,0 0,0 0,-0 -0,-0 z 
m 166,-0 0,0 0,-0 -0,-0 z 
m 245,0 -0,0 0,0 0,-0 0,0 0,-0 -0,-0 z 
M 781,906 782,907 l 0,-0 -0,-0 z 
m -278,0 0,0 0,-0 -0,-0 z 
m 163,-0 -0,0 0,0 0,-0 0,0 0,-0 -0,-0 z 
m 245,0 0,0 0,-0 -0,-0 z 
m -128,0 0,0 0,-0 -0,-0 z 
m -278,0 0,0 0,0 0,-0 -0,-0 -0,0 -0,-0 z 
m 159,-0 0,0 0,-0 -0,-0 z 
m 245,0 0,0 0,-0 -0,-0 z 
M 784,908 l 0,0 0,-0 -0,-0 z 
m -278,0 0,0 0,-0 -0,-0 z 
m 280,0 0,0 0,-0 -0,-0 z 
m 122,-0 -0,0 -0,0 0,0 0,-0 0,-0 -0,-0 z 
m -245,0 -0,0 -0,0 0,0 0,-0 0,0 0,-0 -0,-0 z 
m -154,1 0,0 0,-0 -0,-0 z 
m 280,0 0,0 0,-0 -0,-0 z 
m 118,-0 0,0 0,-0 -0,-0 z 
m -245,0 0,0 0,-0 -0,-0 z 
m 129,0 0,0 0,-0 -0,-0 z 
m -280,0 0,0 0,-0 -0,-0 z 
m 394,-0 0,0 0,-0 -0,-0 z 
m -245,0 -0,0 0,0 0,-0 0,0 0,-0 -0,-0 z 
m 132,0 0,0 0,0 0,0 0,-0 -0,-0 -0,0 -0,-0 z 
m -280,0 0,0 0,-0 -0,-0 z 
m 391,-0 0,0 0,-0 -0,-0 z 
m -245,0 0,0 0,-0 -0,-0 z 
M 794,912 l 0,0 0,-0 -0,-0 z 
m -280,0 0,0 0,0 0,0 0,-0 -0,-0 -0,-0 z 
m 387,-0 -0,0 -0,0 0,0 L 901,913 902,912 902,911 z 
m -105,0 0,0 0,0 0,0 0,-0 -0,-0 -0,-0 z 
M 656,912 l -0,0 -0,0 0,0 0,-0 0,-0 0,-0 -0,-0 z 
m 243,0 0,0 0,-0 -0,-0 z 
m -383,0 0,0 0,-0 -0,-0 z 
m 282,0 0,0 0,-0 -0,-0 z 
m -143,-0 0,0 0,-0 -0,-0 z 
m 243,0 0,0 0,-0 -0,-0 z 
m -97,0 0,0 0,0 0,-0 -0,-0 -0,0 -0,-0 z 
m -282,0 0,0 0,-0 -0,-0 z 
m 135,-0 -0,0 0,0 0,-0 0,-0 0,0 0,-0 -0,-0 z 
m 148,0 0,0 0,-0 -0,-0 z 
m 94,-0 -0,0 0,0 0,-0 0,-0 -0,-0 z 
m -377,1 0,0 0,0 0,-0 -0,-0 -0,-0 z 
m 284,0 0,0 L 804,915 803,914 z 
m 90,-0 -0,0 0,0 0,-0 0,-0 -0,-0 z 
m -243,0 0,0 0,-0 -0,-0 z 
M 520,916 l 0,0 0,-0 -0,-0 z 
m 284,0 0,0 0,-0 -0,-0 z 
m 86,-0 0,0 0,-0 -0,-0 z 
m -242,0 -0,0 0,0 0,-0 0,-0 0,-0 -0,-0 z 
m 158,0 0,0 0,-0 -0,-0 z 
m -284,0 0,0 L 524,916 523,916 z 
m 367,-0 0,0 0,-0 -0,-0 z 
m -80,1 0,0 0,-0 -0,-0 z 
M 646,917 l 0,0 0,-0 -0,-0 z 
M 888,917 l 0,0 0,-0 0,-0 -0,-0 -0,0 z 
m -363,0 0,0 0,0 0,-0 -0,0 -0,-0 z 
m 286,0 0,0 0,-0 L 811,917 z 
m 75,-0 -0,0 0,0 0,-0 0,-0 -0,-0 z 
m -241,0 -0,0 0,0 0,-0 0,-0 -0,-0 z 
m 167,0 0,0 0,0 0,-0 -0,-0 -0,-0 z 
m -286,0 0,0 0,-0 -0,-0 z 
m 357,-0 0,0 0,-0 -0,-0 z 
m -69,0 0,0 0,-0 -0,-0 z 
m -171,-0 0,0 0,-0 -0,-0 z 
M 528,919 l 0,0 0,0 0,-0 -0,-0 -0,0 z 
m 354,-0 0,0 0,-0 -0,-0 z 
m -65,0 0,0 0,0 0,-0 -0,-0 -0,-0 z 
m 63,-0 0,0 0,-0 -0,-0 z 
m -61,0 0,0 0,-0 -0,-0 z 
m -177,-0 -0,0 -0,0 0,0 0,-0 0,-0 0,0 0,-0 -0,-0 z 
M 530,920 l 0,0 0,-0 -0,-0 z 
m 348,-0 -0,0 0,0 0,-0 0,-0 -0,-0 z 
m -58,0 0,0 0,-0 -0,-0 z 
m -181,-0 0,0 0,-0 -0,-0 z 
m 237,-0 -0,0 0,1 0,-0 0,0 0,-0 -0,-1 z 
M 532,920 l 0,0 0,-0 -0,-0 z 
m 290,0 0,0 0,-0 L 823,919 z 
m 1,0 0,0 0,-0 -0,-0 z 
m 49,-0 0,1 1,-0 -0,-1 z 
m -236,0 0,0 0,-0 -0,-0 z 
m -103,0 -0,0 0,0 0,0 0,-0 -0,-0 -0,0 z 
M 826,921 l 1,0 0,-1 -1,-0 z 
m 45,-0 0,1 1,-0 -0,-1 z 
m -43,1 1,0 0,-1 -1,-0 z 
m 41,-0 0,0 0,-0 -0,-0 z 
m -234,0 0,0 0,-0 -0,-0 z 
m -99,0 0,0 0,0 0,-0 -0,0 -0,-0 z 
m 294,0 0,0 0,0 0,0 0,-0 -0,-0 -0,0 -0,-0 z 
m 38,-0 -0,0 -0,0 0,1 0,-0 0,-0 0,-0 -0,-1 z 
m -36,1 0,0 0,-0 -1,-0 z 
m 33,-0 0,1 1,-0 -0,-1 z 
m -31,1 1,0 0,-1 -1,-0 z 
m 29,-0 0,1 1,-0 -0,-1 z 
m -326,0 0,0 0,-0 -0,-0 z 
m 96,-0 0,0 0,-0 -0,-0 z 
m 202,0 1,0 0,-1 -1,-0 z 
M 862,922 l 0,1 1,-0 -0,-0 z 
m -23,1 1,0 0,-1 -1,-0 z 
m 21,-0 0,1 1,-0 -0,-1 z 
m -19,1 1,0 0,-1 -1,-0 z 
m 18,-0 0,1 0,-0 0,0 0,0 -0,-1 -0,0 -0,0 z 
m -16,1 1,0 0,-1 -1,-0 z 
m -303,0 0,0 0,-0 -0,-0 z 
m 317,-0 0,1 0,-0 -0,-1 z 
m -224,0 0,0 0,-0 -0,-0 z 
m 212,0 0,0 0,0 0,0 0,-1 -0,-0 -0,0 -0,-0 z 
m 2,0 1,0 0,-1 -1,-0 z 
m 6,-0 0,1 1,-0 0,-1 z 
m -4,1 1,0 0,-1 -1,0 z 
m 2,0 1,0 0,-1 -1,0 z 
m -309,0 0,0 0,0 0,0 0,-0 -0,-0 -0,0 -0,-0 z 
m 88,-0 0,0 L 631,924 631,923 z 
m -86,1 0,0 0,-0 -0,-0 z 
m 84,-0 0,0 0,-0 -0,-0 z 
m -82,1 0,0 0,-0 -0,-0 z 
M 626,924 l 0,0 0,-0 -0,-0 z 
m -79,1 0,0 0,0 0,0 0,-0 -0,-0 -0,0 -0,-0 z 
m 77,-0 0,0 0,-0 0,-0 -0,-0 -0,0 -0,0 z 
m -75,1 0,0 0,-0 -0,-0 z 
m 73,-0 0,0 0,-0 -0,-0 z 
m -71,1 0,0 0,-0 -0,-0 z 
m 69,-0 0,-0 -0,0 0,0 0,-0 0,-0 -0,-0 z 
m -67,1 0,0 0,0 0,0 0,-1 -0,-0 -0,0 z 
m 65,-0 0,0 0,-0 -0,-1 z 
m -63,1 1,0 0,-0 -0,-0 z 
m 61,-0 -0,0 -0,0 0,0 0,0 0,-0 -0,-0 z 
M 557,927 l 0,0 0,-0 -0,-0 z 
m 57,-0 0,0 0,-0 -0,-0 z 
m -55,1 1,0 0,-0 -0,-0 z 
m 53,-0 0,1 1,-0 -0,-1 z 
m -51,1 1,0 0,-0 -0,-0 z 
m 49,-0 0,1 0,-0 -0,-1 z 
m -47,1 0,0 0,0 0,0 0,-0 -0,-0 -0,0 -0,-0 z 
m 45,-0 0,0 1,-0 -0,-1 z 
m -43,1 1,0 0,-0 -0,-0 z 
m 41,-0 0,1 0,-0 0,-0 -0,-0 -0,-0 -0,0 z 
m -39,1 0,0 0,-0 -1,-0 z 
m 37,-0 0,1 1,-0 -0,-1 z 
m -35,1 0,0 0,0 0,-1 -0,-0 -0,0 z 
m 34,-0 -0,0 0,1 0,-0 0,0 0,-0 -0,-0 z 
m -32,1 1,0 0,-1 -1,-0 z 
m 29,-0 0,1 1,-0 -0,-0 z 
m -27,1 1,0 0,-1 -1,-0 z 
m 25,-0 0,1 1,-0 -0,-1 z 
m -23,1 1,0 0,-1 -1,-0 z 
m 21,-0 0,0 1,-0 -0,-1 z 
m -19,1 1,0 0,-1 -1,-0 z 
m 17,-0 0,1 1,-0 -0,-1 z 
m -15,1 0,0 0,0 0,-1 -0,-0 -0,0 -0,-0 z 
m 14,-0 0,1 0,-0 0,0 0,0 -0,-1 -0,0 -0,0 z 
m -12,1 1,0 0,-1 -1,-0 z 
m 10,-0 0,1 1,-0 -0,-1 z 
m -8,1 1,0 0,-1 -1,-0 z 
m 6,-0 -0,0 0,1 0,0 0,0 0,-0 -0,-1 z 
m -4,1 1,0 0,-1 -1,0 z 
m 2,0 1,0 0,-1 -1,0 z"
       id="path2985"
       inkscape:connector-curvature="0" />
  </g>
</svg>
