<?xml version="1.0" encoding="UTF-8" standalone="no"?>
<!-- Created with Inkscape (http://www.inkscape.org/) -->
<svg
   xmlns:dc="http://purl.org/dc/elements/1.1/"
   xmlns:cc="http://creativecommons.org/ns#"
   xmlns:rdf="http://www.w3.org/1999/02/22-rdf-syntax-ns#"
   xmlns:svg="http://www.w3.org/2000/svg"
   xmlns="http://www.w3.org/2000/svg"
   xmlns:xlink="http://www.w3.org/1999/xlink"
   xmlns:sodipodi="http://sodipodi.sourceforge.net/DTD/sodipodi-0.dtd"
   xmlns:inkscape="http://www.inkscape.org/namespaces/inkscape"
   width="210mm"
   height="297mm"
   id="svg2"
   sodipodi:version="0.32"
   inkscape:version="0.46"
   sodipodi:docname="chair.svg"
   inkscape:output_extension="org.inkscape.output.svg.inkscape">
  <defs
     id="defs4">
    <linearGradient
       inkscape:collect="always"
       id="linearGradient3257">
      <stop
         style="stop-color:#f2f2f2;stop-opacity:1;"
         offset="0"
         id="stop3259" />
      <stop
         style="stop-color:#f2f2f2;stop-opacity:0;"
         offset="1"
         id="stop3261" />
    </linearGradient>
    <linearGradient
       inkscape:collect="always"
       id="linearGradient3243">
      <stop
         style="stop-color:#000000;stop-opacity:1;"
         offset="0"
         id="stop3245" />
      <stop
         style="stop-color:#000000;stop-opacity:0;"
         offset="1"
         id="stop3247" />
    </linearGradient>
    <linearGradient
       inkscape:collect="always"
       id="linearGradient3229">
      <stop
         style="stop-color:#ffffff;stop-opacity:1;"
         offset="0"
         id="stop3231" />
      <stop
         style="stop-color:#ffffff;stop-opacity:0;"
         offset="1"
         id="stop3233" />
    </linearGradient>
    <linearGradient
       inkscape:collect="always"
       id="linearGradient3211">
      <stop
         style="stop-color:#000000;stop-opacity:1;"
         offset="0"
         id="stop3213" />
      <stop
         style="stop-color:#000000;stop-opacity:0"
         offset="1"
         id="stop3215" />
    </linearGradient>
    <inkscape:perspective
       sodipodi:type="inkscape:persp3d"
       inkscape:vp_x="0 : 526.18109 : 1"
       inkscape:vp_y="0 : 1000 : 0"
       inkscape:vp_z="744.09448 : 526.18109 : 1"
       inkscape:persp3d-origin="372.04724 : 350.78739 : 1"
       id="perspective10" />
    <linearGradient
       inkscape:collect="always"
       xlink:href="#linearGradient3211"
       id="linearGradient3217"
       x1="271.06119"
       y1="585.90601"
       x2="538.17194"
       y2="736.63055"
       gradientUnits="userSpaceOnUse" />
    <filter
       inkscape:collect="always"
       id="filter3223">
      <feGaussianBlur
         inkscape:collect="always"
         stdDeviation="1.8780295"
         id="feGaussianBlur3225" />
    </filter>
    <linearGradient
       inkscape:collect="always"
       xlink:href="#linearGradient3229"
       id="linearGradient3235"
       x1="351.89334"
       y1="450.98318"
       x2="354.32437"
       y2="525.43384"
       gradientUnits="userSpaceOnUse" />
    <filter
       inkscape:collect="always"
       id="filter3237">
      <feGaussianBlur
         inkscape:collect="always"
         stdDeviation="3.4455371"
         id="feGaussianBlur3239" />
    </filter>
    <linearGradient
       inkscape:collect="always"
       xlink:href="#linearGradient3243"
       id="linearGradient3249"
       x1="281.05753"
       y1="641.51965"
       x2="274.18152"
       y2="677.61884"
       gradientUnits="userSpaceOnUse" />
    <filter
       inkscape:collect="always"
       id="filter3251">
      <feGaussianBlur
         inkscape:collect="always"
         stdDeviation="1.1990069"
         id="feGaussianBlur3253" />
    </filter>
    <linearGradient
       inkscape:collect="always"
       xlink:href="#linearGradient3257"
       id="linearGradient3263"
       x1="267.30548"
       y1="595.466"
       x2="259.56998"
       y2="638.94116"
       gradientUnits="userSpaceOnUse" />
    <filter
       inkscape:collect="always"
       id="filter3265"
       x="-0.039834829"
       width="1.0796697"
       y="-0.1215115"
       height="1.243023">
      <feGaussianBlur
         inkscape:collect="always"
         stdDeviation="2.9608483"
         id="feGaussianBlur3267" />
    </filter>
  </defs>
  <sodipodi:namedview
     id="base"
     pagecolor="#ffffff"
     bordercolor="#666666"
     borderopacity="1.0"
     inkscape:pageopacity="0.0"
     inkscape:pageshadow="2"
     inkscape:zoom="2.0111829"
     inkscape:cx="234.42139"
     inkscape:cy="334.54607"
     inkscape:document-units="px"
     inkscape:current-layer="layer1"
     showgrid="false"
     inkscape:window-width="1440"
     inkscape:window-height="825"
     inkscape:window-x="0"
     inkscape:window-y="25"
     showguides="true"
     inkscape:guide-bbox="true">
    <sodipodi:guide
       orientation="0,1"
       position="345.07055,232.69887"
       id="guide2436" />
  </sodipodi:namedview>
  <metadata
     id="metadata7">
    <rdf:RDF>
      <cc:Work
         rdf:about="">
        <dc:format>image/svg+xml</dc:format>
        <dc:type
           rdf:resource="http://purl.org/dc/dcmitype/StillImage" />
      </cc:Work>
    </rdf:RDF>
  </metadata>
  <g
     inkscape:label="Camada 1"
     inkscape:groupmode="layer"
     id="layer1">
    <rect
       style="opacity:1;fill:#ffff00;fill-opacity:1;fill-rule:nonzero;stroke:none;stroke-width:0.50000000000000000;stroke-linecap:round;stroke-miterlimit:4;stroke-dasharray:none;stroke-opacity:1"
       id="rect2383"
       width="200.0278"
       height="179.91516"
       x="213.44786"
       y="640.53778"
       inkscape:export-filename="/home/sergio/Bazaar/Glamour/glamour/data/images/scenario/dress_st/chair/chair.png"
       inkscape:export-xdpi="90"
       inkscape:export-ydpi="90" />
    <path
       style="fill:#000000;fill-rule:evenodd;stroke:none;stroke-width:1px;stroke-linecap:butt;stroke-linejoin:miter;stroke-opacity:1"
       d="M 374.60648,674.88782 C 376.92529,674.97238 402.36815,672.69502 402.36815,672.69502 L 410.63474,680.55103 L 407.27078,686.15157 L 400.40576,690.47981 L 364.4963,690.77305 L 374.60648,674.88782 z"
       id="path3197" />
    <path
       style="fill:#4d4d4d;fill-rule:evenodd;stroke:none;stroke-width:0.50368589px;stroke-linecap:butt;stroke-linejoin:miter;stroke-opacity:1"
       d="M 307.51408,758.75611 C 305.26317,788.12644 326.17607,818.39051 337.80842,813.52712 C 338.54343,810.04471 340.61908,809.0604 344.7389,809.84871 C 349.2757,810.7168 349.68479,813.53597 347.35049,817.11201 C 344.90672,820.85582 341.3108,821.11039 336.78598,819.58522 C 295.53908,809.78058 303.87124,758.28844 307.51408,758.75611 z"
       id="path2399"
       sodipodi:nodetypes="ccsccc" />
    <path
       style="fill:#333333;fill-rule:evenodd;stroke:none;stroke-width:0.50368589px;stroke-linecap:butt;stroke-linejoin:miter;stroke-opacity:1"
       d="M 307.51866,758.49228 C 303.87583,758.02462 295.54956,809.5198 336.79644,819.32429 C 341.32128,820.84944 344.90774,820.60162 347.35153,816.8579 C 347.57036,816.52266 347.7632,816.19906 347.93268,815.8781 C 345.54688,818.39722 342.30185,818.42596 338.35144,817.0944 C 302.56708,808.58838 304.09077,768.71962 307.50295,758.61054 C 307.5059,758.57115 307.51566,758.53166 307.51866,758.49228 z M 339.6394,810.04998 C 339.1864,810.36116 338.80906,810.78725 338.50851,811.31696 C 338.80173,811.23975 339.08965,811.14799 339.37239,811.0298 C 339.44756,810.67363 339.53545,810.35466 339.6394,810.04998 z"
       id="path2447" />
    <path
       style="fill:#333333;fill-opacity:1;fill-rule:evenodd;stroke:none;stroke-width:1px;stroke-linecap:butt;stroke-linejoin:miter;stroke-opacity:1"
       d="M 260.53853,781.38353 L 258.23761,789.3586 L 307.15378,786.5075 L 307.93375,780.73985 L 260.53853,781.38353 z"
       id="path2403" />
    <path
       style="fill:#4d4d4d;fill-rule:evenodd;stroke:none;stroke-width:0.50368589px;stroke-linecap:butt;stroke-linejoin:miter;stroke-opacity:1"
       d="M 253.03674,762.07036 C 261.80855,788.25077 243.71681,817.05345 229.1154,813.60306 C 227.52868,810.53566 224.89887,809.81543 220.25266,810.8466 C 215.13619,811.98215 215.24812,814.54424 218.72207,817.57001 C 222.35898,820.7377 226.61151,820.68359 231.57656,818.95931 C 277.69353,806.91933 257.19302,761.36443 253.03674,762.07036 z"
       id="path2401"
       sodipodi:nodetypes="ccsccc" />
    <path
       style="fill:#1a1a1a;fill-rule:evenodd;stroke:none;stroke-width:0.50368589px;stroke-linecap:butt;stroke-linejoin:miter;stroke-opacity:1"
       d="M 253.08221,761.64884 C 253.09802,761.69602 253.11369,761.7422 253.12933,761.7894 C 259.24422,771.34051 268.33528,805.94928 229.01913,816.21374 C 224.59221,817.75114 220.74301,817.95381 217.38028,815.73583 C 217.75576,816.191 218.20832,816.65875 218.7625,817.14142 C 222.39939,820.30911 226.66145,820.25723 231.62649,818.53295 C 277.74348,806.49298 257.23848,760.9429 253.08221,761.64884 z M 226.31754,810.42272 C 226.40176,810.56376 226.48992,810.70586 226.56884,810.85845 C 226.84859,810.92455 227.11921,810.97038 227.40131,811.01306 C 227.07065,810.77036 226.70591,810.57844 226.31754,810.42272 z"
       id="path2457" />
    <path
       style="fill:#917c6f;fill-opacity:1;fill-rule:evenodd;stroke:none;stroke-width:1px;stroke-linecap:butt;stroke-linejoin:miter;stroke-opacity:1"
       d="M 307.50703,791.79221 L 307.87342,798.23625 L 358.65694,796.47104 L 358.98669,793.2312 L 307.50703,791.79221 z"
       id="path2397" />
    <path
       style="fill:#917c6f;fill-opacity:1;fill-rule:evenodd;stroke:none;stroke-width:1px;stroke-linecap:butt;stroke-linejoin:miter;stroke-opacity:1"
       d="M 256.45333,789.85348 L 311.44323,791.19595 L 307.57232,799.149 L 256.1413,795.71344 L 256.45333,789.85348 z"
       id="path2405" />
    <path
       style="fill:#666666;fill-opacity:1;fill-rule:evenodd;stroke:none;stroke-width:1px;stroke-linecap:butt;stroke-linejoin:miter;stroke-opacity:1"
       d="M 256.32266,789.7465 L 256.02057,795.6078 L 305.08834,799.03743 L 306.38858,796.22625 L 257.75424,792.81067 L 257.91184,789.78866 L 256.32266,789.7465 z"
       id="path2452" />
    <path
       style="fill:#917c6f;fill-rule:evenodd;stroke:none;stroke-width:0.65190184px;stroke-linecap:butt;stroke-linejoin:miter;stroke-opacity:1"
       d="M 302.0327,759.76746 C 311.71172,786.88734 292.13648,816.70557 276.21282,813.12263 C 274.46982,809.94478 271.60139,809.19717 266.5444,810.26209 C 260.97557,811.43481 261.10951,814.08837 264.90838,817.22432 C 268.88543,820.50735 273.51809,820.45408 278.91918,818.67154 C 329.10499,806.23209 306.55744,759.03903 302.0327,759.76746 z"
       id="path2385"
       sodipodi:nodetypes="ccsccc" />
    <path
       style="fill:#4d4d4d;fill-rule:evenodd;stroke:none;stroke-width:0.65190184px;stroke-linecap:butt;stroke-linejoin:miter;stroke-opacity:1"
       d="M 302.84006,759.82671 C 309.5101,768.67439 321.0932,805.99489 277.30052,816.84968 C 271.89944,818.63222 267.26697,818.69139 263.28992,815.40835 C 263.18807,815.32426 263.10377,815.2374 263.0072,815.154 C 263.45972,815.74451 264.07081,816.36811 264.84492,817.00713 C 268.82195,820.29017 273.45444,820.231 278.85553,818.44844 C 326.37369,806.67023 308.69566,763.7396 302.84006,759.82671 z M 274.17484,810.62415 C 274.32037,810.83738 274.46682,811.06153 274.59894,811.30242 C 274.75819,811.33825 274.9102,811.37012 275.07014,811.39931 C 274.79047,811.10412 274.49982,810.84499 274.17484,810.62415 z"
       id="path2434" />
    <path
       style="fill:#28170b;fill-rule:evenodd;stroke:none;stroke-width:1px;stroke-linecap:butt;stroke-linejoin:miter;stroke-opacity:1"
       d="M 324.33165,764.26504 C 298.99413,766.30333 298.22451,765.19973 298.03249,763.52911 L 308.4407,775.61685 L 315.95776,774.40156 C 320.76441,771.31431 322.68613,767.55816 324.33165,764.26504 z"
       id="path3199"
       sodipodi:nodetypes="ccccc" />
    <path
       style="fill:#28220b;fill-rule:evenodd;stroke:none;stroke-width:1px;stroke-linecap:butt;stroke-linejoin:miter;stroke-opacity:1"
       d="M 304.6365,766.965 C 301.39364,750.06366 340.44344,767.4729 359.78424,765.13105 L 334.95546,744.52782 L 296.7441,763.01939 L 304.6365,766.965 z"
       id="path2393"
       sodipodi:nodetypes="ccccc" />
    <path
       style="fill:#28220b;fill-rule:evenodd;stroke:none;stroke-width:1px;stroke-linecap:butt;stroke-linejoin:miter;stroke-opacity:1"
       d="M 394.68106,687.74766 L 367.91509,687.92166 L 365.69683,692.87718 L 398.53692,692.39412 C 396.42097,690.7509 395.71288,690.191 394.68106,687.74766 z"
       id="path3195"
       sodipodi:nodetypes="ccccc" />
    <path
       style="fill:#504416;fill-rule:evenodd;stroke:none;stroke-width:0.959575px;stroke-linecap:butt;stroke-linejoin:miter;stroke-opacity:1"
       d="M 270.46767,750.19527 C 270.46767,750.19527 254.78809,714.89948 260.57671,699.48031 C 263.84912,690.76361 280.09651,677.29737 282.19755,676.95746 C 284.80006,676.33049 358.35708,670.98945 396.43687,668.00545 L 374.28977,686.85668 C 368.83077,694.68094 361.71465,702.32222 373.91381,712.09641 L 383.02983,750.2975 L 374.93775,763.43304 L 359.5375,762.87242 L 329.83941,750.89088 L 270.46767,750.19527 z"
       id="path2391"
       sodipodi:nodetypes="csccccccccc" />
    <path
       style="opacity:0.7;fill:url(#linearGradient3217);fill-opacity:1;fill-rule:evenodd;stroke:none;stroke-width:1px;stroke-linecap:butt;stroke-linejoin:miter;stroke-opacity:1;filter:url(#filter3223)"
       d="M 306.91905,531.81531 L 496.54033,564.63438 L 520.54687,669.77695 L 494.71705,695.60677 L 447.00785,672.51187 L 329.40619,647.28981 C 319.71518,612.68982 306.5315,568.63106 306.91905,531.81531 z"
       id="path3201"
       sodipodi:nodetypes="ccccccc"
       transform="matrix(0.565661,-9.1509508e-2,8.952783e-3,0.4488603,81.393617,495.73495)" />
    <path
       style="fill:#786721;fill-rule:evenodd;stroke:none;stroke-width:1px;stroke-linecap:butt;stroke-linejoin:miter;stroke-opacity:1"
       d="M 325.28782,748.6695 C 291.81449,748.36959 242.21729,740.40905 224.86777,747.76975 C 213.68314,758.84909 215.26578,767.12731 224.38032,770.94361 L 312.27588,778.34388 L 299.93907,764.31525 C 308.28155,759.06547 316.81673,753.87781 325.28782,748.6695 z"
       id="path2389"
       sodipodi:nodetypes="cccccc" />
    <path
       style="opacity:0.7;fill:url(#linearGradient3263);fill-opacity:1;fill-rule:evenodd;stroke:none;stroke-width:1px;stroke-linecap:butt;stroke-linejoin:miter;stroke-opacity:1;filter:url(#filter3265)"
       d="M 246.6774,611.43707 C 264.01808,608.58679 284.95478,612.92856 306.84262,619.1726 L 412.56151,650.11471 L 375.60287,669.02378 L 234.64436,633.78415 C 233.21052,626.33512 234.4784,618.8861 246.6774,611.43707 z"
       id="path3255"
       sodipodi:nodetypes="cccccc"
       transform="matrix(0.565661,-9.1509508e-2,8.952783e-3,0.4488603,81.393617,495.73495)" />
    <path
       style="fill:none;fill-rule:evenodd;stroke:#000000;stroke-width:0.50470001px;stroke-linecap:butt;stroke-linejoin:miter;stroke-opacity:1"
       d="M 272.08896,684.94953 L 378.13495,677.53467"
       id="path3177"
       sodipodi:nodetypes="cc" />
    <path
       style="fill:none;fill-rule:evenodd;stroke:#000000;stroke-width:0.50470001px;stroke-linecap:butt;stroke-linejoin:miter;stroke-opacity:1"
       d="M 260.82151,699.13415 L 365.15597,694.80335"
       id="path3179"
       sodipodi:nodetypes="cc" />
    <path
       style="fill:none;fill-rule:evenodd;stroke:#000000;stroke-width:0.50470001px;stroke-linecap:butt;stroke-linejoin:miter;stroke-opacity:1"
       d="M 260.47206,718.63352 L 367.84946,713.67359"
       id="path3181"
       sodipodi:nodetypes="cc" />
    <path
       style="fill:none;fill-rule:evenodd;stroke:#000000;stroke-width:0.50470001px;stroke-linecap:butt;stroke-linejoin:miter;stroke-opacity:1"
       d="M 263.43547,729.9686 L 372.11985,724.47442"
       id="path3183"
       sodipodi:nodetypes="cc" />
    <path
       style="fill:none;fill-rule:evenodd;stroke:#000000;stroke-width:0.50470001px;stroke-linecap:butt;stroke-linejoin:miter;stroke-opacity:1"
       d="M 267.38849,742.15061 L 377.06819,740.22189"
       id="path3185"
       sodipodi:nodetypes="cc" />
    <path
       style="fill:none;fill-rule:evenodd;stroke:#000000;stroke-width:0.50470001px;stroke-linecap:butt;stroke-linejoin:miter;stroke-opacity:1"
       d="M 370.99991,755.45325 L 343.17426,754.43872"
       id="path3187" />
    <path
       style="fill:none;fill-rule:evenodd;stroke:#000000;stroke-width:0.50470001px;stroke-linecap:butt;stroke-linejoin:miter;stroke-opacity:1"
       d="M 305.56913,756.84495 L 223.19221,750.86544"
       id="path3189" />
    <path
       style="opacity:0.7;fill:url(#linearGradient3249);fill-opacity:1;fill-rule:evenodd;stroke:none;stroke-width:1px;stroke-linecap:butt;stroke-linejoin:miter;stroke-opacity:1;filter:url(#filter3251)"
       d="M 230.34684,636.36266 L 379.04089,673.32129 L 399.66896,706.84192 L 245.8179,662.14775 C 225.63959,646.04208 234.25947,644.3355 230.34684,636.36266 z"
       id="path3241"
       sodipodi:nodetypes="ccccc"
       transform="matrix(0.565661,-9.1509508e-2,8.952783e-3,0.4488603,81.393617,495.73495)" />
    <path
       style="fill:none;fill-rule:evenodd;stroke:#000000;stroke-width:0.50470001px;stroke-linecap:butt;stroke-linejoin:miter;stroke-opacity:1"
       d="M 218.81964,763.9838 L 297.70462,769.14923"
       id="path3191" />
    <path
       style="fill:#a0892c;fill-rule:evenodd;stroke:none;stroke-width:1px;stroke-linecap:butt;stroke-linejoin:miter;stroke-opacity:1"
       d="M 325.11146,764.1624 C 325.11146,764.1624 320.39199,771.75027 316.46299,772.27603 C 311.40261,772.95316 304.38331,768.77644 304.59471,764.87029 C 304.86404,759.89409 312.2836,756.40095 318.68294,754.90337 C 336.24099,750.79443 359.11517,775.57861 377.30853,762.29607 C 400.15775,745.61438 365.18327,711.58884 375.69922,689.58616 C 378.01865,684.73318 390.39558,674.70404 396.71449,673.87647 C 402.46837,673.12292 409.38884,679.4716 408.1479,683.96376 C 407.40142,686.6661 401.43732,689.55292 398.00697,689.70762 C 396.57453,689.77223 394.54756,687.65606 394.54756,687.65606 C 394.54756,687.65606 395.46685,692.15443 397.5721,692.38919 C 402.08485,692.89235 410.29206,688.23905 411.57765,684.52801 C 413.88776,677.85958 405.59614,667.31454 397.08263,667.84846 C 387.53939,668.44696 371.20274,682.85132 367.40902,690.18126 C 356.90812,710.47027 391.74194,742.12116 370.37487,757.44929 C 352.86309,770.01175 338.78233,742.14558 317.97666,750.22842 C 309.07611,753.68621 297.05539,758.94802 297.29293,766.05153 C 297.49827,772.19227 308.07962,779.82265 316.08744,777.9322 C 321.76469,776.59193 325.11146,764.1624 325.11146,764.1624 z"
       id="path2387"
       sodipodi:nodetypes="csssssssscssssssssc" />
    <path
       style="opacity:0.7;fill:url(#linearGradient3235);fill-opacity:1;fill-rule:evenodd;stroke:none;stroke-width:1px;stroke-linecap:butt;stroke-linejoin:miter;stroke-opacity:1;filter:url(#filter3237)"
       d="M 346.72737,474.07806 L 536.21753,496.71267 C 536.21753,496.71267 473.74931,556.42961 471.31827,557.34125 C 468.88723,558.25289 307.83069,528.16875 307.83069,528.16875 C 315.04176,499.34885 333.94573,488.54068 346.72737,474.07806 z"
       id="path3227"
       sodipodi:nodetypes="ccscc"
       transform="matrix(0.565661,-9.1509508e-2,8.952783e-3,0.4488603,81.393617,495.73495)" />
    <path
       style="fill:#917c6f;fill-rule:evenodd;stroke:none;stroke-width:0.65190184px;stroke-linecap:butt;stroke-linejoin:miter;stroke-opacity:1"
       d="M 363.68327,764.58761 C 349.52949,792.75918 373.89717,818.04465 387.56849,813.60347 C 386.80532,809.81383 388.5826,808.36415 393.32863,808.3534 C 398.555,808.34154 400.24417,811.20591 399.34253,815.41756 C 398.3986,819.82674 394.67498,820.82161 389.16942,820.14409 C 343.54962,818.61972 357.12099,765.16856 363.68327,764.58761 z"
       id="path2395"
       sodipodi:nodetypes="ccsccc" />
    <path
       style="fill:#4d4d4d;fill-rule:evenodd;stroke:none;stroke-width:0.65190184px;stroke-linecap:butt;stroke-linejoin:miter;stroke-opacity:1"
       d="M 362.24128,765.73176 C 355.64316,774.55131 348.492,818.37024 389.73846,819.74848 C 395.22535,820.4237 398.94096,819.43906 399.90044,815.06788 C 398.11224,816.64526 395.2258,816.95616 391.53174,816.50156 C 354.06639,815.2497 356.53125,778.98142 362.24128,765.73176 z M 389.76563,808.64434 C 388.96097,809.03101 388.42554,809.59248 388.16253,810.35915 C 388.76908,810.27547 389.35601,810.13756 389.92865,809.95152 C 389.83326,809.47783 389.78079,809.04667 389.76563,808.64434 z"
       id="path2442" />
    <path
       style="fill:#333333;fill-opacity:1;fill-rule:evenodd;stroke:none;stroke-width:1px;stroke-linecap:butt;stroke-linejoin:miter;stroke-opacity:1"
       d="M 357.16471,792.89216 L 356.98709,794.77565 L 308.86963,796.50452 L 308.9407,797.93823 L 358.15939,796.16718 L 358.47911,792.93432 L 357.16471,792.89216 z"
       id="path2439" />
  </g>
</svg>
