<?xml version="1.0" encoding="UTF-8" standalone="no"?>
<!-- Created with Inkscape (http://www.inkscape.org/) -->
<svg
   xmlns:dc="http://purl.org/dc/elements/1.1/"
   xmlns:cc="http://creativecommons.org/ns#"
   xmlns:rdf="http://www.w3.org/1999/02/22-rdf-syntax-ns#"
   xmlns:svg="http://www.w3.org/2000/svg"
   xmlns="http://www.w3.org/2000/svg"
   xmlns:xlink="http://www.w3.org/1999/xlink"
   xmlns:sodipodi="http://sodipodi.sourceforge.net/DTD/sodipodi-0.dtd"
   xmlns:inkscape="http://www.inkscape.org/namespaces/inkscape"
   width="210mm"
   height="297mm"
   id="svg3920"
   sodipodi:version="0.32"
   inkscape:version="0.46"
   sodipodi:docname="gate.svg"
   inkscape:output_extension="org.inkscape.output.svg.inkscape">
  <defs
     id="defs3922">
    <linearGradient
       inkscape:collect="always"
       id="linearGradient5329">
      <stop
         style="stop-color:#ffffff;stop-opacity:1;"
         offset="0"
         id="stop5331" />
      <stop
         style="stop-color:#ffffff;stop-opacity:0;"
         offset="1"
         id="stop5333" />
    </linearGradient>
    <linearGradient
       inkscape:collect="always"
       id="linearGradient5226">
      <stop
         style="stop-color:#ffffff;stop-opacity:1;"
         offset="0"
         id="stop5228" />
      <stop
         style="stop-color:#ffffff;stop-opacity:0;"
         offset="1"
         id="stop5230" />
    </linearGradient>
    <linearGradient
       inkscape:collect="always"
       id="linearGradient5216">
      <stop
         style="stop-color:#000000;stop-opacity:1;"
         offset="0"
         id="stop5218" />
      <stop
         style="stop-color:#000000;stop-opacity:0;"
         offset="1"
         id="stop5220" />
    </linearGradient>
    <linearGradient
       inkscape:collect="always"
       id="linearGradient5205">
      <stop
         style="stop-color:#000000;stop-opacity:1;"
         offset="0"
         id="stop5207" />
      <stop
         style="stop-color:#000000;stop-opacity:0;"
         offset="1"
         id="stop5209" />
    </linearGradient>
    <linearGradient
       inkscape:collect="always"
       id="linearGradient5191">
      <stop
         style="stop-color:#000000;stop-opacity:1;"
         offset="0"
         id="stop5193" />
      <stop
         style="stop-color:#000000;stop-opacity:0;"
         offset="1"
         id="stop5195" />
    </linearGradient>
    <linearGradient
       inkscape:collect="always"
       id="linearGradient5179">
      <stop
         style="stop-color:#ffffff;stop-opacity:1;"
         offset="0"
         id="stop5181" />
      <stop
         style="stop-color:#ffffff;stop-opacity:0;"
         offset="1"
         id="stop5183" />
    </linearGradient>
    <linearGradient
       inkscape:collect="always"
       id="linearGradient5029">
      <stop
         style="stop-color:#000000;stop-opacity:1;"
         offset="0"
         id="stop5031" />
      <stop
         style="stop-color:#000000;stop-opacity:0;"
         offset="1"
         id="stop5033" />
    </linearGradient>
    <linearGradient
       inkscape:collect="always"
       id="linearGradient5017">
      <stop
         style="stop-color:#ffffff;stop-opacity:1;"
         offset="0"
         id="stop5019" />
      <stop
         style="stop-color:#ffffff;stop-opacity:0;"
         offset="1"
         id="stop5021" />
    </linearGradient>
    <linearGradient
       inkscape:collect="always"
       id="linearGradient4889">
      <stop
         style="stop-color:#ffffff;stop-opacity:1;"
         offset="0"
         id="stop4891" />
      <stop
         style="stop-color:#ffffff;stop-opacity:0;"
         offset="1"
         id="stop4893" />
    </linearGradient>
    <linearGradient
       inkscape:collect="always"
       id="linearGradient4877">
      <stop
         style="stop-color:#000000;stop-opacity:1;"
         offset="0"
         id="stop4879" />
      <stop
         style="stop-color:#000000;stop-opacity:0;"
         offset="1"
         id="stop4881" />
    </linearGradient>
    <linearGradient
       inkscape:collect="always"
       id="linearGradient4867">
      <stop
         style="stop-color:#ffffff;stop-opacity:1;"
         offset="0"
         id="stop4869" />
      <stop
         style="stop-color:#ffffff;stop-opacity:0;"
         offset="1"
         id="stop4871" />
    </linearGradient>
    <linearGradient
       inkscape:collect="always"
       id="linearGradient4857">
      <stop
         style="stop-color:#000000;stop-opacity:1;"
         offset="0"
         id="stop4859" />
      <stop
         style="stop-color:#000000;stop-opacity:0;"
         offset="1"
         id="stop4861" />
    </linearGradient>
    <linearGradient
       inkscape:collect="always"
       id="linearGradient4845">
      <stop
         style="stop-color:#000000;stop-opacity:1;"
         offset="0"
         id="stop4847" />
      <stop
         style="stop-color:#000000;stop-opacity:0;"
         offset="1"
         id="stop4849" />
    </linearGradient>
    <linearGradient
       inkscape:collect="always"
       id="linearGradient4833">
      <stop
         style="stop-color:#ffffff;stop-opacity:1;"
         offset="0"
         id="stop4835" />
      <stop
         style="stop-color:#ffffff;stop-opacity:0;"
         offset="1"
         id="stop4837" />
    </linearGradient>
    <linearGradient
       inkscape:collect="always"
       id="linearGradient4799">
      <stop
         style="stop-color:#ffffff;stop-opacity:1;"
         offset="0"
         id="stop4801" />
      <stop
         style="stop-color:#ffffff;stop-opacity:0;"
         offset="1"
         id="stop4803" />
    </linearGradient>
    <linearGradient
       inkscape:collect="always"
       id="linearGradient4787">
      <stop
         style="stop-color:#000000;stop-opacity:1;"
         offset="0"
         id="stop4789" />
      <stop
         style="stop-color:#000000;stop-opacity:0;"
         offset="1"
         id="stop4791" />
    </linearGradient>
    <linearGradient
       inkscape:collect="always"
       id="linearGradient4775">
      <stop
         style="stop-color:#000000;stop-opacity:1;"
         offset="0"
         id="stop4777" />
      <stop
         style="stop-color:#000000;stop-opacity:0;"
         offset="1"
         id="stop4779" />
    </linearGradient>
    <linearGradient
       inkscape:collect="always"
       id="linearGradient4763">
      <stop
         style="stop-color:#ffffff;stop-opacity:1;"
         offset="0"
         id="stop4765" />
      <stop
         style="stop-color:#ffffff;stop-opacity:0;"
         offset="1"
         id="stop4767" />
    </linearGradient>
    <linearGradient
       inkscape:collect="always"
       id="linearGradient4751">
      <stop
         style="stop-color:#000000;stop-opacity:1;"
         offset="0"
         id="stop4753" />
      <stop
         style="stop-color:#000000;stop-opacity:0;"
         offset="1"
         id="stop4755" />
    </linearGradient>
    <linearGradient
       inkscape:collect="always"
       id="linearGradient4731">
      <stop
         style="stop-color:#000000;stop-opacity:1;"
         offset="0"
         id="stop4733" />
      <stop
         style="stop-color:#000000;stop-opacity:0;"
         offset="1"
         id="stop4735" />
    </linearGradient>
    <inkscape:perspective
       sodipodi:type="inkscape:persp3d"
       inkscape:vp_x="0 : 526.18109 : 1"
       inkscape:vp_y="0 : 1000 : 0"
       inkscape:vp_z="744.09448 : 526.18109 : 1"
       inkscape:persp3d-origin="372.04724 : 350.78739 : 1"
       id="perspective3928" />
    <linearGradient
       inkscape:collect="always"
       xlink:href="#linearGradient4731"
       id="linearGradient4737"
       x1="20.20837"
       y1="519.39771"
       x2="50.25"
       y2="515.36218"
       gradientUnits="userSpaceOnUse"
       gradientTransform="translate(-37.406855,375.54289)" />
    <radialGradient
       inkscape:collect="always"
       xlink:href="#linearGradient4751"
       id="radialGradient4757"
       cx="130.85855"
       cy="390.22931"
       fx="130.85855"
       fy="390.22931"
       r="64.025086"
       gradientTransform="matrix(-0.175034,-1.0847677,2.4610359,-0.3971021,-785.2547,1106.9976)"
       gradientUnits="userSpaceOnUse" />
    <radialGradient
       inkscape:collect="always"
       xlink:href="#linearGradient4763"
       id="radialGradient4769"
       cx="193.2571"
       cy="605.85828"
       fx="193.2571"
       fy="605.85828"
       r="64.025086"
       gradientTransform="matrix(0.3666166,0.2322075,-1.630731,2.5746492,882.48375,-742.59311)"
       gradientUnits="userSpaceOnUse" />
    <radialGradient
       inkscape:collect="always"
       xlink:href="#linearGradient4787"
       id="radialGradient4813"
       gradientUnits="userSpaceOnUse"
       gradientTransform="matrix(-1.2472054,-0.3592427,0.4674737,-1.6229574,1120.4599,1619.9913)"
       cx="585.90027"
       cy="535.91907"
       fx="585.90027"
       fy="535.91907"
       r="40.852422" />
    <radialGradient
       inkscape:collect="always"
       xlink:href="#linearGradient4799"
       id="radialGradient4815"
       gradientUnits="userSpaceOnUse"
       gradientTransform="matrix(4.7927859e-2,0.2556414,-1.863416,0.3493564,1616.4047,253.20719)"
       cx="486.55988"
       cy="591.56055"
       fx="486.55988"
       fy="591.56055"
       r="40.852422" />
    <radialGradient
       inkscape:collect="always"
       xlink:href="#linearGradient4775"
       id="radialGradient4817"
       gradientUnits="userSpaceOnUse"
       gradientTransform="matrix(1.2643447,0.1639417,-0.2770513,2.1366979,9.5041962,-808.55263)"
       cx="531.73334"
       cy="638.14313"
       fx="531.73334"
       fy="638.14313"
       r="40.852422" />
    <linearGradient
       inkscape:collect="always"
       xlink:href="#linearGradient4833"
       id="linearGradient5067"
       gradientUnits="userSpaceOnUse"
       x1="256.64935"
       y1="458.38605"
       x2="318.16763"
       y2="555.9668" />
    <linearGradient
       inkscape:collect="always"
       xlink:href="#linearGradient4845"
       id="linearGradient5069"
       gradientUnits="userSpaceOnUse"
       x1="355.64432"
       y1="599.63068"
       x2="313.57144"
       y2="551.7337" />
    <linearGradient
       inkscape:collect="always"
       xlink:href="#linearGradient4857"
       id="linearGradient5071"
       gradientUnits="userSpaceOnUse"
       x1="245.45461"
       y1="468.98993"
       x2="316.97729"
       y2="553.56836" />
    <linearGradient
       inkscape:collect="always"
       xlink:href="#linearGradient4867"
       id="linearGradient5073"
       gradientUnits="userSpaceOnUse"
       x1="368.77448"
       y1="622.1109"
       x2="309.73987"
       y2="536.68103" />
    <linearGradient
       inkscape:collect="always"
       xlink:href="#linearGradient4877"
       id="linearGradient5075"
       gradientUnits="userSpaceOnUse"
       x1="473.0705"
       y1="483.72513"
       x2="467.78329"
       y2="477.50046" />
    <linearGradient
       inkscape:collect="always"
       xlink:href="#linearGradient4889"
       id="linearGradient5077"
       gradientUnits="userSpaceOnUse"
       x1="465.6084"
       y1="474.91306"
       x2="469.4332"
       y2="478.96286" />
    <linearGradient
       inkscape:collect="always"
       xlink:href="#linearGradient4877"
       id="linearGradient5079"
       gradientUnits="userSpaceOnUse"
       x1="473.0705"
       y1="483.72513"
       x2="467.78329"
       y2="477.50046" />
    <linearGradient
       inkscape:collect="always"
       xlink:href="#linearGradient4889"
       id="linearGradient5081"
       gradientUnits="userSpaceOnUse"
       x1="465.6084"
       y1="474.91306"
       x2="469.4332"
       y2="478.96286" />
    <linearGradient
       inkscape:collect="always"
       xlink:href="#linearGradient4877"
       id="linearGradient5083"
       gradientUnits="userSpaceOnUse"
       x1="473.0705"
       y1="483.72513"
       x2="467.78329"
       y2="477.50046" />
    <linearGradient
       inkscape:collect="always"
       xlink:href="#linearGradient4889"
       id="linearGradient5085"
       gradientUnits="userSpaceOnUse"
       x1="465.6084"
       y1="474.91306"
       x2="469.4332"
       y2="478.96286" />
    <linearGradient
       inkscape:collect="always"
       xlink:href="#linearGradient4877"
       id="linearGradient5087"
       gradientUnits="userSpaceOnUse"
       x1="473.0705"
       y1="483.72513"
       x2="467.78329"
       y2="477.50046" />
    <linearGradient
       inkscape:collect="always"
       xlink:href="#linearGradient4889"
       id="linearGradient5089"
       gradientUnits="userSpaceOnUse"
       x1="465.6084"
       y1="474.91306"
       x2="469.4332"
       y2="478.96286" />
    <linearGradient
       inkscape:collect="always"
       xlink:href="#linearGradient4877"
       id="linearGradient5091"
       gradientUnits="userSpaceOnUse"
       x1="473.0705"
       y1="483.72513"
       x2="467.78329"
       y2="477.50046" />
    <linearGradient
       inkscape:collect="always"
       xlink:href="#linearGradient4889"
       id="linearGradient5093"
       gradientUnits="userSpaceOnUse"
       x1="465.6084"
       y1="474.91306"
       x2="469.4332"
       y2="478.96286" />
    <linearGradient
       inkscape:collect="always"
       xlink:href="#linearGradient4877"
       id="linearGradient5095"
       gradientUnits="userSpaceOnUse"
       x1="473.0705"
       y1="483.72513"
       x2="467.78329"
       y2="477.50046" />
    <linearGradient
       inkscape:collect="always"
       xlink:href="#linearGradient4889"
       id="linearGradient5097"
       gradientUnits="userSpaceOnUse"
       x1="465.6084"
       y1="474.91306"
       x2="469.4332"
       y2="478.96286" />
    <linearGradient
       inkscape:collect="always"
       xlink:href="#linearGradient4877"
       id="linearGradient5099"
       gradientUnits="userSpaceOnUse"
       x1="473.0705"
       y1="483.72513"
       x2="467.78329"
       y2="477.50046" />
    <linearGradient
       inkscape:collect="always"
       xlink:href="#linearGradient4889"
       id="linearGradient5101"
       gradientUnits="userSpaceOnUse"
       x1="465.6084"
       y1="474.91306"
       x2="469.4332"
       y2="478.96286" />
    <linearGradient
       inkscape:collect="always"
       xlink:href="#linearGradient4877"
       id="linearGradient5103"
       gradientUnits="userSpaceOnUse"
       x1="473.0705"
       y1="483.72513"
       x2="467.78329"
       y2="477.50046" />
    <linearGradient
       inkscape:collect="always"
       xlink:href="#linearGradient4889"
       id="linearGradient5105"
       gradientUnits="userSpaceOnUse"
       x1="465.6084"
       y1="474.91306"
       x2="469.4332"
       y2="478.96286" />
    <linearGradient
       inkscape:collect="always"
       xlink:href="#linearGradient4877"
       id="linearGradient5107"
       gradientUnits="userSpaceOnUse"
       x1="473.0705"
       y1="483.72513"
       x2="467.78329"
       y2="477.50046" />
    <linearGradient
       inkscape:collect="always"
       xlink:href="#linearGradient4889"
       id="linearGradient5109"
       gradientUnits="userSpaceOnUse"
       x1="465.6084"
       y1="474.91306"
       x2="469.4332"
       y2="478.96286" />
    <linearGradient
       inkscape:collect="always"
       xlink:href="#linearGradient5017"
       id="linearGradient5111"
       gradientUnits="userSpaceOnUse"
       x1="251.71094"
       y1="473.33548"
       x2="306.09357"
       y2="541.64789" />
    <linearGradient
       inkscape:collect="always"
       xlink:href="#linearGradient5029"
       id="linearGradient5113"
       gradientUnits="userSpaceOnUse"
       x1="361.15625"
       y1="607.81342"
       x2="319.46289"
       y2="552.52441" />
    <radialGradient
       inkscape:collect="always"
       xlink:href="#linearGradient4751"
       id="radialGradient5133"
       gradientUnits="userSpaceOnUse"
       gradientTransform="matrix(0.175034,-1.0847677,-2.4610359,-0.3971021,1045.0278,1107.0601)"
       cx="130.85855"
       cy="390.22931"
       fx="130.85855"
       fy="390.22931"
       r="64.025086" />
    <radialGradient
       inkscape:collect="always"
       xlink:href="#linearGradient4763"
       id="radialGradient5135"
       gradientUnits="userSpaceOnUse"
       gradientTransform="matrix(-0.3666166,0.2322075,1.630731,2.5746492,-622.71055,-742.53061)"
       cx="193.2571"
       cy="605.85828"
       fx="193.2571"
       fy="605.85828"
       r="64.025086" />
    <linearGradient
       inkscape:collect="always"
       xlink:href="#linearGradient4731"
       id="linearGradient5137"
       gradientUnits="userSpaceOnUse"
       gradientTransform="matrix(-1,0,0,1,297.18002,375.60539)"
       x1="20.20837"
       y1="519.39771"
       x2="50.25"
       y2="515.36218" />
    <radialGradient
       inkscape:collect="always"
       xlink:href="#linearGradient4787"
       id="radialGradient5139"
       gradientUnits="userSpaceOnUse"
       gradientTransform="matrix(-1.2472054,-0.3592427,0.4674737,-1.6229574,1120.4599,1619.9913)"
       cx="585.90027"
       cy="535.91907"
       fx="585.90027"
       fy="535.91907"
       r="40.852422" />
    <radialGradient
       inkscape:collect="always"
       xlink:href="#linearGradient4799"
       id="radialGradient5141"
       gradientUnits="userSpaceOnUse"
       gradientTransform="matrix(4.7927859e-2,0.2556414,-1.863416,0.3493564,1616.4047,253.20719)"
       cx="486.55988"
       cy="591.56055"
       fx="486.55988"
       fy="591.56055"
       r="40.852422" />
    <radialGradient
       inkscape:collect="always"
       xlink:href="#linearGradient4775"
       id="radialGradient5143"
       gradientUnits="userSpaceOnUse"
       gradientTransform="matrix(1.2643447,0.1639417,-0.2770513,2.1366979,9.5041962,-808.55263)"
       cx="531.73334"
       cy="638.14313"
       fx="531.73334"
       fy="638.14313"
       r="40.852422" />
    <linearGradient
       inkscape:collect="always"
       xlink:href="#linearGradient5179"
       id="linearGradient5185"
       x1="278.75"
       y1="419.42468"
       x2="289.375"
       y2="446.67468"
       gradientUnits="userSpaceOnUse"
       gradientTransform="translate(-161.65685,281.29289)" />
    <linearGradient
       inkscape:collect="always"
       xlink:href="#linearGradient5191"
       id="linearGradient5197"
       x1="308.03339"
       y1="476.95404"
       x2="292.0351"
       y2="449.37686"
       gradientUnits="userSpaceOnUse"
       gradientTransform="translate(-161.65685,281.29289)" />
    <filter
       inkscape:collect="always"
       id="filter5277">
      <feGaussianBlur
         inkscape:collect="always"
         stdDeviation="0.42580885"
         id="feGaussianBlur5279" />
    </filter>
    <linearGradient
       inkscape:collect="always"
       xlink:href="#linearGradient5205"
       id="linearGradient5321"
       gradientUnits="userSpaceOnUse"
       x1="538.90375"
       y1="395.54837"
       x2="578.05719"
       y2="373.73492" />
    <linearGradient
       inkscape:collect="always"
       xlink:href="#linearGradient5216"
       id="linearGradient5323"
       gradientUnits="userSpaceOnUse"
       x1="547.6543"
       y1="380.78754"
       x2="567.80676"
       y2="405.8898" />
    <linearGradient
       inkscape:collect="always"
       xlink:href="#linearGradient5226"
       id="linearGradient5325"
       gradientUnits="userSpaceOnUse"
       x1="523.96606"
       y1="359.22079"
       x2="540.93671"
       y2="393.86899" />
    <radialGradient
       inkscape:collect="always"
       xlink:href="#linearGradient5329"
       id="radialGradient5335"
       cx="291.32382"
       cy="525.44281"
       fx="291.32382"
       fy="525.44281"
       r="20.152544"
       gradientUnits="userSpaceOnUse"
       gradientTransform="matrix(1.1074462,-1.0871715e-6,1.1900853e-6,1.2122793,-31.30228,-111.54029)" />
  </defs>
  <sodipodi:namedview
     id="base"
     pagecolor="#ffffff"
     bordercolor="#666666"
     borderopacity="1.0"
     inkscape:pageopacity="0.0"
     inkscape:pageshadow="2"
     inkscape:zoom="0.5"
     inkscape:cx="332.72068"
     inkscape:cy="161.66534"
     inkscape:document-units="px"
     inkscape:current-layer="layer1"
     showgrid="true"
     inkscape:snap-global="true"
     showguides="true"
     inkscape:guide-bbox="true"
     inkscape:window-width="1439"
     inkscape:window-height="848"
     inkscape:window-x="0"
     inkscape:window-y="24"
     gridtolerance="37">
    <sodipodi:guide
       orientation="1,0"
       position="291.30274,586.14102"
       id="guide4705" />
    <sodipodi:guide
       orientation="0,1"
       position="216.67772,446.9925"
       id="guide4721" />
    <sodipodi:guide
       orientation="0,1"
       position="497.36123,554.01816"
       id="guide4978" />
    <sodipodi:guide
       orientation="0,1"
       position="518.75121,543.41156"
       id="guide4980" />
    <sodipodi:guide
       orientation="0,1"
       position="503.28325,531.03719"
       id="guide4982" />
    <sodipodi:guide
       orientation="0,1"
       position="508.76333,518.30927"
       id="guide4984" />
    <inkscape:grid
       type="xygrid"
       id="grid5357"
       visible="true"
       enabled="true"
       spacingx="260px"
       spacingy="340px" />
  </sodipodi:namedview>
  <metadata
     id="metadata3925">
    <rdf:RDF>
      <cc:Work
         rdf:about="">
        <dc:format>image/svg+xml</dc:format>
        <dc:type
           rdf:resource="http://purl.org/dc/dcmitype/StillImage" />
      </cc:Work>
    </rdf:RDF>
  </metadata>
  <g
     inkscape:label="Camada 1"
     inkscape:groupmode="layer"
     id="layer1">
    <rect
       style="opacity:0;fill:#ff0000;fill-opacity:1;stroke:none;stroke-width:0.40000001000000002;stroke-linecap:round;stroke-linejoin:miter;stroke-miterlimit:4;stroke-dasharray:none;stroke-dashoffset:0;stroke-opacity:1"
       id="rect3930"
       width="260"
       height="340"
       x="0"
       y="712.36218"
       rx="1.1096557"
       inkscape:export-filename="/media/sdb1/Glamour/2dgame/art/scenario/omni/gate/0.png"
       inkscape:export-xdpi="90"
       inkscape:export-ydpi="90" />
    <path
       style="opacity:1;fill:#a8b023;fill-opacity:1;stroke:none;stroke-width:0.40000001;stroke-linecap:round;stroke-linejoin:miter;stroke-miterlimit:4;stroke-dashoffset:0;stroke-opacity:1"
       d="M 82.091946,736.02138 C 91.335766,733.87001 113.03875,729.14514 122.637,741.01506 C 127.03744,746.03852 132.86566,757.57115 124.67523,768.25355 C 117.21913,778.62065 95.23692,781.05972 86.025966,773.54795 C 76.971986,764.64202 84.134026,753.88162 91.121266,750.96647 C 109.05419,742.75547 113.79647,749.45218 114.8305,750.8867 C 116.8093,754.90064 116.51268,760.09086 111.50065,764.49013 C 114.03541,760.09572 114.0555,755.50827 111.56021,753.09056 C 106.63571,749.25665 98.99505,750.28352 94.48547,753.15993 C 89.670776,756.08908 89.401146,762.26999 92.238466,766.22215 C 96.16052,771.68525 109.44681,773.42683 118.35474,764.95454 C 125.33911,757.87788 123.63139,750.61532 119.98101,745.76473 C 114.8602,739.3446 103.43139,737.5757 90.912836,740.54668 C 42.599426,752.33789 26.954486,785.3865 14.379815,825.25863 C -0.8098352,894.97424 31.214336,907.37324 25.180756,1036.6702 C 24.985786,1041.836 24.855896,1046.9367 24.343146,1052.4202 L 12.593145,1052.4202 C 13.552725,1047.432 14.449905,1042.319 15.079225,1036.6702 C 27.024296,897.92048 -11.839475,890.02234 5.079225,816.63644 C 11.181015,784.29617 44.353056,748.45725 82.091946,736.02138 z"
       id="rect3932"
       sodipodi:nodetypes="cccccccccccccccccccc"
       inkscape:export-filename="/media/sdb1/Glamour/2dgame/art/scenario/omni/gate/0.png"
       inkscape:export-xdpi="90"
       inkscape:export-ydpi="90" />
    <path
       style="opacity:0.75524472;fill:url(#radialGradient4757);fill-opacity:1;stroke:none;stroke-width:0.40000001;stroke-linecap:round;stroke-linejoin:miter;stroke-miterlimit:4;stroke-dashoffset:0;stroke-opacity:1"
       d="M 82.043196,735.96147 C 91.287016,733.8101 112.99,729.08523 122.58825,740.95515 C 126.98869,745.97861 132.81691,757.51124 124.62648,768.19364 C 117.17038,778.56074 95.18817,780.99981 85.977216,773.48804 C 76.923236,764.58211 84.085276,753.82171 91.072516,750.90656 C 109.00544,742.69556 113.74772,749.39227 114.78175,750.82679 C 116.76055,754.84073 116.46393,760.03095 111.4519,764.43022 C 113.98666,760.03581 114.00675,755.44836 111.51146,753.03065 C 106.58696,749.19674 98.9463,750.22361 94.43672,753.10002 C 89.622026,756.02917 89.352396,762.21008 92.189716,766.16224 C 96.11177,771.62534 109.39806,773.36692 118.30599,764.89463 C 125.29036,757.81797 123.58264,750.55541 119.93226,745.70482 C 114.81145,739.28469 103.38264,737.51579 90.864086,740.48677 C 42.550676,752.27798 26.905736,785.32659 14.331065,825.19872 C -0.8585852,894.91433 31.165586,907.31333 25.132006,1036.6103 C 24.937036,1041.7761 24.807146,1046.8768 24.294396,1052.3603 L 12.544395,1052.3603 C 13.503975,1047.3721 14.401155,1042.259 15.030475,1036.6103 C 26.975546,897.86057 -11.888225,889.96243 5.030475,816.57653 C 11.132265,784.23626 44.304306,748.39734 82.043196,735.96147 z"
       id="path4739"
       sodipodi:nodetypes="cccccccccccccccccccc"
       inkscape:export-filename="/media/sdb1/Glamour/2dgame/art/scenario/omni/gate/0.png"
       inkscape:export-xdpi="90"
       inkscape:export-ydpi="90" />
    <path
       style="opacity:0.53496549;fill:url(#radialGradient4769);fill-opacity:1;stroke:none;stroke-width:0.40000001;stroke-linecap:round;stroke-linejoin:miter;stroke-miterlimit:4;stroke-dashoffset:0;stroke-opacity:1"
       d="M 82.043196,736.08647 C 91.287016,733.9351 112.99,729.21023 122.58825,741.08015 C 126.98869,746.10361 132.81691,757.63624 124.62648,768.31864 C 117.17038,778.68574 95.18817,781.12481 85.977216,773.61304 C 76.923236,764.70711 84.085276,753.94671 91.072516,751.03156 C 109.00544,742.82056 113.74772,749.51727 114.78175,750.95179 C 116.76055,754.96573 116.46393,760.15595 111.4519,764.55522 C 113.98666,760.16081 114.00675,755.57336 111.51146,753.15565 C 106.58696,749.32174 98.9463,750.34861 94.43672,753.22502 C 89.622026,756.15417 89.352396,762.33508 92.189716,766.28724 C 96.11177,771.75034 109.39806,773.49192 118.30599,765.01963 C 125.29036,757.94297 123.58264,750.68041 119.93226,745.82982 C 114.81145,739.40969 103.38264,737.64079 90.864086,740.61177 C 42.550676,752.40298 26.905736,785.45159 14.331065,825.32372 C -0.8585852,895.03933 31.165586,907.43833 25.132006,1036.7353 C 24.937036,1041.9011 24.807146,1047.0018 24.294396,1052.4853 L 12.544395,1052.4853 C 13.503975,1047.4971 14.401155,1042.384 15.030475,1036.7353 C 26.975546,897.98557 -11.888225,890.08743 5.030475,816.70153 C 11.132265,784.36126 44.304306,748.52234 82.043196,736.08647 z"
       id="path4759"
       sodipodi:nodetypes="cccccccccccccccccccc"
       inkscape:export-filename="/media/sdb1/Glamour/2dgame/art/scenario/omni/gate/0.png"
       inkscape:export-xdpi="90"
       inkscape:export-ydpi="90" />
    <path
       style="opacity:0.75874125;fill:url(#linearGradient4737);fill-opacity:1;stroke:none;stroke-width:0.40000001;stroke-linecap:round;stroke-linejoin:miter;stroke-miterlimit:4;stroke-dashoffset:0;stroke-opacity:1"
       d="M 81.918196,736.08647 C 91.162016,733.9351 112.865,729.21023 122.46325,741.08015 C 126.86369,746.10361 132.69191,757.63624 124.50148,768.31864 C 117.04538,778.68574 95.06317,781.12481 85.852216,773.61304 C 76.798236,764.70711 83.960276,753.94671 90.947516,751.03156 C 108.88044,742.82056 113.62272,749.51727 114.65675,750.95179 C 116.63555,754.96573 116.33893,760.15595 111.3269,764.55522 C 113.86166,760.16081 113.88175,755.57336 111.38646,753.15565 C 106.46196,749.32174 98.8213,750.34861 94.31172,753.22502 C 89.497026,756.15417 89.227396,762.33508 92.064716,766.28724 C 95.98677,771.75034 109.27306,773.49192 118.18099,765.01963 C 125.16536,757.94297 123.45764,750.68041 119.80726,745.82982 C 114.68645,739.40969 103.25764,737.64079 90.739086,740.61177 C 42.425676,752.40298 26.780736,785.45159 14.206065,825.32372 C -0.9835852,895.03933 31.040586,907.43833 25.007006,1036.7353 C 24.812036,1041.9011 24.682146,1047.0018 24.169396,1052.4853 L 12.419395,1052.4853 C 13.378975,1047.4971 14.276155,1042.384 14.905475,1036.7353 C 26.850546,897.98557 -12.013225,890.08743 4.905475,816.70153 C 11.007265,784.36126 44.179306,748.52234 81.918196,736.08647 z"
       id="path4729"
       sodipodi:nodetypes="cccccccccccccccccccc"
       inkscape:export-filename="/media/sdb1/Glamour/2dgame/art/scenario/omni/gate/0.png"
       inkscape:export-xdpi="90"
       inkscape:export-ydpi="90" />
    <g
       id="g4807"
       transform="matrix(0.9998895,1.4863066e-2,-1.4863066e-2,0.9998895,-514.04672,234.71845)"
       inkscape:export-filename="/media/sdb1/Glamour/2dgame/art/scenario/omni/gate/0.png"
       inkscape:export-xdpi="90"
       inkscape:export-ydpi="90">
      <path
         sodipodi:nodetypes="ccccccccccccscccsccccscccccccccccscccsccccsc"
         id="path4771"
         d="M 595.67523,531.37781 C 590.36974,531.51145 580.84516,535.30064 577.74453,540.25074 C 573.92064,546.45103 573.93212,554.597 578.51475,558.98247 C 580.91771,561.46618 586.59057,565.31094 594.25803,562.2482 C 601.346,559.78952 605.88961,552.75349 603.93198,547.33676 C 602.12778,541.91136 597.37873,540.12252 593.39538,540.52802 C 589.92708,540.86199 583.88493,546.58552 587.94223,551.61918 C 587.40895,547.22833 591.03655,543.77761 594.56612,543.6089 C 595.71215,543.44465 599.90013,544.5135 601.43647,547.95293 C 602.44741,551.74143 601.64912,555.96411 593.54943,559.87593 C 588.96064,561.4444 584.31727,559.22732 581.56482,556.73343 C 576.41627,551.44963 578.22791,543.95488 580.17842,541.05177 C 583.49886,536.66595 591.01665,534.40574 594.47369,534.33546 C 601.63365,534.18987 606.55825,539.23292 608.52249,543.9786 C 610.02262,547.15829 610.85356,551.51512 609.9705,556.08645 C 607.45291,568.38572 597.82561,575.57964 586.74069,578.94656 C 586.73037,578.94553 586.71948,578.94263 586.70988,578.94656 C 578.89878,582.1421 572.03444,578.3529 562.52499,580.67185 L 558.02691,582.11986 C 545.07387,586.9535 537.05415,596.03275 534.70467,605.22644 C 532.88635,612.86312 532.51651,618.48965 535.69056,626.5153 C 539.29231,633.95565 543.43862,636.47654 551.68031,637.11352 C 556.68901,637.50066 567.28955,633.55151 570.59689,628.2714 C 574.42078,622.07111 574.40928,613.92514 569.82667,609.53967 C 567.42371,607.05596 561.75085,603.2112 554.08339,606.27394 C 546.99542,608.73261 542.45181,615.76865 544.40944,621.18538 C 546.21364,626.61078 550.96269,628.43043 554.94604,628.02493 C 558.41434,627.69096 564.45647,621.93662 560.39919,616.90296 C 560.93246,621.29381 557.30487,624.7445 553.7753,624.91324 C 552.62927,625.07749 548.44129,624.00864 546.90495,620.56921 C 545.89401,616.78071 546.69229,612.55804 554.79199,608.64621 C 559.38078,607.07773 564.02413,609.29482 566.77661,611.78871 C 571.92515,617.0725 570.11349,624.56724 568.163,627.47037 C 564.84256,631.85619 557.32476,634.11637 553.86773,634.18668 C 546.70777,634.33227 541.78317,629.28919 539.81893,624.54354 C 538.3188,621.36384 537.48786,617.03783 538.37092,612.4665 C 540.88851,600.16722 550.51581,592.94251 561.60073,589.57558 C 561.61105,589.57661 561.62172,589.57892 561.63154,589.57558 C 571.44927,586.23664 575.89047,590.59597 585.78562,587.85029 L 590.31451,586.40228 C 603.26754,581.56863 611.28726,572.48939 613.63675,563.2957 C 615.45507,555.65902 615.8249,550.03249 612.65087,542.00684 C 609.04911,534.56649 604.90279,532.04563 596.66111,531.40862 C 596.34807,531.38443 596.02894,531.3689 595.67523,531.37781 z"
         style="fill:#a8b023;fill-opacity:1;stroke:none;stroke-width:0.40000001;stroke-linecap:round;stroke-linejoin:miter;stroke-miterlimit:4;stroke-dashoffset:0;stroke-opacity:1" />
      <path
         sodipodi:nodetypes="ccccccccccccscccsccccscccccccccccscccsccccsc"
         id="path4783"
         d="M 595.75452,531.3575 C 590.44903,531.49114 580.92445,535.28033 577.82382,540.23043 C 573.99993,546.43072 574.01141,554.57669 578.59404,558.96216 C 580.997,561.44587 586.66986,565.29063 594.33732,562.22789 C 601.42529,559.76921 605.9689,552.73318 604.01127,547.31645 C 602.20707,541.89105 597.45802,540.10221 593.47467,540.50771 C 590.00637,540.84168 583.96422,546.56521 588.02152,551.59887 C 587.48824,547.20802 591.11584,543.7573 594.64541,543.58859 C 595.79144,543.42434 599.97942,544.49319 601.51576,547.93262 C 602.5267,551.72112 601.72841,555.9438 593.62872,559.85562 C 589.03993,561.42409 584.39656,559.20701 581.64411,556.71312 C 576.49556,551.42932 578.3072,543.93457 580.25771,541.03146 C 583.57815,536.64564 591.09594,534.38543 594.55298,534.31515 C 601.71294,534.16956 606.63754,539.21261 608.60178,543.95829 C 610.10191,547.13798 610.93285,551.49481 610.04979,556.06614 C 607.5322,568.36541 597.9049,575.55933 586.81998,578.92625 C 586.80966,578.92522 586.79877,578.92232 586.78917,578.92625 C 578.97807,582.12179 572.11373,578.33259 562.60428,580.65154 L 558.1062,582.09955 C 545.15316,586.93319 537.13344,596.01244 534.78396,605.20613 C 532.96564,612.84281 532.5958,618.46934 535.76985,626.49499 C 539.3716,633.93534 543.51791,636.45623 551.7596,637.09321 C 556.7683,637.48035 567.36884,633.5312 570.67618,628.25109 C 574.50007,622.0508 574.48857,613.90483 569.90596,609.51936 C 567.503,607.03565 561.83014,603.19089 554.16268,606.25363 C 547.07471,608.7123 542.5311,615.74834 544.48873,621.16507 C 546.29293,626.59047 551.04198,628.41012 555.02533,628.00462 C 558.49363,627.67065 564.53576,621.91631 560.47848,616.88265 C 561.01175,621.2735 557.38416,624.72419 553.85459,624.89293 C 552.70856,625.05718 548.52058,623.98833 546.98424,620.5489 C 545.9733,616.7604 546.77158,612.53773 554.87128,608.6259 C 559.46007,607.05742 564.10342,609.27451 566.8559,611.7684 C 572.00444,617.05219 570.19278,624.54693 568.24229,627.45006 C 564.92185,631.83588 557.40405,634.09606 553.94702,634.16637 C 546.78706,634.31196 541.86246,629.26888 539.89822,624.52323 C 538.39809,621.34353 537.56715,617.01752 538.45021,612.44619 C 540.9678,600.14691 550.5951,592.9222 561.68002,589.55527 C 561.69034,589.5563 561.70101,589.55861 561.71083,589.55527 C 571.52856,586.21633 575.96976,590.57566 585.86491,587.82998 L 590.3938,586.38197 C 603.34683,581.54832 611.36655,572.46908 613.71604,563.27539 C 615.53436,555.63871 615.90419,550.01218 612.73016,541.98653 C 609.1284,534.54618 604.98208,532.02532 596.7404,531.38831 C 596.42736,531.36412 596.10823,531.34859 595.75452,531.3575 z"
         style="opacity:0.27272728;fill:url(#radialGradient4813);fill-opacity:1;stroke:none;stroke-width:0.40000001;stroke-linecap:round;stroke-linejoin:miter;stroke-miterlimit:4;stroke-dashoffset:0;stroke-opacity:1" />
      <path
         sodipodi:nodetypes="ccccccccccccscccsccccscccccccccccscccsccccsc"
         id="path4795"
         d="M 595.67523,531.37781 C 590.36974,531.51145 580.84516,535.30064 577.74453,540.25074 C 573.92064,546.45103 573.93212,554.597 578.51475,558.98247 C 580.91771,561.46618 586.59057,565.31094 594.25803,562.2482 C 601.346,559.78952 605.88961,552.75349 603.93198,547.33676 C 602.12778,541.91136 597.37873,540.12252 593.39538,540.52802 C 589.92708,540.86199 583.88493,546.58552 587.94223,551.61918 C 587.40895,547.22833 591.03655,543.77761 594.56612,543.6089 C 595.71215,543.44465 599.90013,544.5135 601.43647,547.95293 C 602.44741,551.74143 601.64912,555.96411 593.54943,559.87593 C 588.96064,561.4444 584.31727,559.22732 581.56482,556.73343 C 576.41627,551.44963 578.22791,543.95488 580.17842,541.05177 C 583.49886,536.66595 591.01665,534.40574 594.47369,534.33546 C 601.63365,534.18987 606.55825,539.23292 608.52249,543.9786 C 610.02262,547.15829 610.85356,551.51512 609.9705,556.08645 C 607.45291,568.38572 597.82561,575.57964 586.74069,578.94656 C 586.73037,578.94553 586.71948,578.94263 586.70988,578.94656 C 578.89878,582.1421 572.03444,578.3529 562.52499,580.67185 L 558.02691,582.11986 C 545.07387,586.9535 537.05415,596.03275 534.70467,605.22644 C 532.88635,612.86312 532.51651,618.48965 535.69056,626.5153 C 539.29231,633.95565 543.43862,636.47654 551.68031,637.11352 C 556.68901,637.50066 567.28955,633.55151 570.59689,628.2714 C 574.42078,622.07111 574.40928,613.92514 569.82667,609.53967 C 567.42371,607.05596 561.75085,603.2112 554.08339,606.27394 C 546.99542,608.73261 542.45181,615.76865 544.40944,621.18538 C 546.21364,626.61078 550.96269,628.43043 554.94604,628.02493 C 558.41434,627.69096 564.45647,621.93662 560.39919,616.90296 C 560.93246,621.29381 557.30487,624.7445 553.7753,624.91324 C 552.62927,625.07749 548.44129,624.00864 546.90495,620.56921 C 545.89401,616.78071 546.69229,612.55804 554.79199,608.64621 C 559.38078,607.07773 564.02413,609.29482 566.77661,611.78871 C 571.92515,617.0725 570.11349,624.56724 568.163,627.47037 C 564.84256,631.85619 557.32476,634.11637 553.86773,634.18668 C 546.70777,634.33227 541.78317,629.28919 539.81893,624.54354 C 538.3188,621.36384 537.48786,617.03783 538.37092,612.4665 C 540.88851,600.16722 550.51581,592.94251 561.60073,589.57558 C 561.61105,589.57661 561.62172,589.57892 561.63154,589.57558 C 571.44927,586.23664 575.89047,590.59597 585.78562,587.85029 L 590.31451,586.40228 C 603.26754,581.56863 611.28726,572.48939 613.63675,563.2957 C 615.45507,555.65902 615.8249,550.03249 612.65087,542.00684 C 609.04911,534.56649 604.90279,532.04563 596.66111,531.40862 C 596.34807,531.38443 596.02894,531.3689 595.67523,531.37781 z"
         style="opacity:0.40559441;fill:url(#radialGradient4815);fill-opacity:1;stroke:none;stroke-width:0.40000001;stroke-linecap:round;stroke-linejoin:miter;stroke-miterlimit:4;stroke-dashoffset:0;stroke-opacity:1" />
      <path
         sodipodi:nodetypes="ccccccccccccscccsccccscccccccccccscccsccccsc"
         id="path4773"
         d="M 595.67523,531.37781 C 590.36974,531.51145 580.84516,535.30064 577.74453,540.25074 C 573.92064,546.45103 573.93212,554.597 578.51475,558.98247 C 580.91771,561.46618 586.59057,565.31094 594.25803,562.2482 C 601.346,559.78952 605.88961,552.75349 603.93198,547.33676 C 602.12778,541.91136 597.37873,540.12252 593.39538,540.52802 C 589.92708,540.86199 583.88493,546.58552 587.94223,551.61918 C 587.40895,547.22833 591.03655,543.77761 594.56612,543.6089 C 595.71215,543.44465 599.90013,544.5135 601.43647,547.95293 C 602.44741,551.74143 601.64912,555.96411 593.54943,559.87593 C 588.96064,561.4444 584.31727,559.22732 581.56482,556.73343 C 576.41627,551.44963 578.22791,543.95488 580.17842,541.05177 C 583.49886,536.66595 591.01665,534.40574 594.47369,534.33546 C 601.63365,534.18987 606.55825,539.23292 608.52249,543.9786 C 610.02262,547.15829 610.85356,551.51512 609.9705,556.08645 C 607.45291,568.38572 597.82561,575.57964 586.74069,578.94656 C 586.73037,578.94553 586.71948,578.94263 586.70988,578.94656 C 578.89878,582.1421 572.03444,578.3529 562.52499,580.67185 L 558.02691,582.11986 C 545.07387,586.9535 537.05415,596.03275 534.70467,605.22644 C 532.88635,612.86312 532.51651,618.48965 535.69056,626.5153 C 539.29231,633.95565 543.43862,636.47654 551.68031,637.11352 C 556.68901,637.50066 567.28955,633.55151 570.59689,628.2714 C 574.42078,622.07111 574.40928,613.92514 569.82667,609.53967 C 567.42371,607.05596 561.75085,603.2112 554.08339,606.27394 C 546.99542,608.73261 542.45181,615.76865 544.40944,621.18538 C 546.21364,626.61078 550.96269,628.43043 554.94604,628.02493 C 558.41434,627.69096 564.45647,621.93662 560.39919,616.90296 C 560.93246,621.29381 557.30487,624.7445 553.7753,624.91324 C 552.62927,625.07749 548.44129,624.00864 546.90495,620.56921 C 545.89401,616.78071 546.69229,612.55804 554.79199,608.64621 C 559.38078,607.07773 564.02413,609.29482 566.77661,611.78871 C 571.92515,617.0725 570.11349,624.56724 568.163,627.47037 C 564.84256,631.85619 557.32476,634.11637 553.86773,634.18668 C 546.70777,634.33227 541.78317,629.28919 539.81893,624.54354 C 538.3188,621.36384 537.48786,617.03783 538.37092,612.4665 C 540.88851,600.16722 550.51581,592.94251 561.60073,589.57558 C 561.61105,589.57661 561.62172,589.57892 561.63154,589.57558 C 571.44927,586.23664 575.89047,590.59597 585.78562,587.85029 L 590.31451,586.40228 C 603.26754,581.56863 611.28726,572.48939 613.63675,563.2957 C 615.45507,555.65902 615.8249,550.03249 612.65087,542.00684 C 609.04911,534.56649 604.90279,532.04563 596.66111,531.40862 C 596.34807,531.38443 596.02894,531.3689 595.67523,531.37781 z"
         style="opacity:0.59440559;fill:url(#radialGradient4817);fill-opacity:1;stroke:none;stroke-width:0.40000001;stroke-linecap:round;stroke-linejoin:miter;stroke-miterlimit:4;stroke-dashoffset:0;stroke-opacity:1" />
    </g>
    <g
       id="g5037"
       transform="translate(-183.15685,258.29289)"
       inkscape:export-filename="/media/sdb1/Glamour/2dgame/art/scenario/omni/gate/0.png"
       inkscape:export-xdpi="90"
       inkscape:export-ydpi="90">
      <g
         transform="translate(-196,27)"
         id="g4897">
        <path
           sodipodi:type="arc"
           style="opacity:1;fill:#a8b023;fill-opacity:1;stroke:none;stroke-width:0.40000001;stroke-linecap:round;stroke-linejoin:miter;stroke-miterlimit:4;stroke-dasharray:none;stroke-dashoffset:0;stroke-opacity:1"
           id="path4819"
           sodipodi:cx="313.57144"
           sodipodi:cy="541.64789"
           sodipodi:rx="38.57143"
           sodipodi:ry="38.57143"
           d="M 352.14287,541.64789 A 38.57143,38.57143 0 1 1 275.00001,541.64789 A 38.57143,38.57143 0 1 1 352.14287,541.64789 z"
           transform="translate(195.54544,-16.080256)" />
        <path
           sodipodi:type="arc"
           style="opacity:1;fill:url(#linearGradient5067);fill-opacity:1;stroke:none;stroke-width:0.40000001;stroke-linecap:round;stroke-linejoin:miter;stroke-miterlimit:4;stroke-dasharray:none;stroke-dashoffset:0;stroke-opacity:1"
           id="path4823"
           sodipodi:cx="313.57144"
           sodipodi:cy="541.64789"
           sodipodi:rx="38.57143"
           sodipodi:ry="38.57143"
           d="M 352.14287,541.64789 A 38.57143,38.57143 0 1 1 275.00001,541.64789 A 38.57143,38.57143 0 1 1 352.14287,541.64789 z"
           transform="translate(195.54544,-16.257033)" />
        <path
           sodipodi:type="arc"
           style="opacity:0.72027971;fill:url(#linearGradient5069);fill-opacity:1;stroke:none;stroke-width:0.40000001;stroke-linecap:round;stroke-linejoin:miter;stroke-miterlimit:4;stroke-dasharray:none;stroke-dashoffset:0;stroke-opacity:1"
           id="path4841"
           sodipodi:cx="313.57144"
           sodipodi:cy="541.64789"
           sodipodi:rx="38.57143"
           sodipodi:ry="38.57143"
           d="M 352.14287,541.64789 A 38.57143,38.57143 0 1 1 275.00001,541.64789 A 38.57143,38.57143 0 1 1 352.14287,541.64789 z"
           transform="translate(195.67801,-15.90348)" />
        <path
           sodipodi:type="arc"
           style="opacity:1;fill:#bfc469;fill-opacity:1;stroke:none;stroke-width:0.40000001;stroke-linecap:round;stroke-linejoin:miter;stroke-miterlimit:4;stroke-dasharray:none;stroke-dashoffset:0;stroke-opacity:1"
           id="path4821"
           sodipodi:cx="313.57144"
           sodipodi:cy="541.64789"
           sodipodi:rx="38.57143"
           sodipodi:ry="38.57143"
           d="M 352.14287,541.64789 A 38.57143,38.57143 0 1 1 275.00001,541.64789 A 38.57143,38.57143 0 1 1 352.14287,541.64789 z"
           transform="matrix(0.8808394,0,0,0.8808394,233.26434,50.937696)" />
        <path
           sodipodi:type="arc"
           style="opacity:1;fill:url(#linearGradient5071);fill-opacity:1;stroke:none;stroke-width:0.40000001;stroke-linecap:round;stroke-linejoin:miter;stroke-miterlimit:4;stroke-dasharray:none;stroke-dashoffset:0;stroke-opacity:1"
           id="path4855"
           sodipodi:cx="313.57144"
           sodipodi:cy="541.64789"
           sodipodi:rx="38.57143"
           sodipodi:ry="38.57143"
           d="M 352.14287,541.64789 A 38.57143,38.57143 0 1 1 275.00001,541.64789 A 38.57143,38.57143 0 1 1 352.14287,541.64789 z"
           transform="matrix(0.8808394,0,0,0.8808394,233.16892,50.882383)" />
        <path
           sodipodi:type="arc"
           style="opacity:1;fill:url(#linearGradient5073);fill-opacity:1;stroke:none;stroke-width:0.40000001;stroke-linecap:round;stroke-linejoin:miter;stroke-miterlimit:4;stroke-dasharray:none;stroke-dashoffset:0;stroke-opacity:1"
           id="path4865"
           sodipodi:cx="313.57144"
           sodipodi:cy="541.64789"
           sodipodi:rx="38.57143"
           sodipodi:ry="38.57143"
           d="M 352.14287,541.64789 A 38.57143,38.57143 0 1 1 275.00001,541.64789 A 38.57143,38.57143 0 1 1 352.14287,541.64789 z"
           transform="matrix(0.8808394,0,0,0.8808394,233.16892,50.882383)" />
        <path
           sodipodi:type="arc"
           style="opacity:1;fill:#bfc469;fill-opacity:1;stroke:none;stroke-width:0.40000001;stroke-linecap:round;stroke-linejoin:miter;stroke-miterlimit:4;stroke-dasharray:none;stroke-dashoffset:0;stroke-opacity:1"
           id="path4853"
           sodipodi:cx="313.57144"
           sodipodi:cy="541.64789"
           sodipodi:rx="38.57143"
           sodipodi:ry="38.57143"
           d="M 352.14287,541.64789 A 38.57143,38.57143 0 1 1 275.00001,541.64789 A 38.57143,38.57143 0 1 1 352.14287,541.64789 z"
           transform="matrix(0.8030616,0,0,0.8030616,257.43281,91.885551)" />
      </g>
      <path
         transform="matrix(0.6646076,0,0,0.6646076,-17.921049,206.1464)"
         d="M 470.93313,477.83792 A 2.4748738,2.4748738 0 1 1 465.98338,477.83792 A 2.4748738,2.4748738 0 1 1 470.93313,477.83792 z"
         sodipodi:ry="2.4748738"
         sodipodi:rx="2.4748738"
         sodipodi:cy="477.83792"
         sodipodi:cx="468.45825"
         id="path4875"
         style="opacity:0.72027971;fill:url(#linearGradient5075);fill-opacity:1;stroke:none;stroke-width:0.40000001;stroke-linecap:round;stroke-linejoin:miter;stroke-miterlimit:4;stroke-dasharray:none;stroke-dashoffset:0;stroke-opacity:1"
         sodipodi:type="arc" />
      <path
         transform="matrix(0.6646076,0,0,0.6646076,-17.896139,206.17134)"
         d="M 470.93313,477.83792 A 2.4748738,2.4748738 0 1 1 465.98338,477.83792 A 2.4748738,2.4748738 0 1 1 470.93313,477.83792 z"
         sodipodi:ry="2.4748738"
         sodipodi:rx="2.4748738"
         sodipodi:cy="477.83792"
         sodipodi:cx="468.45825"
         id="path4885"
         style="opacity:0.72027971;fill:url(#linearGradient5077);fill-opacity:1;stroke:none;stroke-width:0.40000001;stroke-linecap:round;stroke-linejoin:miter;stroke-miterlimit:4;stroke-dasharray:none;stroke-dashoffset:0;stroke-opacity:1"
         sodipodi:type="arc" />
      <path
         transform="matrix(0.6646076,0,0,0.6646076,-28.806299,216.69922)"
         d="M 470.93313,477.83792 A 2.4748738,2.4748738 0 1 1 465.98338,477.83792 A 2.4748738,2.4748738 0 1 1 470.93313,477.83792 z"
         sodipodi:ry="2.4748738"
         sodipodi:rx="2.4748738"
         sodipodi:cy="477.83792"
         sodipodi:cx="468.45825"
         id="path4906"
         style="opacity:0.72027971;fill:url(#linearGradient5079);fill-opacity:1;stroke:none;stroke-width:0.40000001;stroke-linecap:round;stroke-linejoin:miter;stroke-miterlimit:4;stroke-dasharray:none;stroke-dashoffset:0;stroke-opacity:1"
         sodipodi:type="arc" />
      <path
         transform="matrix(0.6646076,0,0,0.6646076,-28.781389,216.72416)"
         d="M 470.93313,477.83792 A 2.4748738,2.4748738 0 1 1 465.98338,477.83792 A 2.4748738,2.4748738 0 1 1 470.93313,477.83792 z"
         sodipodi:ry="2.4748738"
         sodipodi:rx="2.4748738"
         sodipodi:cy="477.83792"
         sodipodi:cx="468.45825"
         id="path4908"
         style="opacity:0.72027971;fill:url(#linearGradient5081);fill-opacity:1;stroke:none;stroke-width:0.40000001;stroke-linecap:round;stroke-linejoin:miter;stroke-miterlimit:4;stroke-dasharray:none;stroke-dashoffset:0;stroke-opacity:1"
         sodipodi:type="arc" />
      <path
         transform="matrix(0.6646076,0,0,0.6646076,1.9876207,200.31605)"
         d="M 470.93313,477.83792 A 2.4748738,2.4748738 0 1 1 465.98338,477.83792 A 2.4748738,2.4748738 0 1 1 470.93313,477.83792 z"
         sodipodi:ry="2.4748738"
         sodipodi:rx="2.4748738"
         sodipodi:cy="477.83792"
         sodipodi:cx="468.45825"
         id="path4914"
         style="opacity:0.72027971;fill:url(#linearGradient5083);fill-opacity:1;stroke:none;stroke-width:0.40000001;stroke-linecap:round;stroke-linejoin:miter;stroke-miterlimit:4;stroke-dasharray:none;stroke-dashoffset:0;stroke-opacity:1"
         sodipodi:type="arc" />
      <path
         transform="matrix(0.6646076,0,0,0.6646076,2.0125307,200.34099)"
         d="M 470.93313,477.83792 A 2.4748738,2.4748738 0 1 1 465.98338,477.83792 A 2.4748738,2.4748738 0 1 1 470.93313,477.83792 z"
         sodipodi:ry="2.4748738"
         sodipodi:rx="2.4748738"
         sodipodi:cy="477.83792"
         sodipodi:cx="468.45825"
         id="path4916"
         style="opacity:0.72027971;fill:url(#linearGradient5085);fill-opacity:1;stroke:none;stroke-width:0.40000001;stroke-linecap:round;stroke-linejoin:miter;stroke-miterlimit:4;stroke-dasharray:none;stroke-dashoffset:0;stroke-opacity:1"
         sodipodi:type="arc" />
      <path
         transform="matrix(0.6646076,0,0,0.6646076,-33.826659,229.18971)"
         d="M 470.93313,477.83792 A 2.4748738,2.4748738 0 1 1 465.98338,477.83792 A 2.4748738,2.4748738 0 1 1 470.93313,477.83792 z"
         sodipodi:ry="2.4748738"
         sodipodi:rx="2.4748738"
         sodipodi:cy="477.83792"
         sodipodi:cx="468.45825"
         id="path4922"
         style="opacity:0.72027971;fill:url(#linearGradient5087);fill-opacity:1;stroke:none;stroke-width:0.40000001;stroke-linecap:round;stroke-linejoin:miter;stroke-miterlimit:4;stroke-dasharray:none;stroke-dashoffset:0;stroke-opacity:1"
         sodipodi:type="arc" />
      <path
         transform="matrix(0.6646076,0,0,0.6646076,-33.801749,229.21465)"
         d="M 470.93313,477.83792 A 2.4748738,2.4748738 0 1 1 465.98338,477.83792 A 2.4748738,2.4748738 0 1 1 470.93313,477.83792 z"
         sodipodi:ry="2.4748738"
         sodipodi:rx="2.4748738"
         sodipodi:cy="477.83792"
         sodipodi:cx="468.45825"
         id="path4924"
         style="opacity:0.72027971;fill:url(#linearGradient5089);fill-opacity:1;stroke:none;stroke-width:0.40000001;stroke-linecap:round;stroke-linejoin:miter;stroke-miterlimit:4;stroke-dasharray:none;stroke-dashoffset:0;stroke-opacity:1"
         sodipodi:type="arc" />
      <path
         transform="matrix(0.5937158,0,0,0.5937158,-0.5511693,275.92609)"
         d="M 470.93313,477.83792 A 2.4748738,2.4748738 0 1 1 465.98338,477.83792 A 2.4748738,2.4748738 0 1 1 470.93313,477.83792 z"
         sodipodi:ry="2.4748738"
         sodipodi:rx="2.4748738"
         sodipodi:cy="477.83792"
         sodipodi:cx="468.45825"
         id="path4930"
         style="opacity:0.72027971;fill:url(#linearGradient5091);fill-opacity:1;stroke:none;stroke-width:0.40000001;stroke-linecap:round;stroke-linejoin:miter;stroke-miterlimit:4;stroke-dasharray:none;stroke-dashoffset:0;stroke-opacity:1"
         sodipodi:type="arc" />
      <path
         transform="matrix(0.5937158,0,0,0.5937158,-0.5289093,275.94837)"
         d="M 470.93313,477.83792 A 2.4748738,2.4748738 0 1 1 465.98338,477.83792 A 2.4748738,2.4748738 0 1 1 470.93313,477.83792 z"
         sodipodi:ry="2.4748738"
         sodipodi:rx="2.4748738"
         sodipodi:cy="477.83792"
         sodipodi:cx="468.45825"
         id="path4932"
         style="opacity:0.72027971;fill:url(#linearGradient5093);fill-opacity:1;stroke:none;stroke-width:0.40000001;stroke-linecap:round;stroke-linejoin:miter;stroke-miterlimit:4;stroke-dasharray:none;stroke-dashoffset:0;stroke-opacity:1"
         sodipodi:type="arc" />
      <path
         transform="matrix(0.6646076,0,0,0.6646076,22.065911,206.25386)"
         d="M 470.93313,477.83792 A 2.4748738,2.4748738 0 1 1 465.98338,477.83792 A 2.4748738,2.4748738 0 1 1 470.93313,477.83792 z"
         sodipodi:ry="2.4748738"
         sodipodi:rx="2.4748738"
         sodipodi:cy="477.83792"
         sodipodi:cx="468.45825"
         id="path4938"
         style="opacity:0.72027971;fill:url(#linearGradient5095);fill-opacity:1;stroke:none;stroke-width:0.40000001;stroke-linecap:round;stroke-linejoin:miter;stroke-miterlimit:4;stroke-dasharray:none;stroke-dashoffset:0;stroke-opacity:1"
         sodipodi:type="arc" />
      <path
         transform="matrix(0.6646076,0,0,0.6646076,22.090821,206.2788)"
         d="M 470.93313,477.83792 A 2.4748738,2.4748738 0 1 1 465.98338,477.83792 A 2.4748738,2.4748738 0 1 1 470.93313,477.83792 z"
         sodipodi:ry="2.4748738"
         sodipodi:rx="2.4748738"
         sodipodi:cy="477.83792"
         sodipodi:cx="468.45825"
         id="path4940"
         style="opacity:0.72027971;fill:url(#linearGradient5097);fill-opacity:1;stroke:none;stroke-width:0.40000001;stroke-linecap:round;stroke-linejoin:miter;stroke-miterlimit:4;stroke-dasharray:none;stroke-dashoffset:0;stroke-opacity:1"
         sodipodi:type="arc" />
      <path
         transform="matrix(0.6646076,0,0,0.6646076,32.747421,216.80669)"
         d="M 470.93313,477.83792 A 2.4748738,2.4748738 0 1 1 465.98338,477.83792 A 2.4748738,2.4748738 0 1 1 470.93313,477.83792 z"
         sodipodi:ry="2.4748738"
         sodipodi:rx="2.4748738"
         sodipodi:cy="477.83792"
         sodipodi:cx="468.45825"
         id="path4942"
         style="opacity:0.72027971;fill:url(#linearGradient5099);fill-opacity:1;stroke:none;stroke-width:0.40000001;stroke-linecap:round;stroke-linejoin:miter;stroke-miterlimit:4;stroke-dasharray:none;stroke-dashoffset:0;stroke-opacity:1"
         sodipodi:type="arc" />
      <path
         transform="matrix(0.6646076,0,0,0.6646076,32.772331,216.83163)"
         d="M 470.93313,477.83792 A 2.4748738,2.4748738 0 1 1 465.98338,477.83792 A 2.4748738,2.4748738 0 1 1 470.93313,477.83792 z"
         sodipodi:ry="2.4748738"
         sodipodi:rx="2.4748738"
         sodipodi:cy="477.83792"
         sodipodi:cx="468.45825"
         id="path4944"
         style="opacity:0.72027971;fill:url(#linearGradient5101);fill-opacity:1;stroke:none;stroke-width:0.40000001;stroke-linecap:round;stroke-linejoin:miter;stroke-miterlimit:4;stroke-dasharray:none;stroke-dashoffset:0;stroke-opacity:1"
         sodipodi:type="arc" />
      <path
         transform="matrix(0.6646076,0,0,0.6646076,37.538171,229.0762)"
         d="M 470.93313,477.83792 A 2.4748738,2.4748738 0 1 1 465.98338,477.83792 A 2.4748738,2.4748738 0 1 1 470.93313,477.83792 z"
         sodipodi:ry="2.4748738"
         sodipodi:rx="2.4748738"
         sodipodi:cy="477.83792"
         sodipodi:cx="468.45825"
         id="path4950"
         style="opacity:0.72027971;fill:url(#linearGradient5103);fill-opacity:1;stroke:none;stroke-width:0.40000001;stroke-linecap:round;stroke-linejoin:miter;stroke-miterlimit:4;stroke-dasharray:none;stroke-dashoffset:0;stroke-opacity:1"
         sodipodi:type="arc" />
      <path
         transform="matrix(0.6646076,0,0,0.6646076,37.563081,229.10114)"
         d="M 470.93313,477.83792 A 2.4748738,2.4748738 0 1 1 465.98338,477.83792 A 2.4748738,2.4748738 0 1 1 470.93313,477.83792 z"
         sodipodi:ry="2.4748738"
         sodipodi:rx="2.4748738"
         sodipodi:cy="477.83792"
         sodipodi:cx="468.45825"
         id="path4952"
         style="opacity:0.72027971;fill:url(#linearGradient5105);fill-opacity:1;stroke:none;stroke-width:0.40000001;stroke-linecap:round;stroke-linejoin:miter;stroke-miterlimit:4;stroke-dasharray:none;stroke-dashoffset:0;stroke-opacity:1"
         sodipodi:type="arc" />
      <path
         transform="matrix(0.6025779,0,0,0.6025779,66.827371,271.66208)"
         d="M 470.93313,477.83792 A 2.4748738,2.4748738 0 1 1 465.98338,477.83792 A 2.4748738,2.4748738 0 1 1 470.93313,477.83792 z"
         sodipodi:ry="2.4748738"
         sodipodi:rx="2.4748738"
         sodipodi:cy="477.83792"
         sodipodi:cx="468.45825"
         id="path4954"
         style="opacity:0.72027971;fill:url(#linearGradient5107);fill-opacity:1;stroke:none;stroke-width:0.40000001;stroke-linecap:round;stroke-linejoin:miter;stroke-miterlimit:4;stroke-dasharray:none;stroke-dashoffset:0;stroke-opacity:1"
         sodipodi:type="arc" />
      <path
         transform="matrix(0.6025779,0,0,0.6025779,66.849951,271.68469)"
         d="M 470.93313,477.83792 A 2.4748738,2.4748738 0 1 1 465.98338,477.83792 A 2.4748738,2.4748738 0 1 1 470.93313,477.83792 z"
         sodipodi:ry="2.4748738"
         sodipodi:rx="2.4748738"
         sodipodi:cy="477.83792"
         sodipodi:cx="468.45825"
         id="path4956"
         style="opacity:0.72027971;fill:url(#linearGradient5109);fill-opacity:1;stroke:none;stroke-width:0.40000001;stroke-linecap:round;stroke-linejoin:miter;stroke-miterlimit:4;stroke-dasharray:none;stroke-dashoffset:0;stroke-opacity:1"
         sodipodi:type="arc" />
      <path
         transform="matrix(0.7801461,0,0,0.7801461,68.308761,130.44058)"
         d="M 352.14287,541.64789 A 38.57143,38.57143 0 1 1 275.00001,541.64789 A 38.57143,38.57143 0 1 1 352.14287,541.64789 z"
         sodipodi:ry="38.57143"
         sodipodi:rx="38.57143"
         sodipodi:cy="541.64789"
         sodipodi:cx="313.57144"
         id="path5000"
         style="fill:url(#linearGradient5111);fill-opacity:1;stroke:none;stroke-width:0.40000001;stroke-linecap:round;stroke-linejoin:miter;stroke-miterlimit:4;stroke-dasharray:none;stroke-dashoffset:0;stroke-opacity:1"
         sodipodi:type="arc" />
      <path
         transform="matrix(0.7801461,0,0,0.7801461,69.192451,132.30124)"
         d="M 352.14287,541.64789 A 38.57143,38.57143 0 1 1 275.00001,541.64789 A 38.57143,38.57143 0 1 1 352.14287,541.64789 z"
         sodipodi:ry="38.57143"
         sodipodi:rx="38.57143"
         sodipodi:cy="541.64789"
         sodipodi:cx="313.57144"
         id="path5025"
         style="opacity:0.39860152;fill:url(#linearGradient5113);fill-opacity:1;stroke:none;stroke-width:0.40000001;stroke-linecap:round;stroke-linejoin:miter;stroke-miterlimit:4;stroke-dasharray:none;stroke-dashoffset:0;stroke-opacity:1"
         sodipodi:type="arc" />
    </g>
    <path
       sodipodi:type="arc"
       style="opacity:0.40559441;fill:#ffffff;fill-opacity:1;stroke:none;stroke-width:0.40000001000000002;stroke-linecap:round;stroke-linejoin:miter;stroke-miterlimit:4;stroke-dasharray:none;stroke-dashoffset:0;stroke-opacity:1"
       id="path5327"
       sodipodi:cx="292.0351"
       sodipodi:cy="526.6283"
       sodipodi:rx="20.152544"
       sodipodi:ry="20.152544"
       d="M 312.18764,526.6283 A 20.152544,20.152544 0 1 1 271.88255,526.6283 A 20.152544,20.152544 0 1 1 312.18764,526.6283 z"
       transform="matrix(1.4912281,0,0,1.4912281,-305.11268,26.840932)"
       inkscape:export-filename="/media/sdb1/Glamour/2dgame/art/scenario/omni/gate/0.png"
       inkscape:export-xdpi="90"
       inkscape:export-ydpi="90" />
    <path
       style="opacity:1;fill:#a8b023;fill-opacity:1;stroke:none;stroke-width:0.40000001;stroke-linecap:round;stroke-linejoin:miter;stroke-miterlimit:4;stroke-dashoffset:0;stroke-opacity:1"
       d="M 177.68122,736.08388 C 168.4374,733.93251 146.73442,729.20764 137.13617,741.07756 C 132.73573,746.10102 126.90751,757.63365 135.09794,768.31605 C 142.55404,778.68315 164.53625,781.12222 173.7472,773.61045 C 182.80118,764.70452 175.63914,753.94412 168.6519,751.02897 C 150.71898,742.81797 145.9767,749.51468 144.94267,750.9492 C 142.96387,754.96314 143.26049,760.15336 148.27252,764.55263 C 145.73776,760.15822 145.71767,755.57077 148.21296,753.15306 C 153.13746,749.31915 160.77812,750.34602 165.2877,753.22243 C 170.10239,756.15158 170.37202,762.33249 167.5347,766.28465 C 163.61265,771.74775 150.32636,773.48933 141.41843,765.01704 C 134.43406,757.94038 136.14178,750.67782 139.79216,745.82723 C 144.91297,739.4071 156.34178,737.6382 168.86033,740.60918 C 217.17374,752.40039 232.81868,785.449 245.39335,825.32113 C 260.583,895.03674 228.55883,907.43574 234.59241,1036.7327 C 234.78738,1041.8985 234.91727,1046.9992 235.43002,1052.4827 L 247.18002,1052.4827 C 246.22044,1047.4945 245.32326,1042.3815 244.69394,1036.7327 C 232.74887,897.98298 271.61264,890.08484 254.69394,816.69894 C 248.59215,784.35867 215.42011,748.51975 177.68122,736.08388 z"
       id="path5115"
       sodipodi:nodetypes="cccccccccccccccccccc"
       inkscape:export-filename="/media/sdb1/Glamour/2dgame/art/scenario/omni/gate/0.png"
       inkscape:export-xdpi="90"
       inkscape:export-ydpi="90" />
    <path
       style="opacity:0.75524472;fill:url(#radialGradient5133);fill-opacity:1;stroke:none;stroke-width:0.40000001;stroke-linecap:round;stroke-linejoin:miter;stroke-miterlimit:4;stroke-dashoffset:0;stroke-opacity:1"
       d="M 177.72997,736.02397 C 168.48615,733.8726 146.78317,729.14773 137.18492,741.01765 C 132.78448,746.04111 126.95626,757.57374 135.14669,768.25614 C 142.60279,778.62324 164.585,781.06231 173.79595,773.55054 C 182.84993,764.64461 175.68789,753.88421 168.70065,750.96906 C 150.76773,742.75806 146.02545,749.45477 144.99142,750.88929 C 143.01262,754.90323 143.30924,760.09345 148.32127,764.49272 C 145.78651,760.09831 145.76642,755.51086 148.26171,753.09315 C 153.18621,749.25924 160.82687,750.28611 165.33645,753.16252 C 170.15114,756.09167 170.42077,762.27258 167.58345,766.22474 C 163.6614,771.68784 150.37511,773.42942 141.46718,764.95713 C 134.48281,757.88047 136.19053,750.61791 139.84091,745.76732 C 144.96172,739.34719 156.39053,737.57829 168.90908,740.54927 C 217.22249,752.34048 232.86743,785.38909 245.4421,825.26122 C 260.63175,894.97683 228.60758,907.37583 234.64116,1036.6728 C 234.83613,1041.8386 234.96602,1046.9393 235.47877,1052.4228 L 247.22877,1052.4228 C 246.26919,1047.4346 245.37201,1042.3215 244.74269,1036.6728 C 232.79762,897.92307 271.66139,890.02493 254.74269,816.63903 C 248.6409,784.29876 215.46886,748.45984 177.72997,736.02397 z"
       id="path5117"
       sodipodi:nodetypes="cccccccccccccccccccc"
       inkscape:export-filename="/media/sdb1/Glamour/2dgame/art/scenario/omni/gate/0.png"
       inkscape:export-xdpi="90"
       inkscape:export-ydpi="90" />
    <path
       style="opacity:0.53496549;fill:url(#radialGradient5135);fill-opacity:1;stroke:none;stroke-width:0.40000001;stroke-linecap:round;stroke-linejoin:miter;stroke-miterlimit:4;stroke-dashoffset:0;stroke-opacity:1"
       d="M 177.72997,736.14897 C 168.48615,733.9976 146.78317,729.27273 137.18492,741.14265 C 132.78448,746.16611 126.95626,757.69874 135.14669,768.38114 C 142.60279,778.74824 164.585,781.18731 173.79595,773.67554 C 182.84993,764.76961 175.68789,754.00921 168.70065,751.09406 C 150.76773,742.88306 146.02545,749.57977 144.99142,751.01429 C 143.01262,755.02823 143.30924,760.21845 148.32127,764.61772 C 145.78651,760.22331 145.76642,755.63586 148.26171,753.21815 C 153.18621,749.38424 160.82687,750.41111 165.33645,753.28752 C 170.15114,756.21667 170.42077,762.39758 167.58345,766.34974 C 163.6614,771.81284 150.37511,773.55442 141.46718,765.08213 C 134.48281,758.00547 136.19053,750.74291 139.84091,745.89232 C 144.96172,739.47219 156.39053,737.70329 168.90908,740.67427 C 217.22249,752.46548 232.86743,785.51409 245.4421,825.38622 C 260.63175,895.10183 228.60758,907.50083 234.64116,1036.7978 C 234.83613,1041.9636 234.96602,1047.0643 235.47877,1052.5478 L 247.22877,1052.5478 C 246.26919,1047.5596 245.37201,1042.4465 244.74269,1036.7978 C 232.79762,898.04807 271.66139,890.14993 254.74269,816.76403 C 248.6409,784.42376 215.46886,748.58484 177.72997,736.14897 z"
       id="path5119"
       sodipodi:nodetypes="cccccccccccccccccccc"
       inkscape:export-filename="/media/sdb1/Glamour/2dgame/art/scenario/omni/gate/0.png"
       inkscape:export-xdpi="90"
       inkscape:export-ydpi="90" />
    <path
       style="opacity:0.75874125;fill:url(#linearGradient5137);fill-opacity:1;stroke:none;stroke-width:0.40000001;stroke-linecap:round;stroke-linejoin:miter;stroke-miterlimit:4;stroke-dashoffset:0;stroke-opacity:1"
       d="M 177.85497,736.14897 C 168.61115,733.9976 146.90817,729.27273 137.30992,741.14265 C 132.90948,746.16611 127.08126,757.69874 135.27169,768.38114 C 142.72779,778.74824 164.71,781.18731 173.92095,773.67554 C 182.97493,764.76961 175.81289,754.00921 168.82565,751.09406 C 150.89273,742.88306 146.15045,749.57977 145.11642,751.01429 C 143.13762,755.02823 143.43424,760.21845 148.44627,764.61772 C 145.91151,760.22331 145.89142,755.63586 148.38671,753.21815 C 153.31121,749.38424 160.95187,750.41111 165.46145,753.28752 C 170.27614,756.21667 170.54577,762.39758 167.70845,766.34974 C 163.7864,771.81284 150.50011,773.55442 141.59218,765.08213 C 134.60781,758.00547 136.31553,750.74291 139.96591,745.89232 C 145.08672,739.47219 156.51553,737.70329 169.03408,740.67427 C 217.34749,752.46548 232.99243,785.51409 245.5671,825.38622 C 260.75675,895.10183 228.73258,907.50083 234.76616,1036.7978 C 234.96113,1041.9636 235.09102,1047.0643 235.60377,1052.5478 L 247.35377,1052.5478 C 246.39419,1047.5596 245.49701,1042.4465 244.86769,1036.7978 C 232.92262,898.04807 271.78639,890.14993 254.86769,816.76403 C 248.7659,784.42376 215.59386,748.58484 177.85497,736.14897 z"
       id="path5121"
       sodipodi:nodetypes="cccccccccccccccccccc"
       inkscape:export-filename="/media/sdb1/Glamour/2dgame/art/scenario/omni/gate/0.png"
       inkscape:export-xdpi="90"
       inkscape:export-ydpi="90" />
    <g
       id="g5123"
       transform="matrix(-0.9998895,1.4863066e-2,1.4863066e-2,0.9998895,773.81989,234.78096)"
       inkscape:export-filename="/media/sdb1/Glamour/2dgame/art/scenario/omni/gate/0.png"
       inkscape:export-xdpi="90"
       inkscape:export-ydpi="90">
      <path
         sodipodi:nodetypes="ccccccccccccscccsccccscccccccccccscccsccccsc"
         id="path5125"
         d="M 595.67523,531.37781 C 590.36974,531.51145 580.84516,535.30064 577.74453,540.25074 C 573.92064,546.45103 573.93212,554.597 578.51475,558.98247 C 580.91771,561.46618 586.59057,565.31094 594.25803,562.2482 C 601.346,559.78952 605.88961,552.75349 603.93198,547.33676 C 602.12778,541.91136 597.37873,540.12252 593.39538,540.52802 C 589.92708,540.86199 583.88493,546.58552 587.94223,551.61918 C 587.40895,547.22833 591.03655,543.77761 594.56612,543.6089 C 595.71215,543.44465 599.90013,544.5135 601.43647,547.95293 C 602.44741,551.74143 601.64912,555.96411 593.54943,559.87593 C 588.96064,561.4444 584.31727,559.22732 581.56482,556.73343 C 576.41627,551.44963 578.22791,543.95488 580.17842,541.05177 C 583.49886,536.66595 591.01665,534.40574 594.47369,534.33546 C 601.63365,534.18987 606.55825,539.23292 608.52249,543.9786 C 610.02262,547.15829 610.85356,551.51512 609.9705,556.08645 C 607.45291,568.38572 597.82561,575.57964 586.74069,578.94656 C 586.73037,578.94553 586.71948,578.94263 586.70988,578.94656 C 578.89878,582.1421 572.03444,578.3529 562.52499,580.67185 L 558.02691,582.11986 C 545.07387,586.9535 537.05415,596.03275 534.70467,605.22644 C 532.88635,612.86312 532.51651,618.48965 535.69056,626.5153 C 539.29231,633.95565 543.43862,636.47654 551.68031,637.11352 C 556.68901,637.50066 567.28955,633.55151 570.59689,628.2714 C 574.42078,622.07111 574.40928,613.92514 569.82667,609.53967 C 567.42371,607.05596 561.75085,603.2112 554.08339,606.27394 C 546.99542,608.73261 542.45181,615.76865 544.40944,621.18538 C 546.21364,626.61078 550.96269,628.43043 554.94604,628.02493 C 558.41434,627.69096 564.45647,621.93662 560.39919,616.90296 C 560.93246,621.29381 557.30487,624.7445 553.7753,624.91324 C 552.62927,625.07749 548.44129,624.00864 546.90495,620.56921 C 545.89401,616.78071 546.69229,612.55804 554.79199,608.64621 C 559.38078,607.07773 564.02413,609.29482 566.77661,611.78871 C 571.92515,617.0725 570.11349,624.56724 568.163,627.47037 C 564.84256,631.85619 557.32476,634.11637 553.86773,634.18668 C 546.70777,634.33227 541.78317,629.28919 539.81893,624.54354 C 538.3188,621.36384 537.48786,617.03783 538.37092,612.4665 C 540.88851,600.16722 550.51581,592.94251 561.60073,589.57558 C 561.61105,589.57661 561.62172,589.57892 561.63154,589.57558 C 571.44927,586.23664 575.89047,590.59597 585.78562,587.85029 L 590.31451,586.40228 C 603.26754,581.56863 611.28726,572.48939 613.63675,563.2957 C 615.45507,555.65902 615.8249,550.03249 612.65087,542.00684 C 609.04911,534.56649 604.90279,532.04563 596.66111,531.40862 C 596.34807,531.38443 596.02894,531.3689 595.67523,531.37781 z"
         style="fill:#a8b023;fill-opacity:1;stroke:none;stroke-width:0.40000001;stroke-linecap:round;stroke-linejoin:miter;stroke-miterlimit:4;stroke-dashoffset:0;stroke-opacity:1" />
      <path
         sodipodi:nodetypes="ccccccccccccscccsccccscccccccccccscccsccccsc"
         id="path5127"
         d="M 595.75452,531.3575 C 590.44903,531.49114 580.92445,535.28033 577.82382,540.23043 C 573.99993,546.43072 574.01141,554.57669 578.59404,558.96216 C 580.997,561.44587 586.66986,565.29063 594.33732,562.22789 C 601.42529,559.76921 605.9689,552.73318 604.01127,547.31645 C 602.20707,541.89105 597.45802,540.10221 593.47467,540.50771 C 590.00637,540.84168 583.96422,546.56521 588.02152,551.59887 C 587.48824,547.20802 591.11584,543.7573 594.64541,543.58859 C 595.79144,543.42434 599.97942,544.49319 601.51576,547.93262 C 602.5267,551.72112 601.72841,555.9438 593.62872,559.85562 C 589.03993,561.42409 584.39656,559.20701 581.64411,556.71312 C 576.49556,551.42932 578.3072,543.93457 580.25771,541.03146 C 583.57815,536.64564 591.09594,534.38543 594.55298,534.31515 C 601.71294,534.16956 606.63754,539.21261 608.60178,543.95829 C 610.10191,547.13798 610.93285,551.49481 610.04979,556.06614 C 607.5322,568.36541 597.9049,575.55933 586.81998,578.92625 C 586.80966,578.92522 586.79877,578.92232 586.78917,578.92625 C 578.97807,582.12179 572.11373,578.33259 562.60428,580.65154 L 558.1062,582.09955 C 545.15316,586.93319 537.13344,596.01244 534.78396,605.20613 C 532.96564,612.84281 532.5958,618.46934 535.76985,626.49499 C 539.3716,633.93534 543.51791,636.45623 551.7596,637.09321 C 556.7683,637.48035 567.36884,633.5312 570.67618,628.25109 C 574.50007,622.0508 574.48857,613.90483 569.90596,609.51936 C 567.503,607.03565 561.83014,603.19089 554.16268,606.25363 C 547.07471,608.7123 542.5311,615.74834 544.48873,621.16507 C 546.29293,626.59047 551.04198,628.41012 555.02533,628.00462 C 558.49363,627.67065 564.53576,621.91631 560.47848,616.88265 C 561.01175,621.2735 557.38416,624.72419 553.85459,624.89293 C 552.70856,625.05718 548.52058,623.98833 546.98424,620.5489 C 545.9733,616.7604 546.77158,612.53773 554.87128,608.6259 C 559.46007,607.05742 564.10342,609.27451 566.8559,611.7684 C 572.00444,617.05219 570.19278,624.54693 568.24229,627.45006 C 564.92185,631.83588 557.40405,634.09606 553.94702,634.16637 C 546.78706,634.31196 541.86246,629.26888 539.89822,624.52323 C 538.39809,621.34353 537.56715,617.01752 538.45021,612.44619 C 540.9678,600.14691 550.5951,592.9222 561.68002,589.55527 C 561.69034,589.5563 561.70101,589.55861 561.71083,589.55527 C 571.52856,586.21633 575.96976,590.57566 585.86491,587.82998 L 590.3938,586.38197 C 603.34683,581.54832 611.36655,572.46908 613.71604,563.27539 C 615.53436,555.63871 615.90419,550.01218 612.73016,541.98653 C 609.1284,534.54618 604.98208,532.02532 596.7404,531.38831 C 596.42736,531.36412 596.10823,531.34859 595.75452,531.3575 z"
         style="opacity:0.27272728;fill:url(#radialGradient5139);fill-opacity:1;stroke:none;stroke-width:0.40000001;stroke-linecap:round;stroke-linejoin:miter;stroke-miterlimit:4;stroke-dashoffset:0;stroke-opacity:1" />
      <path
         sodipodi:nodetypes="ccccccccccccscccsccccscccccccccccscccsccccsc"
         id="path5129"
         d="M 595.67523,531.37781 C 590.36974,531.51145 580.84516,535.30064 577.74453,540.25074 C 573.92064,546.45103 573.93212,554.597 578.51475,558.98247 C 580.91771,561.46618 586.59057,565.31094 594.25803,562.2482 C 601.346,559.78952 605.88961,552.75349 603.93198,547.33676 C 602.12778,541.91136 597.37873,540.12252 593.39538,540.52802 C 589.92708,540.86199 583.88493,546.58552 587.94223,551.61918 C 587.40895,547.22833 591.03655,543.77761 594.56612,543.6089 C 595.71215,543.44465 599.90013,544.5135 601.43647,547.95293 C 602.44741,551.74143 601.64912,555.96411 593.54943,559.87593 C 588.96064,561.4444 584.31727,559.22732 581.56482,556.73343 C 576.41627,551.44963 578.22791,543.95488 580.17842,541.05177 C 583.49886,536.66595 591.01665,534.40574 594.47369,534.33546 C 601.63365,534.18987 606.55825,539.23292 608.52249,543.9786 C 610.02262,547.15829 610.85356,551.51512 609.9705,556.08645 C 607.45291,568.38572 597.82561,575.57964 586.74069,578.94656 C 586.73037,578.94553 586.71948,578.94263 586.70988,578.94656 C 578.89878,582.1421 572.03444,578.3529 562.52499,580.67185 L 558.02691,582.11986 C 545.07387,586.9535 537.05415,596.03275 534.70467,605.22644 C 532.88635,612.86312 532.51651,618.48965 535.69056,626.5153 C 539.29231,633.95565 543.43862,636.47654 551.68031,637.11352 C 556.68901,637.50066 567.28955,633.55151 570.59689,628.2714 C 574.42078,622.07111 574.40928,613.92514 569.82667,609.53967 C 567.42371,607.05596 561.75085,603.2112 554.08339,606.27394 C 546.99542,608.73261 542.45181,615.76865 544.40944,621.18538 C 546.21364,626.61078 550.96269,628.43043 554.94604,628.02493 C 558.41434,627.69096 564.45647,621.93662 560.39919,616.90296 C 560.93246,621.29381 557.30487,624.7445 553.7753,624.91324 C 552.62927,625.07749 548.44129,624.00864 546.90495,620.56921 C 545.89401,616.78071 546.69229,612.55804 554.79199,608.64621 C 559.38078,607.07773 564.02413,609.29482 566.77661,611.78871 C 571.92515,617.0725 570.11349,624.56724 568.163,627.47037 C 564.84256,631.85619 557.32476,634.11637 553.86773,634.18668 C 546.70777,634.33227 541.78317,629.28919 539.81893,624.54354 C 538.3188,621.36384 537.48786,617.03783 538.37092,612.4665 C 540.88851,600.16722 550.51581,592.94251 561.60073,589.57558 C 561.61105,589.57661 561.62172,589.57892 561.63154,589.57558 C 571.44927,586.23664 575.89047,590.59597 585.78562,587.85029 L 590.31451,586.40228 C 603.26754,581.56863 611.28726,572.48939 613.63675,563.2957 C 615.45507,555.65902 615.8249,550.03249 612.65087,542.00684 C 609.04911,534.56649 604.90279,532.04563 596.66111,531.40862 C 596.34807,531.38443 596.02894,531.3689 595.67523,531.37781 z"
         style="opacity:0.40559441;fill:url(#radialGradient5141);fill-opacity:1;stroke:none;stroke-width:0.40000001;stroke-linecap:round;stroke-linejoin:miter;stroke-miterlimit:4;stroke-dashoffset:0;stroke-opacity:1" />
      <path
         sodipodi:nodetypes="ccccccccccccscccsccccscccccccccccscccsccccsc"
         id="path5131"
         d="M 595.67523,531.37781 C 590.36974,531.51145 580.84516,535.30064 577.74453,540.25074 C 573.92064,546.45103 573.93212,554.597 578.51475,558.98247 C 580.91771,561.46618 586.59057,565.31094 594.25803,562.2482 C 601.346,559.78952 605.88961,552.75349 603.93198,547.33676 C 602.12778,541.91136 597.37873,540.12252 593.39538,540.52802 C 589.92708,540.86199 583.88493,546.58552 587.94223,551.61918 C 587.40895,547.22833 591.03655,543.77761 594.56612,543.6089 C 595.71215,543.44465 599.90013,544.5135 601.43647,547.95293 C 602.44741,551.74143 601.64912,555.96411 593.54943,559.87593 C 588.96064,561.4444 584.31727,559.22732 581.56482,556.73343 C 576.41627,551.44963 578.22791,543.95488 580.17842,541.05177 C 583.49886,536.66595 591.01665,534.40574 594.47369,534.33546 C 601.63365,534.18987 606.55825,539.23292 608.52249,543.9786 C 610.02262,547.15829 610.85356,551.51512 609.9705,556.08645 C 607.45291,568.38572 597.82561,575.57964 586.74069,578.94656 C 586.73037,578.94553 586.71948,578.94263 586.70988,578.94656 C 578.89878,582.1421 572.03444,578.3529 562.52499,580.67185 L 558.02691,582.11986 C 545.07387,586.9535 537.05415,596.03275 534.70467,605.22644 C 532.88635,612.86312 532.51651,618.48965 535.69056,626.5153 C 539.29231,633.95565 543.43862,636.47654 551.68031,637.11352 C 556.68901,637.50066 567.28955,633.55151 570.59689,628.2714 C 574.42078,622.07111 574.40928,613.92514 569.82667,609.53967 C 567.42371,607.05596 561.75085,603.2112 554.08339,606.27394 C 546.99542,608.73261 542.45181,615.76865 544.40944,621.18538 C 546.21364,626.61078 550.96269,628.43043 554.94604,628.02493 C 558.41434,627.69096 564.45647,621.93662 560.39919,616.90296 C 560.93246,621.29381 557.30487,624.7445 553.7753,624.91324 C 552.62927,625.07749 548.44129,624.00864 546.90495,620.56921 C 545.89401,616.78071 546.69229,612.55804 554.79199,608.64621 C 559.38078,607.07773 564.02413,609.29482 566.77661,611.78871 C 571.92515,617.0725 570.11349,624.56724 568.163,627.47037 C 564.84256,631.85619 557.32476,634.11637 553.86773,634.18668 C 546.70777,634.33227 541.78317,629.28919 539.81893,624.54354 C 538.3188,621.36384 537.48786,617.03783 538.37092,612.4665 C 540.88851,600.16722 550.51581,592.94251 561.60073,589.57558 C 561.61105,589.57661 561.62172,589.57892 561.63154,589.57558 C 571.44927,586.23664 575.89047,590.59597 585.78562,587.85029 L 590.31451,586.40228 C 603.26754,581.56863 611.28726,572.48939 613.63675,563.2957 C 615.45507,555.65902 615.8249,550.03249 612.65087,542.00684 C 609.04911,534.56649 604.90279,532.04563 596.66111,531.40862 C 596.34807,531.38443 596.02894,531.3689 595.67523,531.37781 z"
         style="opacity:0.59440559;fill:url(#radialGradient5143);fill-opacity:1;stroke:none;stroke-width:0.40000001;stroke-linecap:round;stroke-linejoin:miter;stroke-miterlimit:4;stroke-dashoffset:0;stroke-opacity:1" />
    </g>
    <path
       style="opacity:1;fill:#a8b023;fill-opacity:1;stroke:none;stroke-width:0.40000001;stroke-linecap:round;stroke-linejoin:miter;stroke-miterlimit:4;stroke-dasharray:none;stroke-dashoffset:0;stroke-opacity:1"
       d="M 123.26257,715.1507 C 117.57923,715.1507 113.02709,719.76358 112.96667,725.4466 C 112.86954,734.67972 122.42077,740.79829 129.47896,744.7757 C 136.83147,740.78052 147.97152,734.62407 147.73962,726.02939 C 147.58632,720.34812 143.12706,715.73349 137.44372,715.73349 C 134.84082,715.73349 132.458,716.68843 130.64454,718.28318 C 128.77295,716.35422 126.1605,715.1507 123.26257,715.1507 z"
       id="path5145"
       sodipodi:nodetypes="cscsscc"
       inkscape:export-filename="/media/sdb1/Glamour/2dgame/art/scenario/omni/gate/0.png"
       inkscape:export-xdpi="90"
       inkscape:export-ydpi="90" />
    <path
       style="opacity:1;fill:url(#linearGradient5185);fill-opacity:1;stroke:none;stroke-width:0.40000001;stroke-linecap:round;stroke-linejoin:miter;stroke-miterlimit:4;stroke-dasharray:none;stroke-dashoffset:0;stroke-opacity:1"
       d="M 123.25116,715.21757 C 117.56782,715.21757 113.01568,719.83045 112.95526,725.51347 C 112.85813,734.74659 122.40936,740.86516 129.46755,744.84257 C 136.82006,740.84739 147.96011,734.69094 147.72821,726.09626 C 147.57491,720.41499 143.11565,715.80036 137.43231,715.80036 C 134.82941,715.80036 132.44659,716.7553 130.63313,718.35005 C 128.76154,716.42109 126.14909,715.21757 123.25116,715.21757 z"
       id="path5153"
       sodipodi:nodetypes="cscsscc"
       inkscape:export-filename="/media/sdb1/Glamour/2dgame/art/scenario/omni/gate/0.png"
       inkscape:export-xdpi="90"
       inkscape:export-ydpi="90" />
    <path
       style="opacity:0.60489514;fill:url(#linearGradient5197);fill-opacity:1;stroke:none;stroke-width:0.40000001;stroke-linecap:round;stroke-linejoin:miter;stroke-miterlimit:4;stroke-dasharray:none;stroke-dashoffset:0;stroke-opacity:1"
       d="M 123.28626,715.23855 C 117.60292,715.23855 113.05078,719.85143 112.99036,725.53445 C 112.89323,734.76757 122.44446,740.88614 129.50265,744.86355 C 136.85516,740.86837 147.99521,734.71192 147.76331,726.11724 C 147.61001,720.43597 143.15075,715.82134 137.46741,715.82134 C 134.86451,715.82134 132.48169,716.77628 130.66823,718.37103 C 128.79664,716.44207 126.18419,715.23855 123.28626,715.23855 z"
       id="path5187"
       sodipodi:nodetypes="cscsscc"
       inkscape:export-filename="/media/sdb1/Glamour/2dgame/art/scenario/omni/gate/0.png"
       inkscape:export-xdpi="90"
       inkscape:export-ydpi="90" />
    <g
       id="g5312"
       transform="matrix(1.1606693,0,0,1.1606693,-29.733864,-67.374262)">
      <path
         transform="matrix(0.8024992,0,0,0.8024992,125.51643,83.57634)"
         id="path5248"
         d="M 424.88208,435.92984 C 423.3439,436.01213 421.81619,436.48333 420.48286,437.43907 C 419.38624,438.38665 418.40812,439.31584 417.52864,440.23273 C 413.98503,443.92709 412.00329,447.37942 409.88621,450.60461 C 408.56496,452.61742 407.18782,454.53974 405.35854,456.38459 C 404.9927,456.75357 404.60834,457.11386 404.20255,457.47637 C 400.56845,460.0009 398.16871,460.98286 395.85367,462.26092 C 394.93464,462.7683 394.026,463.34473 393.06001,464.05914 C 392.57227,464.41986 392.07828,464.82187 391.55079,465.27936 C 391.54402,465.28524 391.52546,465.27348 391.51868,465.27936 L 392.28934,468.65102 C 392.30013,468.65174 392.31066,468.65031 392.32146,468.65102 C 393.12224,468.70403 393.91064,468.74712 394.69767,468.77947 C 394.70828,468.77992 394.71918,468.77904 394.72978,468.77947 C 395.51647,468.81156 396.29826,468.82817 397.07389,468.84369 C 398.65728,468.87578 400.20798,468.88761 401.76211,468.87581 C 404.83856,468.85206 407.88285,468.77516 410.97798,468.77947 C 412.91293,468.6478 414.56443,468.26863 416.2442,467.59136 C 417.23847,467.19226 418.2249,466.67406 419.32686,466.05003 C 420.81441,465.2062 422.49637,464.1778 424.49674,462.87104 C 426.47841,461.57661 428.81831,460.02495 431.65751,458.21493 L 431.65751,467.52714 C 431.66416,467.53251 431.68283,467.52184 431.68963,467.52714 C 431.80905,467.62006 431.94717,467.7137 432.10707,467.78402 C 432.11606,467.78811 432.13008,467.78002 432.13918,467.78402 C 432.30125,467.85324 432.4622,467.92953 432.65296,467.97669 C 432.66342,467.97936 432.67454,467.97409 432.68506,467.97669 C 432.87783,468.02297 433.0855,468.08047 433.29518,468.10514 C 433.52541,468.13346 433.76477,468.13439 434.00162,468.13725 C 434.89459,468.14374 435.75891,467.98383 436.21729,467.65559 C 436.22486,467.65039 436.24204,467.66085 436.24939,467.65559 C 437.19915,462.29264 438.72651,458.93401 440.16694,456.28826 C 441.42732,453.97324 442.61825,452.18302 443.28172,450.02661 C 443.3765,449.71854 443.4666,449.42112 443.53861,449.09539 C 443.9933,447.03613 443.57883,444.26166 442.38261,442.89794 C 442.30334,442.8062 442.2442,442.71971 442.15783,442.64106 C 442.15142,442.63532 442.13217,442.64672 442.12572,442.64106 C 442.0395,442.56389 441.96201,442.47922 441.86883,442.41629 C 441.86115,442.41058 441.84445,442.4219 441.83672,442.41629 C 441.68752,442.30556 441.54739,442.20394 441.38716,442.12729 C 441.37791,442.12297 441.36435,442.13149 441.35506,442.12729 C 441.19536,442.05276 441.0392,441.97856 440.87339,441.93462 C 440.86337,441.93206 440.8513,441.93706 440.84128,441.93462 C 440.67566,441.89246 440.49442,441.85308 440.32751,441.83829 C 440.31645,441.83741 440.30645,441.83905 440.29539,441.83829 C 439.41064,441.76813 438.56136,442.0742 438.04761,442.51262 C 436.80377,443.53534 435.93563,444.45171 434.83651,445.40261 C 434.48096,445.71022 434.11017,446.01044 433.68051,446.33384 C 433.69873,444.51512 433.5084,443.0441 433.13462,441.54929 C 433.00925,441.04792 432.85983,440.52638 432.68506,440.00795 C 432.39815,439.29969 431.92723,438.66859 431.33641,438.1134 C 431.1483,437.93529 430.97122,437.75925 430.75841,437.59962 C 430.75127,437.59431 430.73344,437.60491 430.72629,437.59962 C 430.51309,437.44085 430.28657,437.28899 430.05196,437.15007 C 430.04394,437.14536 430.02788,437.15475 430.01985,437.15007 C 429.78472,437.01191 429.56668,436.84953 429.31341,436.73262 C 429.30461,436.72859 429.29011,436.73662 429.28129,436.73262 C 429.02759,436.61653 428.74714,436.50496 428.47851,436.41151 C 428.46853,436.40807 428.45641,436.41492 428.44641,436.41151 C 428.17798,436.3191 427.92371,436.2552 427.64363,436.18674 C 427.63369,436.18434 427.62147,436.18909 427.61152,436.18674 C 427.33057,436.11907 427.03395,436.03628 426.74452,435.99407 C 426.73386,435.99254 426.72307,435.99555 426.71241,435.99407 C 426.42316,435.95284 426.13992,435.94428 425.84541,435.92984 C 425.83488,435.92937 425.82384,435.93029 425.8133,435.92984 C 425.50781,435.91594 425.18972,435.91339 424.88208,435.92984 z"
         style="opacity:0.22027971;fill:#000000;fill-opacity:1;stroke:none;stroke-width:0.40000001;stroke-linecap:round;stroke-linejoin:miter;stroke-miterlimit:4;stroke-dashoffset:0;stroke-opacity:1;filter:url(#filter5277)" />
      <g
         transform="matrix(0.5303679,0,0,0.5303679,173.05237,240.00983)"
         id="g5234">
        <path
           style="opacity:1;fill:#e47373;fill-opacity:1;stroke:none;stroke-width:0.40000001;stroke-linecap:round;stroke-linejoin:miter;stroke-miterlimit:4;stroke-dashoffset:0;stroke-opacity:1"
           d="M 546.19683,366.93562 C 552.51711,362.40523 562.02355,365.2221 564.26733,370.76078 C 565.3028,373.83259 565.73726,376.54294 565.69666,380.16571 C 568.33788,378.1872 569.75556,376.48336 572.21224,374.46341 C 573.42988,373.42431 575.98866,372.94098 577.84787,374.32069 C 580.23371,375.89505 581.09965,380.74023 580.33332,384.21088 C 578.62656,391.93119 572.35189,395.80355 569.53811,411.6919 C 568.1638,412.67605 564.22622,412.70943 562.76352,411.52929 L 562.74844,397.68035 C 545.80592,408.47787 541.26573,412.73721 532.14262,413.35801 C 522.94093,413.34522 514.05816,413.81081 504.43814,413.17051 L 503.30753,408.18342 C 509.55224,402.75696 513.46966,402.61187 522.08281,396.62853 C 531.70051,388.03636 533.12537,378.23062 546.19683,366.93562 z"
           id="rect5199"
           sodipodi:nodetypes="cccccccccccccc" />
        <path
           style="opacity:1;fill:url(#linearGradient5321);fill-opacity:1;stroke:none;stroke-width:0.40000001;stroke-linecap:round;stroke-linejoin:miter;stroke-miterlimit:4;stroke-dashoffset:0;stroke-opacity:1"
           d="M 568.78898,377.80282 C 569.90865,376.74929 570.9853,375.69694 572.45017,374.59086 C 573.4291,373.70235 575.61215,373.34893 576.94493,374.29998 C 577.84649,375.17297 577.02934,377.37178 576.22097,378.6867 C 574.71837,380.45138 573.03898,382.76036 571.53638,384.08445 C 569.76228,385.90736 567.18789,387.94408 564.8354,389.0762 L 565.73959,380.32795 C 566.76148,379.48471 567.72141,378.73896 568.78898,377.80282 z"
           id="rect5202"
           sodipodi:nodetypes="cccccccc" />
        <path
           style="opacity:0.2132867;fill:url(#linearGradient5323);fill-opacity:1;stroke:none;stroke-width:0.40000001;stroke-linecap:round;stroke-linejoin:miter;stroke-miterlimit:4;stroke-dashoffset:0;stroke-opacity:1"
           d="M 563.03661,397.5604 C 567.67063,393.27215 572.20108,395.16581 577.96339,389.64251 C 574.94016,396.27735 571.84973,398.67986 569.43889,411.59638 C 567.15959,412.46192 564.98016,412.69498 563.05285,411.33122 L 563.03661,397.5604 z"
           id="rect5213"
           sodipodi:nodetypes="ccccc" />
        <path
           style="opacity:0.60489514;fill:url(#linearGradient5325);fill-opacity:1;stroke:none;stroke-width:0.40000001;stroke-linecap:round;stroke-linejoin:miter;stroke-miterlimit:4;stroke-dashoffset:0;stroke-opacity:1"
           d="M 546.23809,366.93674 C 552.55837,362.40635 562.06481,365.22322 564.30859,370.7619 C 565.34406,373.83371 565.77852,376.54406 565.73792,380.16683 C 568.37914,378.18832 569.79682,376.48448 572.2535,374.46453 C 573.47114,373.42543 576.02992,372.9421 577.88913,374.32181 C 580.27497,375.89617 581.14091,380.74135 580.37458,384.212 C 578.66782,391.93231 572.39315,395.80467 569.57937,411.69302 C 568.20506,412.67717 564.26748,412.71055 562.80478,411.53041 L 562.7897,397.68147 C 545.84718,408.47899 541.30699,412.73833 532.18388,413.35913 C 522.98219,413.34634 514.09942,413.81193 504.4794,413.17163 L 503.34879,408.18454 C 509.5935,402.75808 513.51092,402.61299 522.12407,396.62965 C 531.74177,388.03748 533.16663,378.23174 546.23809,366.93674 z"
           id="path5224"
           sodipodi:nodetypes="cccccccccccccc" />
      </g>
      <path
         id="path5283"
         d="M 469.8228,434.14106 C 470.09491,435.38931 470.2603,436.68661 470.2603,438.01606 C 470.26032,448.02107 462.1403,456.14106 452.1353,456.14106 C 449.05916,456.14106 446.17384,455.37004 443.6353,454.01606 C 443.19692,454.25223 442.75804,454.49161 442.3228,454.76606 C 441.95685,454.99682 441.5805,455.26357 441.1978,455.54731 C 440.82074,455.82759 440.41779,456.16196 440.0103,456.51606 L 440.60405,459.14106 C 440.61466,459.14177 440.62469,459.14036 440.6353,459.14106 C 441.89982,459.22465 443.12891,459.2728 444.35405,459.29731 C 448.06075,459.37262 451.63219,459.23055 455.29155,459.23481 C 457.10603,459.11134 458.59188,458.73212 460.1978,457.98481 C 460.72529,457.73934 461.28097,457.43421 461.85405,457.10981 C 462.43656,456.77937 463.06415,456.40258 463.72905,455.98481 C 464.38714,455.57131 465.1122,455.11472 465.8853,454.60981 C 467.45027,453.58757 469.29511,452.35397 471.54155,450.92231 L 471.54155,458.26606 C 471.63852,458.3443 471.75253,458.42641 471.8853,458.48481 C 471.89344,458.48852 471.90829,458.48118 471.91655,458.48481 C 472.04271,458.53835 472.17468,458.60444 472.3228,458.64106 C 472.33274,458.64361 472.34403,458.63858 472.35405,458.64106 C 472.5036,458.67666 472.66039,458.68446 472.8228,458.70356 C 472.83341,458.70488 472.8434,458.70231 472.85405,458.70356 C 472.86423,458.70469 472.87509,458.70249 472.8853,458.70356 C 473.22243,458.741 473.55207,458.76495 473.8853,458.73481 C 474.40008,458.68825 474.86197,458.55554 475.1353,458.35981 C 476.4411,450.98647 479.15275,448.48619 480.41655,445.23481 C 480.50682,445.00257 480.59209,444.78933 480.66655,444.54731 C 480.74101,444.30529 480.82872,444.05322 480.8853,443.79731 C 480.9361,443.56722 480.95518,443.32662 480.97905,443.07856 C 481.00292,442.8305 481.01314,442.55371 481.0103,442.29731 C 480.99611,441.01529 480.64337,439.69117 479.97905,438.92231 C 479.84619,438.76854 479.69972,438.65168 479.54155,438.54731 C 479.40686,438.44735 479.28108,438.36216 479.1353,438.29731 C 479.01189,438.23972 478.88838,438.20664 478.7603,438.17231 C 478.74993,438.16967 478.73944,438.17481 478.72905,438.17231 C 478.60143,438.13982 478.48269,438.12159 478.35405,438.10981 C 478.34336,438.10896 478.33349,438.11052 478.3228,438.10981 C 477.62772,438.0547 476.94518,438.26537 476.54155,438.60981 C 476.22358,438.87193 475.9367,439.14427 475.66655,439.39106 C 475.11534,439.8946 474.61722,440.39302 474.04155,440.89106 C 473.75865,441.13523 473.44719,441.38402 473.10405,441.64106 C 473.10957,441.14882 473.10148,440.70614 473.0728,440.26606 C 473.07006,440.22263 473.07588,440.1841 473.0728,440.14106 C 473.01402,439.34234 472.8826,438.59884 472.6978,437.85981 C 472.59931,437.46592 472.49134,437.04836 472.35405,436.64106 C 472.27967,436.45746 472.17592,436.28153 472.0728,436.10981 C 471.96576,435.93155 471.86409,435.77395 471.72905,435.60981 C 471.60451,435.45683 471.46907,435.31204 471.3228,435.17231 C 471.31706,435.16687 471.29732,435.17772 471.29155,435.17231 C 471.14481,435.03337 470.98868,434.89069 470.8228,434.76606 C 470.816,434.761 470.79838,434.7711 470.79155,434.76606 C 470.62525,434.64222 470.47444,434.49954 470.29155,434.39106 C 470.28368,434.38643 470.2682,434.39566 470.2603,434.39106 C 470.1169,434.3068 469.97269,434.21906 469.8228,434.14106 z"
         style="opacity:0.05594405;fill:#000000;fill-opacity:1;stroke:none;stroke-width:0.40000001;stroke-linecap:round;stroke-linejoin:miter;stroke-miterlimit:4;stroke-dashoffset:0;stroke-opacity:1" />
    </g>
  </g>
</svg>
