<?xml version="1.0" encoding="UTF-8" standalone="no"?>
<!-- Created with Inkscape (http://www.inkscape.org/) -->

<svg
   xmlns:dc="http://purl.org/dc/elements/1.1/"
   xmlns:cc="http://creativecommons.org/ns#"
   xmlns:rdf="http://www.w3.org/1999/02/22-rdf-syntax-ns#"
   xmlns:svg="http://www.w3.org/2000/svg"
   xmlns="http://www.w3.org/2000/svg"
   xmlns:xlink="http://www.w3.org/1999/xlink"
   xmlns:sodipodi="http://sodipodi.sourceforge.net/DTD/sodipodi-0.dtd"
   xmlns:inkscape="http://www.inkscape.org/namespaces/inkscape"
   width="1440"
   height="900"
   id="svg8146"
   version="1.1"
   inkscape:version="0.48.0 r9654"
   sodipodi:docname="dancing.svg.2011_01_08_16_25_10.1.svg">
  <defs
     id="defs8148">
    <linearGradient
       inkscape:collect="always"
       id="linearGradient8696">
      <stop
         style="stop-color:#000000;stop-opacity:1;"
         offset="0"
         id="stop8698" />
      <stop
         style="stop-color:#000000;stop-opacity:0;"
         offset="1"
         id="stop8700" />
    </linearGradient>
    <filter
       inkscape:collect="always"
       id="filter8690">
      <feGaussianBlur
         inkscape:collect="always"
         stdDeviation="29.25"
         id="feGaussianBlur8692" />
    </filter>
    <linearGradient
       inkscape:collect="always"
       xlink:href="#linearGradient8696"
       id="linearGradient8702"
       x1="242.26411"
       y1="664.46362"
       x2="121.95987"
       y2="664.46362"
       gradientUnits="userSpaceOnUse"
       gradientTransform="translate(-1441.0298,0)" />
    <linearGradient
       inkscape:collect="always"
       xlink:href="#linearGradient8696"
       id="linearGradient8706"
       gradientUnits="userSpaceOnUse"
       x1="242.26411"
       y1="664.46362"
       x2="160.22046"
       y2="664.46362"
       gradientTransform="matrix(1.9895383,0,0,1,-488.22462,0)" />
    <linearGradient
       inkscape:collect="always"
       xlink:href="#linearGradient8696"
       id="linearGradient8710"
       gradientUnits="userSpaceOnUse"
       x1="242.26411"
       y1="664.46362"
       x2="121.95987"
       y2="664.46362" />
    <linearGradient
       inkscape:collect="always"
       xlink:href="#linearGradient8696-0"
       id="linearGradient8706-5"
       gradientUnits="userSpaceOnUse"
       x1="242.26411"
       y1="664.46362"
       x2="160.22046"
       y2="664.46362"
       gradientTransform="matrix(1.9895383,0,0,1,-488.22462,0)" />
    <linearGradient
       inkscape:collect="always"
       id="linearGradient8696-0">
      <stop
         style="stop-color:#000000;stop-opacity:1;"
         offset="0"
         id="stop8698-9" />
      <stop
         style="stop-color:#000000;stop-opacity:0;"
         offset="1"
         id="stop8700-9" />
    </linearGradient>
    <linearGradient
       y2="664.46362"
       x2="160.22046"
       y1="664.46362"
       x1="242.26411"
       gradientTransform="matrix(1.9895383,0,0,1,951.77543,-1204.7244)"
       gradientUnits="userSpaceOnUse"
       id="linearGradient8727"
       xlink:href="#linearGradient8696-0"
       inkscape:collect="always" />
    <filter
       inkscape:collect="always"
       id="filter8766">
      <feGaussianBlur
         inkscape:collect="always"
         stdDeviation="12.310771"
         id="feGaussianBlur8768" />
    </filter>
  </defs>
  <sodipodi:namedview
     id="base"
     pagecolor="#ffffff"
     bordercolor="#666666"
     borderopacity="1.0"
     inkscape:pageopacity="0.0"
     inkscape:pageshadow="2"
     inkscape:zoom="0.60917179"
     inkscape:cx="961.41493"
     inkscape:cy="-766.29497"
     inkscape:document-units="px"
     inkscape:current-layer="layer1"
     showgrid="false"
     inkscape:window-width="1280"
     inkscape:window-height="748"
     inkscape:window-x="0"
     inkscape:window-y="25"
     inkscape:window-maximized="1" />
  <metadata
     id="metadata8151">
    <rdf:RDF>
      <cc:Work
         rdf:about="">
        <dc:format>image/svg+xml</dc:format>
        <dc:type
           rdf:resource="http://purl.org/dc/dcmitype/StillImage" />
        <dc:title />
      </cc:Work>
    </rdf:RDF>
  </metadata>
  <g
     inkscape:label="Camada 1"
     inkscape:groupmode="layer"
     id="layer1"
     transform="translate(0,-152.36218)">
    <rect
       style="color:#000000;fill:#0000ff;fill-opacity:1;fill-rule:nonzero;stroke:none;stroke-width:40;marker:none;visibility:visible;display:inline;overflow:visible;enable-background:accumulate"
       id="rect9180"
       width="249.49347"
       height="249.49347"
       x="588.2218"
       y="1423.8707" />
    <image
       y="152.36218"
       x="0"
       id="image8162"
       xlink:href="file:///home/isac/Documents/Ocastudios/Glamour/2d/game/delivery/data/images/interface/ball/newball/base.png"
       height="900"
       width="1440"
       inkscape:export-filename="/home/isac/Documents/Ocastudios/Glamour/2d/game/delivery/data/images/interface/ball/newball/done.png"
       inkscape:export-xdpi="90"
       inkscape:export-ydpi="90" />
    <path
       style="opacity:0.07999998;color:#000000;fill:#000000;fill-opacity:1;fill-rule:nonzero;stroke:none;stroke-width:1.60000002;marker:none;visibility:visible;display:inline;overflow:visible;filter:url(#filter8690);enable-background:accumulate"
       d="m 265.8835,152.36218 0,900.00002 1440.0001,0 0,-900.00002 -1440.0001,0 z m 720.00003,82.125 c 203.16697,0 367.87507,164.70808 367.87507,367.875 0,203.16692 -164.7081,367.875 -367.87507,367.875 -203.16693,0 -367.87503,-164.70808 -367.87503,-367.875 0,-203.16692 164.7081,-367.875 367.87503,-367.875 z"
       id="rect8165"
       inkscape:connector-curvature="0"
       transform="matrix(0.59878091,0,0,0.8716884,-1881.9856,73.89357)" />
    <rect
       style="opacity:0.3;color:#000000;fill:url(#linearGradient8710);fill-opacity:1;fill-rule:nonzero;stroke:none;stroke-width:1.60000002;marker:none;visibility:visible;display:inline;overflow:visible;enable-background:accumulate"
       id="rect8708"
       width="125.65729"
       height="900"
       x="119.73864"
       y="152.36218" />
    <rect
       y="152.36218"
       x="-250"
       height="900"
       width="250"
       id="rect8704"
       style="opacity:0.50000000000000000;color:#000000;fill:url(#linearGradient8706);fill-opacity:1;fill-rule:nonzero;stroke:none;stroke-width:1.60000001999999997;marker:none;visibility:visible;display:inline;overflow:visible;enable-background:accumulate"
       transform="scale(-1,1)" />
    <rect
       style="opacity:0.3;color:#000000;fill:url(#linearGradient8702);fill-opacity:1;fill-rule:nonzero;stroke:none;stroke-width:1.60000002;marker:none;visibility:visible;display:inline;overflow:visible;enable-background:accumulate"
       id="rect8694"
       width="125.65729"
       height="900"
       x="-1321.2914"
       y="152.36218"
       transform="scale(-1,1)" />
    <rect
       y="-1052.3622"
       x="1190"
       height="900"
       width="250"
       id="rect8704-8"
       style="opacity:0.5;color:#000000;fill:url(#linearGradient8727);fill-opacity:1;fill-rule:nonzero;stroke:none;stroke-width:1.60000002;marker:none;visibility:visible;display:inline;overflow:visible;enable-background:accumulate"
       transform="scale(1,-1)" />
    <path
       transform="matrix(1.0888977,0,0,1.0888977,-27.596061,128.02269)"
       d="m 994.33154,435.61438 c 0,169.97628 -137.793,307.76929 -307.76928,307.76929 -169.97629,0 -307.76929,-137.79301 -307.76929,-307.76929 0,-169.97628 137.793,-307.76929 307.76929,-307.76929 169.97628,0 307.76928,137.79301 307.76928,307.76929 z"
       sodipodi:ry="307.76929"
       sodipodi:rx="307.76929"
       sodipodi:cy="435.61438"
       sodipodi:cx="686.56226"
       id="path8770"
       style="opacity:0.15;color:#000000;fill:none;stroke:#ffff00;stroke-width:40;stroke-miterlimit:4;stroke-dasharray:none;marker:none;visibility:visible;display:inline;overflow:visible;filter:url(#filter8766);enable-background:accumulate"
       sodipodi:type="arc" />
    <path
       transform="matrix(0.89522395,0,0,0.89522395,458.67032,-64.420486)"
       d="m 994.33154,435.61438 c 0,169.97628 -137.793,307.76929 -307.76928,307.76929 -169.97629,0 -307.76929,-137.79301 -307.76929,-307.76929 0,-169.97628 137.793,-307.76929 307.76929,-307.76929 169.97628,0 307.76928,137.79301 307.76928,307.76929 z"
       sodipodi:ry="307.76929"
       sodipodi:rx="307.76929"
       sodipodi:cy="435.61438"
       sodipodi:cx="686.56226"
       id="path8772"
       style="opacity:0.15;color:#000000;fill:none;stroke:#ffff00;stroke-width:40;stroke-miterlimit:4;stroke-dasharray:none;marker:none;visibility:visible;display:inline;overflow:visible;filter:url(#filter8766);enable-background:accumulate"
       sodipodi:type="arc" />
    <path
       transform="matrix(0.67606681,0,0,0.67606681,465.26685,703.04083)"
       d="m 994.33154,435.61438 c 0,169.97628 -137.793,307.76929 -307.76928,307.76929 -169.97629,0 -307.76929,-137.79301 -307.76929,-307.76929 0,-169.97628 137.793,-307.76929 307.76929,-307.76929 169.97628,0 307.76928,137.79301 307.76928,307.76929 z"
       sodipodi:ry="307.76929"
       sodipodi:rx="307.76929"
       sodipodi:cy="435.61438"
       sodipodi:cx="686.56226"
       id="path8774"
       style="opacity:0.15;color:#000000;fill:none;stroke:#ffff00;stroke-width:40;stroke-miterlimit:4;stroke-dasharray:none;marker:none;visibility:visible;display:inline;overflow:visible;filter:url(#filter8766);enable-background:accumulate"
       sodipodi:type="arc" />
    <path
       transform="matrix(0.65058342,0,0,0.65058342,947.1484,632.19136)"
       d="m 994.33154,435.61438 c 0,169.97628 -137.793,307.76929 -307.76928,307.76929 -169.97629,0 -307.76929,-137.79301 -307.76929,-307.76929 0,-169.97628 137.793,-307.76929 307.76929,-307.76929 169.97628,0 307.76928,137.79301 307.76928,307.76929 z"
       sodipodi:ry="307.76929"
       sodipodi:rx="307.76929"
       sodipodi:cy="435.61438"
       sodipodi:cx="686.56226"
       id="path8776"
       style="opacity:0.15;color:#000000;fill:none;stroke:#ffff00;stroke-width:40;stroke-miterlimit:4;stroke-dasharray:none;marker:none;visibility:visible;display:inline;overflow:visible;filter:url(#filter8766);enable-background:accumulate"
       sodipodi:type="arc" />
    <path
       transform="matrix(0.64548674,0,0,0.64548674,-362.37999,111.75009)"
       d="m 994.33154,435.61438 c 0,169.97628 -137.793,307.76929 -307.76928,307.76929 -169.97629,0 -307.76929,-137.79301 -307.76929,-307.76929 0,-169.97628 137.793,-307.76929 307.76929,-307.76929 169.97628,0 307.76928,137.79301 307.76928,307.76929 z"
       sodipodi:ry="307.76929"
       sodipodi:rx="307.76929"
       sodipodi:cy="435.61438"
       sodipodi:cx="686.56226"
       id="path8778"
       style="opacity:0.15;color:#000000;fill:none;stroke:#ffff00;stroke-width:40;stroke-miterlimit:4;stroke-dasharray:none;marker:none;visibility:visible;display:inline;overflow:visible;filter:url(#filter8766);enable-background:accumulate"
       sodipodi:type="arc" />
    <path
       transform="matrix(0.53845651,0,0,0.53845651,69.863582,-153.03754)"
       d="m 994.33154,435.61438 c 0,169.97628 -137.793,307.76929 -307.76928,307.76929 -169.97629,0 -307.76929,-137.79301 -307.76929,-307.76929 0,-169.97628 137.793,-307.76929 307.76929,-307.76929 169.97628,0 307.76928,137.79301 307.76928,307.76929 z"
       sodipodi:ry="307.76929"
       sodipodi:rx="307.76929"
       sodipodi:cy="435.61438"
       sodipodi:cx="686.56226"
       id="path8780"
       style="opacity:0.15;color:#000000;fill:none;stroke:#ffff00;stroke-width:40;stroke-miterlimit:4;stroke-dasharray:none;marker:none;visibility:visible;display:inline;overflow:visible;filter:url(#filter8766);enable-background:accumulate"
       sodipodi:type="arc" />
    <path
       transform="matrix(0.71174355,0,0,0.71174355,-435.18622,638.32929)"
       d="m 994.33154,435.61438 c 0,169.97628 -137.793,307.76929 -307.76928,307.76929 -169.97629,0 -307.76929,-137.79301 -307.76929,-307.76929 0,-169.97628 137.793,-307.76929 307.76929,-307.76929 169.97628,0 307.76928,137.79301 307.76928,307.76929 z"
       sodipodi:ry="307.76929"
       sodipodi:rx="307.76929"
       sodipodi:cy="435.61438"
       sodipodi:cx="686.56226"
       id="path8782"
       style="opacity:0.15;color:#000000;fill:none;stroke:#ffff00;stroke-width:40;stroke-miterlimit:4;stroke-dasharray:none;marker:none;visibility:visible;display:inline;overflow:visible;filter:url(#filter8766);enable-background:accumulate"
       sodipodi:type="arc" />
    <path
       sodipodi:type="arc"
       style="opacity:0.1;color:#000000;fill:none;stroke:#ffff00;stroke-width:40;stroke-miterlimit:4;stroke-dasharray:none;marker:none;visibility:visible;display:inline;overflow:visible;filter:url(#filter8766);enable-background:accumulate"
       id="path8748"
       sodipodi:cx="686.56226"
       sodipodi:cy="435.61438"
       sodipodi:rx="307.76929"
       sodipodi:ry="307.76929"
       d="m 994.33154,435.61438 c 0,169.97628 -137.793,307.76929 -307.76928,307.76929 -169.97629,0 -307.76929,-137.79301 -307.76929,-307.76929 0,-169.97628 137.793,-307.76929 307.76929,-307.76929 169.97628,0 307.76928,137.79301 307.76928,307.76929 z"
       transform="matrix(0.49258641,0,0,0.49258641,92.250658,688.26929)" />
    <path
       transform="matrix(1.2352941,0,0,1.2352941,-165.7487,999.63236)"
       d="m 772.1549,439.25662 c 0,17.09821 -13.86083,30.95904 -30.95904,30.95904 -17.0982,0 -30.95904,-13.86083 -30.95904,-30.95904 0,-17.0982 13.86084,-30.95904 30.95904,-30.95904 17.09821,0 30.95904,13.86084 30.95904,30.95904 z"
       sodipodi:ry="30.959042"
       sodipodi:rx="30.959042"
       sodipodi:cy="439.25662"
       sodipodi:cx="741.19586"
       id="path9178"
       style="color:#000000;fill:#550000;fill-opacity:1;fill-rule:nonzero;stroke:none;stroke-width:40;marker:none;visibility:visible;display:inline;overflow:visible;enable-background:accumulate"
       sodipodi:type="arc" />
    <path
       sodipodi:type="arc"
       style="color:#000000;fill:#550000;fill-opacity:1;fill-rule:nonzero;stroke:none;stroke-width:40;marker:none;visibility:visible;display:inline;overflow:visible;enable-background:accumulate"
       id="path9176"
       sodipodi:cx="741.19586"
       sodipodi:cy="439.25662"
       sodipodi:rx="30.959042"
       sodipodi:ry="30.959042"
       d="m 772.1549,439.25662 c 0,17.09821 -13.86083,30.95904 -30.95904,30.95904 -17.0982,0 -30.95904,-13.86083 -30.95904,-30.95904 0,-17.0982 13.86084,-30.95904 30.95904,-30.95904 17.09821,0 30.95904,13.86084 30.95904,30.95904 z"
       transform="matrix(1.2352941,0,0,1.2352941,-251.56898,999.63236)" />
    <path
       sodipodi:nodetypes="ccccc"
       inkscape:connector-curvature="0"
       id="path9189"
       d="m 673.58677,1511.436 33.64162,-30.0476 c 10.24644,-9.0673 28.64515,7.2746 12.0501,19.2289 l -35.09137,22.7321 z"
       style="color:#000000;fill:#d40000;fill-opacity:1;fill-rule:nonzero;stroke:none;stroke-width:40;marker:none;visibility:visible;display:inline;overflow:visible;enable-background:accumulate" />
    <path
       style="color:#000000;fill:#00ffff;fill-opacity:1;fill-rule:nonzero;stroke:none;stroke-width:40;marker:none;visibility:visible;display:inline;overflow:visible;enable-background:accumulate"
       d="m 747.79316,1511.436 -33.64162,-30.0476 c -10.24644,-9.0673 -28.64515,7.2746 -12.0501,19.2289 l 35.09137,22.7321 z"
       id="path9187"
       inkscape:connector-curvature="0"
       sodipodi:nodetypes="ccccc" />
    <path
       sodipodi:nodetypes="ccccc"
       inkscape:connector-curvature="0"
       id="path9185"
       d="m 834.52825,1507.6422 -31.41432,-23.2193 0,25.0404 19.57704,13.2032 z"
       style="color:#000000;fill:#00ff00;fill-opacity:1;fill-rule:nonzero;stroke:none;stroke-width:40;marker:none;visibility:visible;display:inline;overflow:visible;enable-background:accumulate" />
    <path
       style="color:#000000;fill:#d40000;fill-opacity:1;fill-rule:nonzero;stroke:none;stroke-width:40;marker:none;visibility:visible;display:inline;overflow:visible;enable-background:accumulate"
       d="m 684.96877,1562.8449 c 13.27118,4.1987 21.19986,0.2252 30.50376,-5.0082 l 13.43076,14.9104 c -18.87807,11.2657 -40.70406,8.5962 -54.6336,1.8213 z"
       id="rect9182"
       inkscape:connector-curvature="0"
       sodipodi:nodetypes="ccccc" />
    <image
       y="1348.6982"
       x="390.95343"
       id="image9218"
       xlink:href="file:///home/isac/Documents/Ocastudios/Glamour/2d/game/delivery/data/images/interface/ball/boyfriends/baron_serious/0.png"
       height="348.84705"
       width="279.07764" />
    <path
       sodipodi:nodetypes="ccccccccc"
       inkscape:connector-curvature="0"
       id="path9227"
       d="m 636.65011,1508.0086 c 5.03663,1.0035 19.1024,-9.0831 38.76236,-8.1264 -3.53875,1.5375 -1.46676,4.6111 -5.58553,5.9619 8.7877,16.6868 10.87335,38.2277 5.2409,57.3179 6.3194,2.8011 2.60793,11.9908 11.75621,12.9874 -11.6883,9.0136 -16.31975,3.4354 -21.86177,8.3089 -11.96652,-5.579 -24.16563,-3.3899 -32.35315,-14.264 0.9794,-10.7884 -12.48451,-19.1558 -10.07655,-37.0425 4.9328,-4.7154 7.38437,-14.0744 14.11753,-25.1432 z"
       style="opacity:0.57777782;color:#000000;fill:#ff5555;fill-opacity:1;fill-rule:nonzero;stroke:none;stroke-width:40;marker:none;visibility:visible;display:inline;overflow:visible;enable-background:accumulate" />
    <path
       style="opacity:0.57777782;color:#000000;fill:#ff5555;fill-opacity:1;fill-rule:nonzero;stroke:none;stroke-width:40;marker:none;visibility:visible;display:inline;overflow:visible;enable-background:accumulate"
       d="m 637.10539,1508.0086 c 5.03663,1.0035 19.1024,-9.0831 38.76236,-8.1264 -3.53875,1.5375 -1.46676,4.6111 -5.58553,5.9619 6.30105,17.3113 14.75435,34.4073 9.45224,52.8789 -6.22703,11.0382 -25.02331,13.1139 -42.11725,7.8291 -3.5734,-3.9592 -17.03731,-15.5136 -14.62935,-33.4003 4.9328,-4.7154 7.38437,-14.0744 14.11753,-25.1432 z"
       id="rect9224"
       inkscape:connector-curvature="0"
       sodipodi:nodetypes="ccccccc" />
    <path
       style="color:#000000;fill:#00ffff;fill-opacity:1;fill-rule:nonzero;stroke:none;stroke-width:40;marker:none;visibility:visible;display:inline;overflow:visible;enable-background:accumulate"
       d="m 671.31038,1503.3171 c 1.95773,6.3442 6.75694,6.1513 11.26483,8.5445 4.50789,2.3933 16.94042,14.5311 15.14141,31.7478 -3.37916,8.7867 -13.92172,11.8983 -19.87609,16.0176 6.41847,-30.5721 -15.83408,-36.1169 -6.53015,-56.3099 z"
       id="rect9221"
       inkscape:connector-curvature="0"
       sodipodi:nodetypes="czccc" />
    <path
       transform="translate(0,152.36218)"
       style="opacity:0.57777782;color:#000000;fill:#ff5555;fill-opacity:1;fill-rule:nonzero;stroke:none;stroke-width:40;marker:none;visibility:visible;display:inline;overflow:visible;enable-background:accumulate"
       d="m 700.67596,1385.3285 6.14628,3.0732 -6.14628,3.0731 z"
       id="rect9229"
       inkscape:connector-curvature="0"
       sodipodi:nodetypes="cccc" />
  </g>
</svg>
