<?xml version="1.0" encoding="UTF-8" standalone="no"?>
<!-- Created with Inkscape (http://www.inkscape.org/) -->

<svg
   xmlns:dc="http://purl.org/dc/elements/1.1/"
   xmlns:cc="http://creativecommons.org/ns#"
   xmlns:rdf="http://www.w3.org/1999/02/22-rdf-syntax-ns#"
   xmlns:svg="http://www.w3.org/2000/svg"
   xmlns="http://www.w3.org/2000/svg"
   xmlns:xlink="http://www.w3.org/1999/xlink"
   xmlns:sodipodi="http://sodipodi.sourceforge.net/DTD/sodipodi-0.dtd"
   xmlns:inkscape="http://www.inkscape.org/namespaces/inkscape"
   width="1440"
   height="900"
   id="svg2"
   version="1.1"
   inkscape:version="0.48.0 r9654"
   sodipodi:docname="new-ball.svg">
  <defs
     id="defs4">
    <inkscape:path-effect
       fuse_tolerance="0"
       vertical_pattern="false"
       prop_units="false"
       tang_offset="0"
       normal_offset="0"
       spacing="0"
       scale_y_rel="false"
       prop_scale="1"
       copytype="single_stretched"
       pattern="m -435.2477,1087.3204 1,0"
       is_visible="true"
       id="path-effect4528"
       effect="skeletal" />
    <linearGradient
       inkscape:collect="always"
       id="linearGradient4226">
      <stop
         style="stop-color:#ffffff;stop-opacity:1;"
         offset="0"
         id="stop4228" />
      <stop
         style="stop-color:#ffffff;stop-opacity:0;"
         offset="1"
         id="stop4230" />
    </linearGradient>
    <linearGradient
       inkscape:collect="always"
       id="linearGradient4027">
      <stop
         style="stop-color:#000000;stop-opacity:1;"
         offset="0"
         id="stop4029" />
      <stop
         style="stop-color:#000000;stop-opacity:0;"
         offset="1"
         id="stop4031" />
    </linearGradient>
    <linearGradient
       inkscape:collect="always"
       id="linearGradient4019">
      <stop
         style="stop-color:#000000;stop-opacity:1;"
         offset="0"
         id="stop4021" />
      <stop
         style="stop-color:#000000;stop-opacity:0;"
         offset="1"
         id="stop4023" />
    </linearGradient>
    <linearGradient
       inkscape:collect="always"
       id="linearGradient4005">
      <stop
         style="stop-color:#000000;stop-opacity:1;"
         offset="0"
         id="stop4007" />
      <stop
         style="stop-color:#000000;stop-opacity:0;"
         offset="1"
         id="stop4009" />
    </linearGradient>
    <linearGradient
       id="linearGradient3975">
      <stop
         style="stop-color:#000000;stop-opacity:0;"
         offset="0"
         id="stop3977" />
      <stop
         id="stop3989"
         offset="0.42380464"
         style="stop-color:#000000;stop-opacity:0.12156863;" />
      <stop
         id="stop3985"
         offset="0.56925845"
         style="stop-color:#000000;stop-opacity:0.24705882;" />
      <stop
         id="stop3983"
         offset="0.76572561"
         style="stop-color:#000000;stop-opacity:0.49803922;" />
      <stop
         style="stop-color:#000000;stop-opacity:1;"
         offset="1"
         id="stop3979" />
    </linearGradient>
    <linearGradient
       inkscape:collect="always"
       id="linearGradient3891">
      <stop
         style="stop-color:#000000;stop-opacity:1;"
         offset="0"
         id="stop3893" />
      <stop
         style="stop-color:#000000;stop-opacity:0;"
         offset="1"
         id="stop3895" />
    </linearGradient>
    <linearGradient
       id="linearGradient3865">
      <stop
         style="stop-color:#000000;stop-opacity:0;"
         offset="0"
         id="stop3867" />
      <stop
         style="stop-color:#000000;stop-opacity:1;"
         offset="1"
         id="stop3869" />
    </linearGradient>
    <inkscape:path-effect
       effect="skeletal"
       id="path-effect3837"
       is_visible="true"
       pattern="m 0,1019.2153 1,0"
       copytype="single_stretched"
       prop_scale="1"
       scale_y_rel="false"
       spacing="0"
       normal_offset="0"
       tang_offset="0"
       prop_units="false"
       vertical_pattern="false"
       fuse_tolerance="0" />
    <filter
       inkscape:collect="always"
       id="filter3843"
       x="-0.0060201435"
       width="1.0120403"
       y="-1.7931747"
       height="4.5863495">
      <feGaussianBlur
         inkscape:collect="always"
         stdDeviation="0.42093283"
         id="feGaussianBlur3845" />
    </filter>
    <radialGradient
       inkscape:collect="always"
       xlink:href="#linearGradient3865"
       id="radialGradient3871"
       cx="760.4024"
       cy="427.96167"
       fx="760.4024"
       fy="427.96167"
       r="85.54244"
       gradientTransform="matrix(-21.941461,2.9004947e-5,-4.1123383e-6,-3.1511967,17541.746,2816.9451)"
       gradientUnits="userSpaceOnUse" />
    <linearGradient
       inkscape:collect="always"
       xlink:href="#linearGradient3891"
       id="linearGradient3897"
       x1="1109.9828"
       y1="611.65112"
       x2="945.13708"
       y2="611.65112"
       gradientUnits="userSpaceOnUse"
       gradientTransform="translate(-163.11711,852.54913)" />
    <linearGradient
       inkscape:collect="always"
       xlink:href="#linearGradient4005-8"
       id="linearGradient4044-9"
       gradientUnits="userSpaceOnUse"
       gradientTransform="translate(628.81288,-0.16096583)"
       x1="223.52396"
       y1="1455.4205"
       x2="151.8649"
       y2="1455.4205" />
    <linearGradient
       inkscape:collect="always"
       id="linearGradient4005-8">
      <stop
         style="stop-color:#000000;stop-opacity:1;"
         offset="0"
         id="stop4007-1" />
      <stop
         style="stop-color:#000000;stop-opacity:0;"
         offset="1"
         id="stop4009-6" />
    </linearGradient>
    <linearGradient
       inkscape:collect="always"
       xlink:href="#linearGradient4027"
       id="linearGradient4144"
       gradientUnits="userSpaceOnUse"
       gradientTransform="translate(407.82903,0)"
       x1="679.91949"
       y1="1452.8451"
       x2="649.65112"
       y2="1452.8451" />
    <linearGradient
       inkscape:collect="always"
       xlink:href="#linearGradient4019"
       id="linearGradient4146"
       gradientUnits="userSpaceOnUse"
       gradientTransform="translate(588.23854,0.04024145)"
       x1="463.58148"
       y1="1457.3522"
       x2="428.0755"
       y2="1457.3522" />
    <linearGradient
       inkscape:collect="always"
       xlink:href="#linearGradient4005"
       id="linearGradient4148"
       gradientUnits="userSpaceOnUse"
       gradientTransform="translate(784.45584,-0.16096583)"
       x1="223.52396"
       y1="1455.4205"
       x2="151.8649"
       y2="1455.4205" />
    <linearGradient
       inkscape:collect="always"
       xlink:href="#linearGradient3891-5"
       id="linearGradient3897-1"
       x1="1109.9828"
       y1="611.65112"
       x2="945.13708"
       y2="611.65112"
       gradientUnits="userSpaceOnUse"
       gradientTransform="translate(-163.11711,852.54913)" />
    <linearGradient
       inkscape:collect="always"
       id="linearGradient3891-5">
      <stop
         style="stop-color:#000000;stop-opacity:1;"
         offset="0"
         id="stop3893-6" />
      <stop
         style="stop-color:#000000;stop-opacity:0;"
         offset="1"
         id="stop3895-1" />
    </linearGradient>
    <linearGradient
       inkscape:collect="always"
       xlink:href="#linearGradient4226"
       id="linearGradient4232"
       x1="899.63684"
       y1="1313.3943"
       x2="773.75128"
       y2="1313.3943"
       gradientUnits="userSpaceOnUse" />
    <inkscape:path-effect
       effect="skeletal"
       id="path-effect3837-7"
       is_visible="true"
       pattern="m -310.02186,1119.583 1,0"
       copytype="single_stretched"
       prop_scale="1"
       scale_y_rel="false"
       spacing="0"
       normal_offset="0"
       tang_offset="0"
       prop_units="false"
       vertical_pattern="false"
       fuse_tolerance="0" />
    <linearGradient
       id="linearGradient3865-3">
      <stop
         style="stop-color:#000000;stop-opacity:0;"
         offset="0"
         id="stop3867-6" />
      <stop
         style="stop-color:#000000;stop-opacity:1;"
         offset="1"
         id="stop3869-4" />
    </linearGradient>
    <filter
       inkscape:collect="always"
       id="filter4396">
      <feGaussianBlur
         inkscape:collect="always"
         stdDeviation="3.4667344"
         id="feGaussianBlur4398" />
    </filter>
    <radialGradient
       inkscape:collect="always"
       xlink:href="#linearGradient3865"
       id="radialGradient4500"
       gradientUnits="userSpaceOnUse"
       gradientTransform="matrix(-21.941461,2.9004947e-5,-4.1123383e-6,-3.1511967,17541.746,2816.9451)"
       cx="760.4024"
       cy="427.96167"
       fx="760.4024"
       fy="427.96167"
       r="85.54244" />
    <linearGradient
       inkscape:collect="always"
       xlink:href="#linearGradient3891"
       id="linearGradient4502"
       gradientUnits="userSpaceOnUse"
       gradientTransform="translate(-163.11711,852.54913)"
       x1="1109.9828"
       y1="611.65112"
       x2="945.13708"
       y2="611.65112" />
    <linearGradient
       inkscape:collect="always"
       xlink:href="#linearGradient4027"
       id="linearGradient4504"
       gradientUnits="userSpaceOnUse"
       gradientTransform="translate(407.82903,0)"
       x1="679.91949"
       y1="1452.8451"
       x2="649.65112"
       y2="1452.8451" />
    <linearGradient
       inkscape:collect="always"
       xlink:href="#linearGradient4019"
       id="linearGradient4506"
       gradientUnits="userSpaceOnUse"
       gradientTransform="translate(588.23854,0.04024145)"
       x1="463.58148"
       y1="1457.3522"
       x2="428.0755"
       y2="1457.3522" />
    <linearGradient
       inkscape:collect="always"
       xlink:href="#linearGradient4005"
       id="linearGradient4508"
       gradientUnits="userSpaceOnUse"
       gradientTransform="translate(784.45584,-0.16096583)"
       x1="223.52396"
       y1="1455.4205"
       x2="151.8649"
       y2="1455.4205" />
    <linearGradient
       inkscape:collect="always"
       xlink:href="#linearGradient4226"
       id="linearGradient4510"
       gradientUnits="userSpaceOnUse"
       x1="899.63684"
       y1="1313.3943"
       x2="773.75128"
       y2="1313.3943" />
    <linearGradient
       inkscape:collect="always"
       xlink:href="#linearGradient4226"
       id="linearGradient4515"
       gradientUnits="userSpaceOnUse"
       x1="899.63684"
       y1="1313.3943"
       x2="773.75128"
       y2="1313.3943"
       gradientTransform="translate(-258.18533,220.46726)" />
    <linearGradient
       inkscape:collect="always"
       xlink:href="#linearGradient3891"
       id="linearGradient4525"
       gradientUnits="userSpaceOnUse"
       gradientTransform="translate(-419.84049,920.65421)"
       x1="1109.9828"
       y1="611.65112"
       x2="945.13708"
       y2="611.65112" />
    <radialGradient
       inkscape:collect="always"
       xlink:href="#linearGradient3865"
       id="radialGradient4534"
       gradientUnits="userSpaceOnUse"
       gradientTransform="matrix(-21.941461,2.9004947e-5,-4.1123383e-6,-3.1511967,16872.776,2885.0502)"
       cx="760.4024"
       cy="427.96167"
       fx="760.4024"
       fy="427.96167"
       r="85.54244" />
    <linearGradient
       inkscape:collect="always"
       xlink:href="#linearGradient4027"
       id="linearGradient4539"
       gradientUnits="userSpaceOnUse"
       gradientTransform="translate(407.82903,0)"
       x1="679.91949"
       y1="1452.8451"
       x2="649.65112"
       y2="1452.8451" />
    <linearGradient
       inkscape:collect="always"
       xlink:href="#linearGradient4019"
       id="linearGradient4541"
       gradientUnits="userSpaceOnUse"
       gradientTransform="translate(588.23854,0.04024145)"
       x1="463.58148"
       y1="1457.3522"
       x2="428.0755"
       y2="1457.3522" />
    <linearGradient
       inkscape:collect="always"
       xlink:href="#linearGradient4005"
       id="linearGradient4543"
       gradientUnits="userSpaceOnUse"
       gradientTransform="translate(784.45584,-0.16096583)"
       x1="223.52396"
       y1="1455.4205"
       x2="151.8649"
       y2="1455.4205" />
  </defs>
  <sodipodi:namedview
     id="base"
     pagecolor="#ffffff"
     bordercolor="#666666"
     borderopacity="1.0"
     inkscape:pageopacity="0.0"
     inkscape:pageshadow="2"
     inkscape:zoom="0.19414063"
     inkscape:cx="914.88967"
     inkscape:cy="-479.93803"
     inkscape:document-units="px"
     inkscape:current-layer="layer1"
     showgrid="false"
     showguides="true"
     inkscape:guide-bbox="true"
     inkscape:window-width="1280"
     inkscape:window-height="748"
     inkscape:window-x="0"
     inkscape:window-y="25"
     inkscape:window-maximized="1" />
  <metadata
     id="metadata7">
    <rdf:RDF>
      <cc:Work
         rdf:about="">
        <dc:format>image/svg+xml</dc:format>
        <dc:type
           rdf:resource="http://purl.org/dc/dcmitype/StillImage" />
        <dc:title></dc:title>
      </cc:Work>
    </rdf:RDF>
  </metadata>
  <g
     inkscape:label="Camada 1"
     inkscape:groupmode="layer"
     id="layer1"
     transform="translate(0,-152.36218)">
    <path
       sodipodi:nodetypes="zcczcz"
       inkscape:connector-curvature="0"
       id="path4591"
       d="m 403.17708,1178.4977 c 24.23267,3.5453 69.46056,33.7348 97.81886,54.5366 l 0,133.8708 c -50.71369,-6.8813 -68.73779,-7.305 -97.81886,-17.5361 -29.08107,-10.231 -48.47306,-102.6609 -48.47306,-102.6609 0,0 24.2404,-71.7557 48.47306,-68.2104 z"
       style="color:#000000;fill:#dca5dc;fill-opacity:1;fill-rule:nonzero;stroke:none;stroke-width:2.59800005;marker:none;visibility:visible;display:inline;overflow:visible;enable-background:accumulate" />
    <rect
       style="opacity:0.5;color:#000000;fill:#800000;fill-opacity:1;fill-rule:nonzero;stroke:none;stroke-width:2.59800005;marker:none;visibility:visible;display:inline;overflow:visible;enable-background:accumulate"
       id="rect2985"
       width="1440"
       height="900"
       x="-1.3658401"
       y="150.99634" />
    <rect
       y="152.36218"
       x="0"
       height="900"
       width="275.89539"
       id="rect3014"
       style="opacity:0.5;color:#000000;fill:#800000;fill-opacity:1;fill-rule:nonzero;stroke:none;stroke-width:2.59800005;marker:none;visibility:visible;display:inline;overflow:visible;enable-background:accumulate" />
    <rect
       style="opacity:0.5;color:#000000;fill:#800000;fill-opacity:1;fill-rule:nonzero;stroke:none;stroke-width:2.59800005;marker:none;visibility:visible;display:inline;overflow:visible;enable-background:accumulate"
       id="rect2985-2"
       width="275.89539"
       height="900"
       x="1165.5168"
       y="152.36218" />
    <path
       style="opacity:0.5;color:#000000;fill:#800000;fill-opacity:1;fill-rule:nonzero;stroke:none;stroke-width:2.59800005;marker:none;visibility:visible;display:inline;overflow:visible;enable-background:accumulate"
       d="m 117.83104,550.64596 c 30.84324,2.23135 70.96571,7.76362 118.91027,11.95101 l 0,81.69573 c -47.79245,4.54615 -87.02283,7.27602 -118.91027,9.35296 -31.88744,2.07694 -44.82512,-51.49985 -44.82512,-51.49985 0,0 13.981877,-53.73119 44.82512,-51.49985 z"
       id="path3012"
       inkscape:connector-curvature="0"
       sodipodi:nodetypes="zcczcz" />
    <path
       sodipodi:nodetypes="zcczcz"
       inkscape:connector-curvature="0"
       id="path4458"
       d="m 394.28564,457.36599 c 27.37691,4.00532 78.47324,38.11191 110.51109,61.61284 l 0,151.24081 c -57.29391,-7.7741 -77.65669,-8.25283 -110.51109,-19.81136 -32.8544,-11.55853 -57.67218,-114.52659 -57.67218,-114.52659 0,0 30.29527,-82.52102 57.67218,-78.5157 z"
       style="opacity:0.5;color:#000000;fill:#800000;fill-opacity:1;fill-rule:nonzero;stroke:none;stroke-width:2.59800005;marker:none;visibility:visible;display:inline;overflow:visible;enable-background:accumulate" />
    <path
       style="color:#000000;fill:#417f34;fill-opacity:1;fill-rule:nonzero;stroke:none;stroke-width:2.59800005;marker:none;visibility:visible;display:inline;overflow:visible;enable-background:accumulate"
       d="M 391.28125 1012.75 C 361.29939 1012.7745 331.62442 1091.5984 331.84375 1091.7812 C 331.84375 1091.7813 355.61435 1193.5846 388.46875 1206.2812 C 421.32315 1218.978 442.37001 1220.4464 500.46875 1227.0938 L 506.59375 1226.0625 L 501.6875 1128.375 L 501.6875 1214.5312 C 450.97381 1207.6499 432.95607 1207.2311 403.875 1197 C 374.79393 1186.769 355.40625 1094.3438 355.40625 1094.3438 C 355.40625 1094.3438 379.64234 1022.5797 403.875 1026.125 C 427.42185 1029.57 470.73341 1058.1736 499.1875 1078.875 L 499 1074.875 C 469.96231 1053.5748 416.97064 1019.3144 395.6875 1013.3125 C 394.21501 1012.9138 392.75577 1012.7488 391.28125 1012.75 z "
       transform="translate(0,152.36218)"
       id="path4578" />
    <path
       style="color:#000000;fill:#417f34;fill-opacity:1;fill-rule:nonzero;stroke:none;stroke-width:2.59800005;marker:none;visibility:visible;display:inline;overflow:visible;enable-background:accumulate"
       d="m 264.98003,1227.2286 7.60687,151.1894 -6.14674,1.035 c -58.09874,-6.6473 -79.11682,-8.0982 -111.97122,-20.7949 -32.8544,-12.6967 -56.6478,-114.5266 -56.6478,-114.5266 -0.23012,-0.1918 32.44517,-86.9515 63.8583,-78.4456 21.28314,6.0019 74.2629,40.2425 103.30059,61.5427 z"
       id="path4437"
       inkscape:connector-curvature="0"
       sodipodi:nodetypes="ccczccc" />
    <path
       style="color:#000000;fill:#008000;fill-opacity:1;fill-rule:nonzero;stroke:none;stroke-width:2.59800005;marker:none;visibility:visible;display:inline;overflow:visible;enable-background:accumulate"
       d="m 342.62877,1245.1713 c 0,10e-5 19.40646,97.6356 51.6564,109.1058 32.24994,11.47 51.77539,16.4642 108.0152,24.1789 l 0,-150.0615 c -31.44842,-23.321 -81.59377,-57.1787 -109.39142,-58.6332 -27.79765,-1.4546 -50.28018,75.41 -50.28018,75.41 z m 56.38869,-65.2468 c 0.74263,-0.031 1.46526,-0.017 2.2086,0.093 4.73814,0.7008 10.30067,2.4765 16.38048,4.9927 l 0,77.9303 -62.36238,-19.6609 c 5.4044,-14.798 24.31502,-62.5284 43.7733,-63.3552 z m 26.80999,8.7761 c 11.11824,5.3704 23.40196,12.6429 35.36834,20.3741 l 0,67.6347 -35.36834,-11.1639 z m 42.33158,24.9327 c 10.5414,7.0293 20.57135,14.2196 29.07995,20.5292 l 0,53.9278 -29.07995,-9.1792 z m -111.9026,45.2139 61.35011,17.18 0,78.6744 c -5.24871,-1.392 -10.59798,-3.0601 -16.38048,-5.1167 -22.41309,-7.9715 -38.89286,-66.0735 -44.96963,-90.7377 z m 69.57102,19.5058 35.36834,9.8924 0,74.0539 c -13.9645,-1.7944 -24.95536,-3.3311 -35.36834,-5.613 z m 42.33158,11.8461 29.07995,8.1559 0,68.6269 c -11.22617,-1.5399 -20.62503,-2.71 -29.07995,-3.7832 z"
       id="path4580"
       inkscape:connector-curvature="0"
       sodipodi:nodetypes="csccccccccccccccccccccccccsccccccccccc" />
    <path
       id="path4594"
       d="m 393.625,1165.4872 c -26.66666,1.1988 -55.09375,78.6562 -55.09375,78.6562 0,10e-5 24.8331,102.9414 57.6875,114.5 32.8544,11.5585 53.20609,12.0384 110.5,19.8126 l 0,-151.2188 c -32.03785,-23.5009 -83.12309,-57.6197 -110.5,-61.625 -0.85553,-0.1252 -1.73354,-0.1637 -2.59375,-0.125 z m 7.875,12.9062 c 0.75655,-0.031 1.49273,-0.017 2.25,0.094 4.82695,0.7062 10.49374,2.4956 16.6875,5.0312 l 0,78.5313 -63.53125,-19.8125 c 5.5057,-14.9121 24.77077,-63.0106 44.59375,-63.8438 z m 27.3125,8.8438 c 11.32662,5.4118 23.84058,12.7404 36.03125,20.5312 l 0,68.1563 -36.03125,-11.25 0,-77.4375 z m 43.125,25.125 c 10.73898,7.0835 20.95692,14.3292 29.625,20.6875 l 0,54.3437 -29.625,-9.25 0,-65.7812 z m -114,45.5625 62.5,17.3125 0,79.2812 c -5.34709,-1.4027 -10.79662,-3.0837 -16.6875,-5.1562 -22.83318,-8.0329 -39.62183,-66.583 -45.8125,-91.4375 z m 70.875,19.6563 36.03125,9.9687 0,74.625 c -14.22624,-1.8082 -25.42311,-3.3568 -36.03125,-5.6563 l 0,-78.9374 z m 43.125,11.9374 29.625,8.2188 0,69.1562 c -11.43659,-1.5518 -21.01162,-2.7309 -29.625,-3.8124 l 0,-73.5626 z"
       style="color:#000000;fill:#549248;fill-opacity:1;fill-rule:nonzero;stroke:none;stroke-width:2.59800005;marker:none;visibility:visible;display:inline;overflow:visible;enable-background:accumulate"
       inkscape:connector-curvature="0" />
    <path
       sodipodi:nodetypes="zcczcz"
       inkscape:connector-curvature="0"
       id="path4512"
       d="m 162.1953,1165.6155 c 27.37691,4.0053 78.47324,38.1119 110.51109,61.6128 l 0,151.2408 c -57.29391,-7.7741 -77.65669,-8.2528 -110.51109,-19.8113 -32.8544,-11.5586 -57.67218,-114.5266 -57.67218,-114.5266 0,0 30.29527,-82.521 57.67218,-78.5157 z"
       style="color:#000000;fill:#549248;fill-opacity:1;fill-rule:nonzero;stroke:none;stroke-width:2.59800005;marker:none;visibility:visible;display:inline;overflow:visible;enable-background:accumulate" />
    <path
       style="opacity:0.5;color:#000000;fill:#800000;fill-opacity:1;fill-rule:nonzero;stroke:none;stroke-width:2.59800005;marker:none;visibility:visible;display:inline;overflow:visible;enable-background:accumulate"
       d="m 401.82697,470.24821 c 24.23267,3.54532 69.46056,33.73475 97.81886,54.53659 l 0,133.87076 c -50.71369,-6.88125 -68.73779,-7.30498 -97.81886,-17.53601 -29.08107,-10.23103 -48.47306,-102.66092 -48.47306,-102.66092 0,0 24.2404,-71.75573 48.47306,-68.21042 z"
       id="path4460"
       inkscape:connector-curvature="0"
       sodipodi:nodetypes="zcczcz" />
    <path
       style="color:#000000;fill:#dca5dc;fill-opacity:1;fill-rule:nonzero;stroke:none;stroke-width:2.59800005;marker:none;visibility:visible;display:inline;overflow:visible;enable-background:accumulate"
       d="m 827.16098,1178.4977 c 24.23267,3.5453 69.46056,33.7348 97.81886,54.5366 l 0,133.8708 c -50.71369,-6.8813 -68.73779,-7.305 -97.81886,-17.5361 -29.08107,-10.231 -48.47306,-102.6609 -48.47306,-102.6609 0,0 24.2404,-71.7557 48.47306,-68.2104 z"
       id="path4596"
       inkscape:connector-curvature="0"
       sodipodi:nodetypes="zcczcz" />
    <path
       inkscape:connector-curvature="0"
       id="path4598"
       d="m 167.47862,1178.3934 c -19.82298,0.8331 -39.08805,48.9317 -44.59375,63.8438 l 63.53125,19.8125 0,-78.5313 c -6.19376,-2.5357 -11.86055,-4.325 -16.6875,-5.0312 -0.75727,-0.1108 -1.49345,-0.1255 -2.25,-0.094 z m 27.3125,8.8438 0,77.4375 36.03125,11.25 0,-68.1563 c -12.19067,-7.7909 -24.70463,-15.1194 -36.03125,-20.5312 z m 43.125,25.125 0,65.7812 29.625,9.25 0,-54.3437 c -8.66808,-6.3583 -18.88602,-13.604 -29.625,-20.6875 z m -114,45.5625 c 6.19067,24.8545 22.97932,83.4046 45.8125,91.4375 5.89088,2.0725 11.34041,3.7534 16.6875,5.1562 l 0,-79.2812 -62.5,-17.3125 z m 70.875,19.6563 0,78.9374 c 10.60814,2.2994 21.80501,3.8481 36.03125,5.6563 l 0,-74.625 -36.03125,-9.9687 z m 43.125,11.9374 0,73.5626 c 8.61338,1.0815 18.18841,2.2606 29.625,3.8124 l 0,-69.1562 -29.625,-8.2188 z"
       style="color:#000000;fill:#dca5dc;fill-opacity:1;fill-rule:nonzero;stroke:none;stroke-width:2.59800005;marker:none;visibility:visible;display:inline;overflow:visible;enable-background:accumulate" />
    <path
       id="path4608"
       d="m 620.9375,1178.3934 c -19.82298,0.8332 -39.08805,48.9317 -44.59375,63.8438 l 63.53125,19.8125 0,-78.5313 c -6.19376,-2.5356 -11.86055,-4.325 -16.6875,-5.0312 -0.75727,-0.1108 -1.49345,-0.1253 -2.25,-0.094 z m 27.3125,8.8438 0,77.4375 36.03125,11.25 0,-68.1563 c -12.19067,-7.7908 -24.70463,-15.1194 -36.03125,-20.5312 z m 43.125,25.125 0,65.7812 29.625,9.25 0,-54.3437 c -8.66808,-6.3583 -18.88602,-13.604 -29.625,-20.6875 z m -114,45.5625 c 6.19067,24.8545 22.97932,83.4046 45.8125,91.4375 5.89088,2.0725 11.34041,3.7535 16.6875,5.1562 l 0,-79.2812 -62.5,-17.3125 z m 70.875,19.6563 0,78.9374 c 10.60814,2.2995 21.80501,3.8481 36.03125,5.6563 l 0,-74.625 -36.03125,-9.9687 z m 43.125,11.9374 0,73.5626 c 8.61338,1.0815 18.18841,2.2606 29.625,3.8124 l 0,-69.1562 -29.625,-8.2188 z"
       style="color:#000000;fill:#dca5dc;fill-opacity:1;fill-rule:nonzero;stroke:none;stroke-width:2.59800005;marker:none;visibility:visible;display:inline;overflow:visible;enable-background:accumulate"
       inkscape:connector-curvature="0" />
    <path
       inkscape:connector-curvature="0"
       id="path4610"
       d="m 1203.8827,1178.3934 c -19.8229,0.8332 -39.088,48.9317 -44.5937,63.8438 l 63.5312,19.8125 0,-78.5313 c -6.1937,-2.5356 -11.8605,-4.325 -16.6875,-5.0312 -0.7572,-0.1108 -1.4934,-0.1253 -2.25,-0.094 z m -43.5624,79.5313 c 6.1906,24.8545 22.9793,83.4046 45.8124,91.4375 5.8909,2.0725 11.3405,3.7535 16.6875,5.1562 l 0,-79.2812 z"
       style="color:#000000;fill:#dca5dc;fill-opacity:1;fill-rule:nonzero;stroke:none;stroke-width:2.59800005;marker:none;visibility:visible;display:inline;overflow:visible;enable-background:accumulate"
       sodipodi:nodetypes="ccccccccsccc" />
    <path
       inkscape:connector-curvature="0"
       id="path4612"
       d="m 1232.8777,1187.2372 0,77.4375 36.0313,11.25 0,-68.1563 c -12.1907,-7.7908 -24.7046,-15.1194 -36.0313,-20.5312 z m 0,90.3438 0,78.9374 c 10.6082,2.2995 21.8051,3.8481 36.0313,5.6563 l 0,-74.625 z"
       style="color:#000000;fill:#dca5dc;fill-opacity:1;fill-rule:nonzero;stroke:none;stroke-width:2.59800005;marker:none;visibility:visible;display:inline;overflow:visible;enable-background:accumulate"
       sodipodi:nodetypes="cccccccccc" />
    <path
       style="color:#000000;fill:#dca5dc;fill-opacity:1;fill-rule:nonzero;stroke:none;stroke-width:2.59800005;marker:none;visibility:visible;display:inline;overflow:visible;enable-background:accumulate"
       d="m 1278.3481,1212.3622 0,65.7812 29.625,9.25 0,-54.3437 c -8.668,-6.3583 -18.886,-13.604 -29.625,-20.6875 z m 0,77.1562 0,73.5626 c 8.6134,1.0815 18.1885,2.2606 29.625,3.8124 l 0,-69.1562 z"
       id="path3032"
       inkscape:connector-curvature="0"
       sodipodi:nodetypes="cccccccccc" />
    <path
       style="opacity:0.5;color:#000000;fill:#800000;fill-opacity:1;fill-rule:nonzero;stroke:none;stroke-width:2.59800005;marker:none;visibility:visible;display:inline;overflow:visible;enable-background:accumulate"
       d="m 620.92548,506.29959 c 28.66464,2.07374 68.34661,14.27557 110.51109,22.95425 l 0,151.24081 c -44.41665,9.0121 -80.87601,16.91699 -110.51109,18.84723 -29.63508,1.93024 -57.67218,-97.14228 -57.67218,-97.14228 0,0 29.00754,-97.97374 57.67218,-95.90001 z"
       id="path3917"
       inkscape:connector-curvature="0"
       sodipodi:nodetypes="zcczcz" />
    <path
       sodipodi:nodetypes="zcczcz"
       inkscape:connector-curvature="0"
       id="path3042"
       d="m 837.26351,506.29959 c 28.66464,2.07374 68.34661,14.27557 110.51109,22.95425 l 0,151.24081 c -44.41665,9.0121 -80.87601,16.91699 -110.51109,18.84723 -29.63508,1.93024 -57.67218,-97.14228 -57.67218,-97.14228 0,0 29.00754,-97.97374 57.67218,-95.90001 z"
       style="opacity:0.5;color:#000000;fill:#800000;fill-opacity:1;fill-rule:nonzero;stroke:none;stroke-width:2.59800005;marker:none;visibility:visible;display:inline;overflow:visible;enable-background:accumulate" />
    <path
       style="opacity:0.5;color:#000000;fill:#800000;fill-opacity:1;fill-rule:nonzero;stroke:none;stroke-width:2.59800005;marker:none;visibility:visible;display:inline;overflow:visible;enable-background:accumulate"
       d="m 627.18774,514.39931 c 25.328,1.89971 60.39087,13.07758 97.64727,21.02796 l 0,138.54892 c -39.24642,8.25581 -71.4618,15.49734 -97.64727,17.26559 -26.18546,1.76826 -50.95896,-88.99025 -50.95896,-88.99025 0,0 25.63097,-89.75193 50.95896,-87.85222 z"
       id="path3919"
       inkscape:connector-curvature="0"
       sodipodi:nodetypes="zcczcz" />
    <path
       sodipodi:nodetypes="zcczcz"
       inkscape:connector-curvature="0"
       id="path3828"
       d="m 843.52577,514.39931 c 25.328,1.89971 60.39087,13.07758 97.64727,21.02796 l 0,138.54892 c -39.24642,8.25581 -71.4618,15.49734 -97.64727,17.26559 -26.18546,1.76826 -50.95896,-88.99025 -50.95896,-88.99025 0,0 25.63097,-89.75193 50.95896,-87.85222 z"
       style="opacity:0.5;color:#000000;fill:#800000;fill-opacity:1;fill-rule:nonzero;stroke:none;stroke-width:2.59800005;marker:none;visibility:visible;display:inline;overflow:visible;enable-background:accumulate" />
    <path
       sodipodi:nodetypes="zcczcz"
       inkscape:connector-curvature="0"
       id="path3010"
       d="m 117.83104,376.72899 c 30.84324,2.23135 70.96571,7.76362 118.91027,11.95101 l 0,81.69573 c -47.79245,4.54615 -87.02283,7.27602 -118.91027,9.35296 -31.88744,2.07694 -44.82512,-51.49985 -44.82512,-51.49985 0,0 13.981877,-53.73119 44.82512,-51.49985 z"
       style="opacity:0.5;color:#000000;fill:#800000;fill-opacity:1;fill-rule:nonzero;stroke:none;stroke-width:2.59800005;marker:none;visibility:visible;display:inline;overflow:visible;enable-background:accumulate" />
    <path
       style="opacity:0.5;color:#000000;fill:#800000;fill-opacity:1;fill-rule:nonzero;stroke:none;stroke-width:2.59800005;marker:none;visibility:visible;display:inline;overflow:visible;enable-background:accumulate"
       d="m 117.83104,216.47043 c 30.84324,2.23135 70.96571,7.76362 118.91027,11.95101 l 0,81.69573 c -47.79245,4.54615 -87.02283,7.27602 -118.91027,9.35296 -31.88744,2.07694 -44.82512,-51.49985 -44.82512,-51.49985 0,0 13.981877,-53.73119 44.82512,-51.49985 z"
       id="rect3005"
       inkscape:connector-curvature="0"
       sodipodi:nodetypes="zcczcz" />
    <path
       style="opacity:0.5;color:#000000;fill:#800000;fill-opacity:1;fill-rule:nonzero;stroke:none;stroke-width:2.59800005;marker:none;visibility:visible;display:inline;overflow:visible;enable-background:accumulate"
       d="m 333.97425,527.43063 173.46169,54.14523 0,10.06564 -173.46169,-48.04843 z"
       id="path4462"
       inkscape:connector-curvature="0"
       sodipodi:nodetypes="ccccc" />
    <path
       sodipodi:nodetypes="ccccc"
       inkscape:connector-curvature="0"
       id="path4584"
       d="m -184.48722,1235.6801 173.461692,54.1453 0,10.0656 -173.461692,-48.0484 z"
       style="opacity:0.5;color:#000000;fill:#800000;fill-opacity:1;fill-rule:nonzero;stroke:none;stroke-width:2.59800005;marker:none;visibility:visible;display:inline;overflow:visible;enable-background:accumulate" />
    <path
       sodipodi:nodetypes="ccccc"
       inkscape:connector-curvature="0"
       id="path4600"
       d="m 101.88391,1235.6801 173.46169,54.1453 0,10.0656 -173.46169,-48.0484 z"
       style="opacity:0.5;color:#000000;fill:#800000;fill-opacity:1;fill-rule:nonzero;stroke:none;stroke-width:2.59800005;marker:none;visibility:visible;display:inline;overflow:visible;enable-background:accumulate" />
    <path
       style="opacity:0.5;color:#000000;fill:#800000;fill-opacity:1;fill-rule:nonzero;stroke:none;stroke-width:2.59800005;marker:none;visibility:visible;display:inline;overflow:visible;enable-background:accumulate"
       d="m 560.61409,594.73721 173.46169,3.44182 0,10.06564 -173.46169,2.65498 z"
       id="path3921"
       inkscape:connector-curvature="0"
       sodipodi:nodetypes="ccccc" />
    <path
       sodipodi:nodetypes="ccccc"
       inkscape:connector-curvature="0"
       id="path3046"
       d="m 776.95212,594.73721 173.46169,3.44182 0,10.06564 -173.46169,2.65498 z"
       style="opacity:0.5;color:#000000;fill:#800000;fill-opacity:1;fill-rule:nonzero;stroke:none;stroke-width:2.59800005;marker:none;visibility:visible;display:inline;overflow:visible;enable-background:accumulate" />
    <rect
       y="513.44873"
       x="645.15088"
       height="183.50101"
       width="8.3702211"
       id="rect3923"
       style="opacity:0.5;color:#000000;fill:#800000;fill-opacity:1;fill-rule:nonzero;stroke:none;stroke-width:2.59800005;marker:none;visibility:visible;display:inline;overflow:visible;enable-background:accumulate" />
    <rect
       style="opacity:0.5;color:#000000;fill:#800000;fill-opacity:1;fill-rule:nonzero;stroke:none;stroke-width:2.59800005;marker:none;visibility:visible;display:inline;overflow:visible;enable-background:accumulate"
       id="rect3048"
       width="8.3702211"
       height="183.50101"
       x="861.48889"
       y="513.44873" />
    <rect
       style="opacity:0.5;color:#000000;fill:#800000;fill-opacity:1;fill-rule:nonzero;stroke:none;stroke-width:2.59800005;marker:none;visibility:visible;display:inline;overflow:visible;enable-background:accumulate"
       id="rect3925"
       width="7.0824947"
       height="183.50101"
       x="689.57745"
       y="511.51712" />
    <rect
       y="511.51712"
       x="905.91547"
       height="183.50101"
       width="7.0824947"
       id="rect3050"
       style="opacity:0.5;color:#000000;fill:#800000;fill-opacity:1;fill-rule:nonzero;stroke:none;stroke-width:2.59800005;marker:none;visibility:visible;display:inline;overflow:visible;enable-background:accumulate" />
    <path
       style="color:#000000;fill:#ffff00;fill-opacity:1;fill-rule:nonzero;stroke:none;stroke-width:2.59800005000000001;marker:none;visibility:visible;display:inline;overflow:visible;enable-background:accumulate"
       d="m 1083.2048,1381.4247 c -19.9506,4.0107 -39.6551,60.2382 -46,80.3437 l 61.9688,1.6876 -0.1562,-79.75 c -4.9066,-0.8437 -10.9084,-2.0409 -15.8126,-2.2813 z m 29.125,5.0313 0,77.0312 15.5626,0.4375 c -0.477,-27.7723 -4.3508,-53.8011 -10.875,-76.4375 -1.5412,-0.3442 -3.0365,-0.6828 -4.6876,-1.0312 z m 15.5626,89.7187 -15.5626,0.1875 -0.031,77.8438 c 1.4871,-0.2353 2.8244,-0.4619 4.2188,-0.6876 6.7545,-22.822 10.8302,-49.1681 11.375,-77.3437 z m -28.7188,0.4687 -61.6875,0.6563 c 6.8809,22.4175 27.2243,82.0617 48.5,80.625 5.6956,-0.3846 6.9111,-0.7059 13.1875,-1.5625 l 0,-79.7188 z"
       id="path3993-9"
       inkscape:connector-curvature="0" />
    <g
       transform="translate(-435.2477,-640.14442)"
       id="g4464">
      <path
         style="opacity:0.7;color:#000000;fill:#000000;fill-opacity:1;fill-rule:nonzero;stroke:none;stroke-width:2.59800005;marker:none;visibility:visible;display:inline;overflow:visible;filter:url(#filter4396);enable-background:accumulate"
         d="m 822.18898,1371.8283 c -28.70641,0.9887 -57.3125,95.9375 -57.3125,95.9375 0,0 28.54189,99.0552 58.6875,97.125 0.74784,-0.048 1.52486,-0.1323 2.28125,-0.1875 0.12678,0.022 0.24813,0.076 0.375,0.094 0.47086,0.068 0.93427,0.1062 1.40625,0.125 0.45192,0.017 0.92224,0 1.375,-0.031 1.51415,-0.099 3.07512,-0.2146 4.625,-0.3437 0.47405,-0.04 0.96007,-0.083 1.4375,-0.125 1.47864,-0.1312 2.98891,-0.2805 4.5,-0.4376 0.28944,-0.03 0.58436,-0.063 0.875,-0.094 1.17968,-0.1259 2.39431,-0.2654 3.59375,-0.4063 0.78703,-0.092 1.57941,-0.1825 2.375,-0.2812 0.56487,-0.07 1.14955,-0.1456 1.71875,-0.2188 1.45095,-0.1866 2.92707,-0.3876 4.40625,-0.5937 0.21619,-0.03 0.43946,-0.063 0.65625,-0.094 1.84413,-0.2597 3.73691,-0.5246 5.625,-0.8126 2.88747,-0.4404 5.85213,-0.9357 8.84375,-1.4374 0.45622,-0.077 0.91634,-0.1409 1.375,-0.2188 12.02156,-2.0405 24.87953,-4.5459 38.625,-7.3125 10.1272,-2.0386 20.7396,-4.2157 31.84375,-6.4687 l 0,-0.031 7.15625,2.4063 0,-157.0626 -7.15625,3.4376 c -5.27056,-1.0849 -10.47995,-2.2068 -15.65625,-3.375 -5.18625,-1.171 -10.31709,-2.3611 -15.375,-3.5626 -15.63537,-3.7112 -30.55577,-7.4225 -44.3125,-10.375 -1.78862,-0.3842 -3.56497,-0.7684 -5.3125,-1.125 -0.053,-0.011 -0.10333,-0.02 -0.15625,-0.031 -2.12159,-0.4322 -4.1928,-0.8334 -6.25,-1.2188 -1.43761,-0.2685 -2.8455,-0.5382 -4.25,-0.7812 -0.21118,-0.037 -0.41458,-0.058 -0.625,-0.094 -1.36419,-0.233 -2.69996,-0.4498 -4.03125,-0.6562 -0.12577,-0.02 -0.24953,-0.043 -0.375,-0.062 -0.98543,-0.1518 -1.93961,-0.3015 -2.90625,-0.4375 -0.13863,-0.02 -0.26801,-0.043 -0.40625,-0.062 -1.49123,-0.2069 -2.96171,-0.3648 -4.40625,-0.5313 -0.31178,-0.036 -0.62796,-0.091 -0.9375,-0.125 -0.31605,-0.035 -0.62378,-0.061 -0.9375,-0.094 -1.54788,-0.1606 -3.07287,-0.2985 -4.5625,-0.4063 -0.44789,-0.032 -0.89581,-0.047 -1.34375,-0.031 -0.64115,0.023 -1.26553,0.1015 -1.90625,0.2188 -0.7305,-0.063 -1.47042,-0.1365 -2.1875,-0.1876 -0.4556,-0.032 -0.91935,-0.047 -1.375,-0.031 z m 124.59375,19.5312 0,157.0626 4.4375,-2.4063 0,-151.2187 -4.4375,-3.4376 z"
         id="path4466"
         inkscape:connector-curvature="0"
         transform="matrix(1.0179407,0,0,1,-13.837051,1.7706237)" />
      <path
         style="color:#000000;fill:#bcbcc8;fill-opacity:1;fill-rule:nonzero;stroke:none;stroke-width:2.59800005;marker:none;visibility:visible;display:inline;overflow:visible;enable-background:accumulate"
         d="m 835.15555,1381.2525 c 25.328,1.8997 60.39087,13.0775 97.64727,21.0279 l 0,138.5489 c -39.24642,8.2559 -71.4618,15.4974 -97.64727,17.2656 -26.18546,1.7683 -50.95896,-88.9902 -50.95896,-88.9902 0,0 25.63097,-89.7519 50.95896,-87.8522 z"
         id="path4468"
         inkscape:connector-curvature="0"
         sodipodi:nodetypes="zcczcz" />
      <path
         style="color:#000000;fill:#417f34;fill-opacity:1;fill-rule:nonzero;stroke:none;stroke-width:2.59800005;marker:none;visibility:visible;display:inline;overflow:visible;enable-background:accumulate"
         d="m 825.31326,1373.1216 c -28.70641,0.9887 -57.31439,95.9375 -57.31439,95.9375 0,0 28.53568,99.0552 58.68128,97.125 30.14561,-1.9303 67.22178,-9.8317 112.4036,-18.8438 l 0,-151.2187 c -42.89085,-8.6787 -83.24515,-20.895 -112.4036,-22.9688 -0.4556,-0.032 -0.91124,-0.047 -1.36689,-0.031 z m 6.51661,8.0937 c 0.40262,-0.014 0.80539,0 1.20795,0.031 5.63595,0.4156 11.77427,1.2959 18.2783,2.4688 l 0,79.5312 -67.89991,-1.3125 c 6.65365,-20.7199 27.47998,-79.9712 48.41366,-80.7187 z m 28.00553,4.1563 c 11.33196,2.3515 23.707,5.3923 36.65196,8.5625 l 0,70.2187 -36.65196,-0.7187 0,-78.0625 z m 43.86792,10.3437 c 9.32906,2.2611 18.91847,4.5162 28.67309,6.5625 l 0,62.5625 -28.67309,-0.5625 0,-68.5625 z m 28.67309,79.5313 0,65.5937 c -10.00344,2.0687 -19.55088,4.0678 -28.67309,5.9375 l 0,-71.0937 28.67309,-0.4375 z m -35.88905,0.5312 0,72.4688 c -13.10358,2.6416 -25.35996,4.9655 -36.65196,6.7187 l 0,-78.625 36.65196,-0.5625 z m -45.17124,0.6875 0,79.7188 c -6.38524,0.8554 -12.48459,1.5216 -18.2783,1.9062 -21.63401,1.4362 -42.32593,-58.1541 -49.33551,-80.5937 l 67.61381,-1.0313 z"
         id="path4470"
         inkscape:connector-curvature="0" />
      <path
         style="color:#000000;fill:url(#radialGradient4500);fill-opacity:1;fill-rule:nonzero;stroke:none;stroke-width:2.59800005;marker:none;visibility:visible;display:inline;overflow:visible;enable-background:accumulate"
         d="m 825.31326,1373.1216 c -28.70641,0.9887 -57.31439,95.9375 -57.31439,95.9375 0,0 28.53568,99.0552 58.68128,97.125 30.14561,-1.9303 67.22178,-9.8317 112.4036,-18.8438 l 0,-151.2187 c -42.89085,-8.6787 -83.24515,-20.895 -112.4036,-22.9688 -0.4556,-0.032 -0.91124,-0.047 -1.36689,-0.031 z m 6.51661,8.0937 c 0.40262,-0.014 0.80539,0 1.20795,0.031 5.63595,0.4156 11.77427,1.2959 18.2783,2.4688 l 0,79.5312 -67.89991,-1.3125 c 6.65365,-20.7199 27.47998,-79.9712 48.41366,-80.7187 z m 28.00553,4.1563 c 11.33196,2.3515 23.707,5.3923 36.65196,8.5625 l 0,70.2187 -36.65196,-0.7187 0,-78.0625 z m 43.86792,10.3437 c 9.32906,2.2611 18.91847,4.5162 28.67309,6.5625 l 0,62.5625 -28.67309,-0.5625 0,-68.5625 z m 28.67309,79.5313 0,65.5937 c -10.00344,2.0687 -19.55088,4.0678 -28.67309,5.9375 l 0,-71.0937 28.67309,-0.4375 z m -35.88905,0.5312 0,72.4688 c -13.10358,2.6416 -25.35996,4.9655 -36.65196,6.7187 l 0,-78.625 36.65196,-0.5625 z m -45.17124,0.6875 0,79.7188 c -6.38524,0.8554 -12.48459,1.5216 -18.2783,1.9062 -21.63401,1.4362 -42.32593,-58.1541 -49.33551,-80.5937 l 67.61381,-1.0313 z"
         id="path4472"
         inkscape:connector-curvature="0" />
      <path
         id="path4474"
         d="m 830.78125,1373.1216 c -28.22025,0.9887 -56.34375,95.9375 -56.34375,95.9375 0,0 28.05242,99.0552 57.6875,97.125 29.63508,-1.9303 66.08335,-9.8317 110.5,-18.8438 l 0,-151.2187 c -42.16448,-8.6787 -81.83536,-20.895 -110.5,-22.9688 -0.44789,-0.032 -0.89581,-0.047 -1.34375,-0.031 z m 6.40625,8.0937 c 0.3958,-0.014 0.79175,0 1.1875,0.031 5.5405,0.4156 11.57486,1.2959 17.96875,2.4688 l 0,79.5312 -66.75,-1.3125 c 6.54096,-20.7199 27.01459,-79.9712 47.59375,-80.7187 z m 27.53125,4.1563 c 11.14005,2.3515 23.30551,5.3923 36.03125,8.5625 l 0,70.2187 -36.03125,-0.7187 0,-78.0625 z m 43.125,10.3437 c 9.17107,2.2611 18.59808,4.5162 28.1875,6.5625 l 0,62.5625 -28.1875,-0.5625 0,-68.5625 z m 28.1875,79.5313 0,65.5937 c -9.83403,2.0687 -19.21978,4.0678 -28.1875,5.9375 l 0,-71.0937 28.1875,-0.4375 z m -35.28125,0.5312 0,72.4688 c -12.88167,2.6416 -24.93048,4.9655 -36.03125,6.7187 l 0,-78.625 36.03125,-0.5625 z m -44.40625,0.6875 0,79.7188 c -6.27711,0.8554 -12.27316,1.5216 -17.96875,1.9062 -21.26763,1.4362 -41.60913,-58.1541 -48.5,-80.5937 l 66.46875,-1.0313 z"
         style="color:#000000;fill:#549248;fill-opacity:1;fill-rule:nonzero;stroke:none;stroke-width:2.59800005;marker:none;visibility:visible;display:inline;overflow:visible;enable-background:accumulate"
         inkscape:connector-curvature="0" />
      <path
         sodipodi:nodetypes="ccccc"
         inkscape:connector-curvature="0"
         id="path4476"
         d="m 942.61572,1396.096 7.17009,-3.4607 0,157.0831 -7.17009,-2.4145 z"
         style="color:#000000;fill:#38682d;fill-opacity:1;fill-rule:nonzero;stroke:none;stroke-width:2.59800005;marker:none;visibility:visible;display:inline;overflow:visible;enable-background:accumulate" />
      <path
         style="color:#000000;fill:#35662a;fill-opacity:1;fill-rule:nonzero;stroke:none;stroke-width:2.59800005;marker:none;visibility:visible;display:inline;overflow:visible;enable-background:accumulate"
         d="m 954.33861,1396.096 -4.43841,-3.4607 0,157.0831 4.43841,-2.4145 z"
         id="path4478"
         inkscape:connector-curvature="0"
         sodipodi:nodetypes="ccccc" />
      <path
         style="opacity:0.1077441;fill:#000000;fill-rule:evenodd;stroke:#000000;filter:url(#filter3843)"
         d="m 774.61989,1469.2125 167.80975,0.5633"
         id="path4480"
         inkscape:path-effect="#path-effect3837"
         inkscape:original-d="m 774.61989,1469.2125 167.80975,0.5633"
         inkscape:connector-curvature="0"
         sodipodi:nodetypes="cc" />
      <path
         sodipodi:nodetypes="zcczcz"
         inkscape:connector-curvature="0"
         id="path4482"
         d="m 832.1118,1373.1448 c 28.66468,2.0737 68.34659,14.2755 110.51108,22.9542 l 0,151.2408 c -44.4166,9.0121 -80.87599,16.917 -110.51108,18.8473 -29.63508,1.9302 -57.67219,-97.1423 -57.67219,-97.1423 0,0 29.00754,-97.9738 57.67219,-95.9 z"
         style="opacity:0.5;color:#000000;fill:url(#linearGradient4502);fill-opacity:1;fill-rule:nonzero;stroke:none;stroke-width:2.59800005;marker:none;visibility:visible;display:inline;overflow:visible;enable-background:accumulate" />
      <path
         sodipodi:nodetypes="cccccccccc"
         style="color:#000000;fill:#dca5dc;fill-opacity:1;fill-rule:nonzero;stroke:none;stroke-width:2.59800005;marker:none;visibility:visible;display:inline;overflow:visible;enable-background:accumulate"
         d="m 907.85134,1396.7405 0.11382,67.4243 24.43144,0.6763 0,-62.5625 c -9.57962,-2.0442 -15.38389,-3.2796 -24.54526,-5.5381 z m 24.54526,78.5894 -24.43144,0.2099 -0.11382,70.5246 c 8.95764,-1.8693 14.6086,-3.157 24.43144,-5.2233 z"
         id="path4484"
         inkscape:connector-curvature="0" />
      <path
         sodipodi:nodetypes="cccccccccc"
         style="color:#000000;fill:#dca5dc;fill-opacity:1;fill-rule:nonzero;stroke:none;stroke-width:2.59800005;marker:none;visibility:visible;display:inline;overflow:visible;enable-background:accumulate"
         d="m 864.65749,1386.459 0,77.0162 31.92662,0.8797 0,-70.2187 c -12.72857,-3.1707 -20.78456,-5.3254 -31.92662,-7.6772 z m 31.92662,89.5209 -31.92662,0.3703 -0.0569,77.8595 c 11.10326,-1.7563 19.09811,-3.147 31.98353,-5.7923 z"
         id="path4486"
         inkscape:connector-curvature="0" />
      <path
         sodipodi:nodetypes="cccccccscc"
         inkscape:connector-curvature="0"
         id="path4488"
         d="m 835.51672,1381.4346 c -19.95074,4.0107 -39.63937,60.2337 -45.98423,80.3394 l 61.96956,1.6852 -0.16097,-79.7637 c -4.90631,-0.8436 -10.92032,-2.0205 -15.82436,-2.2609 z m 15.98533,95.2121 -61.68831,0.6585 c 6.88087,22.4175 27.22431,82.0617 48.5,80.625 5.69559,-0.3846 6.91187,-0.7081 13.18831,-1.5647 z"
         style="color:#000000;fill:#dca5dc;fill-opacity:1;fill-rule:nonzero;stroke:none;stroke-width:2.59800005;marker:none;visibility:visible;display:inline;overflow:visible;enable-background:accumulate" />
      <g
         transform="translate(-150.69769,0)"
         style="opacity:0.2"
         id="g4490">
        <path
           inkscape:connector-curvature="0"
           id="path4492"
           d="m 1059.8011,1395.7161 0,68.5625 28.1875,0.5625 0,-62.5625 c -9.5797,-2.0442 -19.0262,-4.304 -28.1875,-6.5625 z m 28.1875,79.5 -28.1875,0.4375 0,71.0937 c 8.9576,-1.8693 18.3646,-3.8399 28.1875,-5.9062 z"
           style="color:#000000;fill:url(#linearGradient4504);fill-opacity:1;fill-rule:nonzero;stroke:none;stroke-width:2.59800005;marker:none;visibility:visible;display:inline;overflow:visible;enable-background:accumulate"
           sodipodi:nodetypes="cccccccccc" />
        <path
           inkscape:connector-curvature="0"
           id="path4494"
           d="m 1016.16,1385.4127 0,78.0625 36.0313,0.7187 0,-70.2187 c -12.7286,-3.1707 -24.8892,-6.2107 -36.0313,-8.5625 z m 36.0313,90.4062 -36.0313,0.5313 0,78.6562 c 11.1033,-1.7563 23.1458,-4.1047 36.0313,-6.75 z"
           style="color:#000000;fill:url(#linearGradient4506);fill-opacity:1;fill-rule:nonzero;stroke:none;stroke-width:2.59800005;marker:none;visibility:visible;display:inline;overflow:visible;enable-background:accumulate"
           sodipodi:nodetypes="cccccccccc" />
        <path
           style="color:#000000;fill:url(#linearGradient4508);fill-opacity:1;fill-rule:nonzero;stroke:none;stroke-width:2.59800005;marker:none;visibility:visible;display:inline;overflow:visible;enable-background:accumulate"
           d="m 987.82393,1381.0552 c -20.57898,0.7476 -41.05491,59.9984 -47.59375,80.7188 l 66.75002,1.3437 0,-79.5625 c -6.3989,-1.174 -12.42389,-2.0528 -17.96877,-2.4687 -0.39575,-0.03 -0.7917,-0.046 -1.1875,-0.031 z m 19.15627,95.25 -66.46877,1 c 6.88087,22.4175 27.22431,82.0617 48.5,80.625 5.69559,-0.3846 11.69227,-1.0496 17.96877,-1.9062 z"
           id="path4496"
           inkscape:connector-curvature="0"
           sodipodi:nodetypes="cccccccccscc" />
      </g>
      <path
         inkscape:connector-curvature="0"
         style="opacity:0.5;color:#000000;fill:url(#linearGradient4510);fill-opacity:1;fill-rule:nonzero;stroke:none;stroke-width:2.59800005;marker:none;visibility:visible;display:inline;overflow:visible;enable-background:accumulate"
         d="m 830.78125,1220.75 c -28.22026,0.9886 -56.34375,95.9375 -56.34375,95.9375 0,0 28.05242,99.0552 57.6875,97.125 12.16551,-0.7924 25.48733,-2.5931 40.03125,-5.0625 10.32386,-25.6494 16.4375,-57.2481 16.4375,-91.4375 0,-33.4126 -5.84952,-64.3579 -15.75,-89.6875 -15.05786,-3.3672 -28.83831,-5.9843 -40.71875,-6.8438 -0.44789,-0.032 -0.89581,-0.047 -1.34375,-0.031 z"
         transform="translate(0,152.36218)"
         id="path4498" />
    </g>
    <path
       style="opacity:0.7;color:#000000;fill:#000000;fill-opacity:1;fill-rule:nonzero;stroke:none;stroke-width:2.59800005;marker:none;visibility:visible;display:inline;overflow:visible;filter:url(#filter4396);enable-background:accumulate"
       d="m 822.18898,1371.8283 c -28.70641,0.9887 -57.3125,95.9375 -57.3125,95.9375 0,0 28.54189,99.0552 58.6875,97.125 0.74784,-0.048 1.52486,-0.1323 2.28125,-0.1875 0.12678,0.022 0.24813,0.076 0.375,0.094 0.47086,0.068 0.93427,0.1062 1.40625,0.125 0.45192,0.017 0.92224,0 1.375,-0.031 1.51415,-0.099 3.07512,-0.2146 4.625,-0.3437 0.47405,-0.04 0.96007,-0.083 1.4375,-0.125 1.47864,-0.1312 2.98891,-0.2805 4.5,-0.4376 0.28944,-0.03 0.58436,-0.063 0.875,-0.094 1.17968,-0.1259 2.39431,-0.2654 3.59375,-0.4063 0.78703,-0.092 1.57941,-0.1825 2.375,-0.2812 0.56487,-0.07 1.14955,-0.1456 1.71875,-0.2188 1.45095,-0.1866 2.92707,-0.3876 4.40625,-0.5937 0.21619,-0.03 0.43946,-0.063 0.65625,-0.094 1.84413,-0.2597 3.73691,-0.5246 5.625,-0.8126 2.88747,-0.4404 5.85213,-0.9357 8.84375,-1.4374 0.45622,-0.077 0.91634,-0.1409 1.375,-0.2188 12.02156,-2.0405 24.87953,-4.5459 38.625,-7.3125 10.1272,-2.0386 20.7396,-4.2157 31.84375,-6.4687 l 0,-0.031 7.15625,2.4063 0,-157.0626 -7.15625,3.4376 c -5.27056,-1.0849 -10.47995,-2.2068 -15.65625,-3.375 -5.18625,-1.171 -10.31709,-2.3611 -15.375,-3.5626 -15.63537,-3.7112 -30.55577,-7.4225 -44.3125,-10.375 -1.78862,-0.3842 -3.56497,-0.7684 -5.3125,-1.125 -0.053,-0.011 -0.10333,-0.02 -0.15625,-0.031 -2.12159,-0.4322 -4.1928,-0.8334 -6.25,-1.2188 -1.43761,-0.2685 -2.8455,-0.5382 -4.25,-0.7812 -0.21118,-0.037 -0.41458,-0.058 -0.625,-0.094 -1.36419,-0.233 -2.69996,-0.4498 -4.03125,-0.6562 -0.12577,-0.02 -0.24953,-0.043 -0.375,-0.062 -0.98543,-0.1518 -1.93961,-0.3015 -2.90625,-0.4375 -0.13863,-0.02 -0.26801,-0.043 -0.40625,-0.062 -1.49123,-0.2069 -2.96171,-0.3648 -4.40625,-0.5313 -0.31178,-0.036 -0.62796,-0.091 -0.9375,-0.125 -0.31605,-0.035 -0.62378,-0.061 -0.9375,-0.094 -1.54788,-0.1606 -3.07287,-0.2985 -4.5625,-0.4063 -0.44789,-0.032 -0.89581,-0.047 -1.34375,-0.031 -0.64115,0.023 -1.26553,0.1015 -1.90625,0.2188 -0.7305,-0.063 -1.47042,-0.1365 -2.1875,-0.1876 -0.4556,-0.032 -0.91935,-0.047 -1.375,-0.031 z m 124.59375,19.5312 0,157.0626 4.4375,-2.4063 0,-151.2187 -4.4375,-3.4376 z"
       id="path3044-0"
       inkscape:connector-curvature="0"
       transform="matrix(1.0179407,0,0,1,-449.08475,69.875701)" />
    <path
       style="color:#000000;fill:#bcbcc8;fill-opacity:1;fill-rule:nonzero;stroke:none;stroke-width:2.59800005;marker:none;visibility:visible;display:inline;overflow:visible;enable-background:accumulate"
       d="m 399.90785,1449.3576 c 25.328,1.8997 60.39087,13.0775 97.64727,21.0279 l 0,138.5489 c -39.24642,8.2559 -71.4618,15.4974 -97.64727,17.2656 -26.18546,1.7683 -50.95896,-88.9902 -50.95896,-88.9902 0,0 25.63097,-89.7519 50.95896,-87.8522 z"
       id="path3044"
       inkscape:connector-curvature="0"
       sodipodi:nodetypes="zcczcz" />
    <path
       style="color:#000000;fill:#417f34;fill-opacity:1;fill-rule:nonzero;stroke:none;stroke-width:2.59800005;marker:none;visibility:visible;display:inline;overflow:visible;enable-background:accumulate"
       d="m 390.06556,1441.2267 c -28.70641,0.9887 -57.31439,95.9375 -57.31439,95.9375 0,0 28.53568,99.0552 58.68128,97.125 30.14561,-1.9303 67.22178,-9.8317 112.4036,-18.8438 l 0,-151.2187 c -42.89085,-8.6787 -83.24515,-20.895 -112.4036,-22.9688 -0.4556,-0.032 -0.91124,-0.047 -1.36689,-0.031 z m 6.51661,8.0937 c 0.40262,-0.014 0.80539,0 1.20795,0.031 5.63595,0.4156 11.77427,1.2959 18.2783,2.4688 l 0,79.5312 -67.89991,-1.3125 c 6.65365,-20.7199 27.47998,-79.9712 48.41366,-80.7187 z m 28.00553,4.1563 c 11.33196,2.3515 23.707,5.3923 36.65196,8.5625 l 0,70.2187 -36.65196,-0.7187 0,-78.0625 z m 43.86792,10.3437 c 9.32906,2.2611 18.91847,4.5162 28.67309,6.5625 l 0,62.5625 -28.67309,-0.5625 0,-68.5625 z m 28.67309,79.5313 0,65.5937 c -10.00344,2.0687 -19.55088,4.0678 -28.67309,5.9375 l 0,-71.0937 28.67309,-0.4375 z m -35.88905,0.5312 0,72.4688 c -13.10358,2.6416 -25.35996,4.9655 -36.65196,6.7187 l 0,-78.625 36.65196,-0.5625 z m -45.17124,0.6875 0,79.7188 c -6.38524,0.8554 -12.48459,1.5216 -18.2783,1.9062 -21.63401,1.4362 -42.32593,-58.1541 -49.33551,-80.5937 l 67.61381,-1.0313 z"
       id="path3030"
       inkscape:connector-curvature="0" />
    <path
       style="color:#000000;fill:url(#radialGradient4534);fill-opacity:1;fill-rule:nonzero;stroke:none;stroke-width:2.59800005;marker:none;visibility:visible;display:inline;overflow:visible;enable-background:accumulate"
       d="m 156.34323,1441.2267 c -28.70641,0.9887 -57.314394,95.9375 -57.314394,95.9375 0,0 28.535684,99.0552 58.681284,97.125 30.14561,-1.9303 67.22178,-9.8317 112.4036,-18.8438 l 0,-151.2187 c -42.89085,-8.6787 -83.24515,-20.895 -112.4036,-22.9688 -0.4556,-0.032 -0.91124,-0.047 -1.36689,-0.031 z m 6.51661,8.0937 c 0.40262,-0.014 0.80539,0 1.20795,0.031 5.63595,0.4156 11.77427,1.2959 18.2783,2.4688 l 0,79.5312 -67.89991,-1.3125 c 6.65365,-20.7199 27.47998,-79.9712 48.41366,-80.7187 z m 28.00553,4.1563 c 11.33196,2.3515 23.707,5.3923 36.65196,8.5625 l 0,70.2187 -36.65196,-0.7187 0,-78.0625 z m 43.86792,10.3437 c 9.32906,2.2611 18.91847,4.5162 28.67309,6.5625 l 0,62.5625 -28.67309,-0.5625 0,-68.5625 z m 28.67309,79.5313 0,65.5937 c -10.00344,2.0687 -19.55088,4.0678 -28.67309,5.9375 l 0,-71.0937 28.67309,-0.4375 z m -35.88905,0.5312 0,72.4688 c -13.10358,2.6416 -25.35996,4.9655 -36.65196,6.7187 l 0,-78.625 36.65196,-0.5625 z m -45.17124,0.6875 0,79.7188 c -6.38524,0.8554 -12.48459,1.5216 -18.2783,1.9062 -21.63401,1.4362 -42.32593,-58.1541 -49.33551,-80.5937 l 67.61381,-1.0313 z"
       id="path3030-5"
       inkscape:connector-curvature="0" />
    <path
       id="path3058"
       d="m 395.53355,1441.2267 c -28.22025,0.9887 -56.34375,95.9375 -56.34375,95.9375 0,0 28.05242,99.0552 57.6875,97.125 29.63508,-1.9303 66.08335,-9.8317 110.5,-18.8438 l 0,-151.2187 c -42.16448,-8.6787 -81.83536,-20.895 -110.5,-22.9688 -0.44789,-0.032 -0.89581,-0.047 -1.34375,-0.031 z m 6.40625,8.0937 c 0.3958,-0.014 0.79175,0 1.1875,0.031 5.5405,0.4156 11.57486,1.2959 17.96875,2.4688 l 0,79.5312 -66.75,-1.3125 c 6.54096,-20.7199 27.01459,-79.9712 47.59375,-80.7187 z m 27.53125,4.1563 c 11.14005,2.3515 23.30551,5.3923 36.03125,8.5625 l 0,70.2187 -36.03125,-0.7187 0,-78.0625 z m 43.125,10.3437 c 9.17107,2.2611 18.59808,4.5162 28.1875,6.5625 l 0,62.5625 -28.1875,-0.5625 0,-68.5625 z m 28.1875,79.5313 0,65.5937 c -9.83403,2.0687 -19.21978,4.0678 -28.1875,5.9375 l 0,-71.0937 28.1875,-0.4375 z m -35.28125,0.5312 0,72.4688 c -12.88167,2.6416 -24.93048,4.9655 -36.03125,6.7187 l 0,-78.625 36.03125,-0.5625 z m -44.40625,0.6875 0,79.7188 c -6.27711,0.8554 -12.27316,1.5216 -17.96875,1.9062 -21.26763,1.4362 -41.60913,-58.1541 -48.5,-80.5937 l 66.46875,-1.0313 z"
       style="color:#000000;fill:#549248;fill-opacity:1;fill-rule:nonzero;stroke:none;stroke-width:2.59800005;marker:none;visibility:visible;display:inline;overflow:visible;enable-background:accumulate"
       inkscape:connector-curvature="0" />
    <path
       sodipodi:nodetypes="ccccc"
       inkscape:connector-curvature="0"
       id="path3833"
       d="m 507.36802,1464.2011 7.17009,-3.4607 0,157.0831 -7.17009,-2.4145 z"
       style="color:#000000;fill:#38682d;fill-opacity:1;fill-rule:nonzero;stroke:none;stroke-width:2.59800005;marker:none;visibility:visible;display:inline;overflow:visible;enable-background:accumulate" />
    <path
       style="color:#000000;fill:#35662a;fill-opacity:1;fill-rule:nonzero;stroke:none;stroke-width:2.59800005;marker:none;visibility:visible;display:inline;overflow:visible;enable-background:accumulate"
       d="m 519.09091,1464.2011 -4.43841,-3.4607 0,157.0831 4.43841,-2.4145 z"
       id="rect3830"
       inkscape:connector-curvature="0"
       sodipodi:nodetypes="ccccc" />
    <path
       style="opacity:0.1077441;fill:#000000;fill-rule:evenodd;stroke:#000000;filter:url(#filter3843)"
       d="m 339.37219,1537.3176 167.80975,0.5633"
       id="path3835"
       inkscape:path-effect="#path-effect4528"
       inkscape:original-d="m 339.37219,1537.3176 167.80975,0.5633"
       inkscape:connector-curvature="0"
       sodipodi:nodetypes="cc" />
    <path
       sodipodi:nodetypes="zcczcz"
       inkscape:connector-curvature="0"
       id="path3042-4"
       d="m 575.38842,1441.2499 c 28.66468,2.0737 68.34659,14.2755 110.51108,22.9542 l 0,151.2408 c -44.4166,9.0121 -80.87599,16.917 -110.51108,18.8473 -29.63508,1.9302 -57.67219,-97.1423 -57.67219,-97.1423 0,0 29.00754,-97.9738 57.67219,-95.9 z"
       style="opacity:0.5;color:#000000;fill:url(#linearGradient4525);fill-opacity:1;fill-rule:nonzero;stroke:none;stroke-width:2.59800005;marker:none;visibility:visible;display:inline;overflow:visible;enable-background:accumulate" />
    <path
       sodipodi:nodetypes="cccccccccc"
       style="color:#000000;fill:#dca5dc;fill-opacity:1;fill-rule:nonzero;stroke:none;stroke-width:2.59800005;marker:none;visibility:visible;display:inline;overflow:visible;enable-background:accumulate"
       d="m 472.60364,1464.8456 0.11382,67.4243 24.43144,0.6763 0,-62.5625 c -9.57962,-2.0442 -15.38389,-3.2796 -24.54526,-5.5381 z m 24.54526,78.5894 -24.43144,0.2099 -0.11382,70.5246 c 8.95764,-1.8693 14.6086,-3.157 24.43144,-5.2233 z"
       id="path4171"
       inkscape:connector-curvature="0" />
    <path
       sodipodi:nodetypes="cccccccccc"
       style="color:#000000;fill:#dca5dc;fill-opacity:1;fill-rule:nonzero;stroke:none;stroke-width:2.59800005;marker:none;visibility:visible;display:inline;overflow:visible;enable-background:accumulate"
       d="m 429.40979,1454.5641 0,77.0162 31.92662,0.8797 0,-70.2187 c -12.72857,-3.1707 -20.78456,-5.3254 -31.92662,-7.6772 z m 31.92662,89.5209 -31.92662,0.3703 -0.0569,77.8595 c 11.10326,-1.7563 19.09811,-3.147 31.98353,-5.7923 z"
       id="path4173"
       inkscape:connector-curvature="0" />
    <path
       sodipodi:nodetypes="cccccccscc"
       inkscape:connector-curvature="0"
       id="path4175"
       d="m 400.26902,1449.5397 c -19.95074,4.0107 -39.63937,60.2337 -45.98423,80.3394 l 61.96956,1.6852 -0.16097,-79.7637 c -4.90631,-0.8436 -10.92032,-2.0205 -15.82436,-2.2609 z m 15.98533,95.2121 -61.68831,0.6585 c 6.88087,22.4175 27.22431,82.0617 48.5,80.625 5.69559,-0.3846 6.91187,-0.7081 13.18831,-1.5647 z"
       style="color:#000000;fill:#dca5dc;fill-opacity:1;fill-rule:nonzero;stroke:none;stroke-width:2.59800005;marker:none;visibility:visible;display:inline;overflow:visible;enable-background:accumulate" />
    <g
       transform="translate(-406.30756,68.105077)"
       style="opacity:0.2"
       id="g4136">
      <path
         inkscape:connector-curvature="0"
         id="path4138"
         d="m 1059.8011,1395.7161 0,68.5625 28.1875,0.5625 0,-62.5625 c -9.5797,-2.0442 -19.0262,-4.304 -28.1875,-6.5625 z m 28.1875,79.5 -28.1875,0.4375 0,71.0937 c 8.9576,-1.8693 18.3646,-3.8399 28.1875,-5.9062 z"
         style="color:#000000;fill:url(#linearGradient4539);fill-opacity:1;fill-rule:nonzero;stroke:none;stroke-width:2.59800005;marker:none;visibility:visible;display:inline;overflow:visible;enable-background:accumulate"
         sodipodi:nodetypes="cccccccccc" />
      <path
         inkscape:connector-curvature="0"
         id="path4140"
         d="m 1016.16,1385.4127 0,78.0625 36.0313,0.7187 0,-70.2187 c -12.7286,-3.1707 -24.8892,-6.2107 -36.0313,-8.5625 z m 36.0313,90.4062 -36.0313,0.5313 0,78.6562 c 11.1033,-1.7563 23.1458,-4.1047 36.0313,-6.75 z"
         style="color:#000000;fill:url(#linearGradient4541);fill-opacity:1;fill-rule:nonzero;stroke:none;stroke-width:2.59800005;marker:none;visibility:visible;display:inline;overflow:visible;enable-background:accumulate"
         sodipodi:nodetypes="cccccccccc" />
      <path
         style="color:#000000;fill:url(#linearGradient4543);fill-opacity:1;fill-rule:nonzero;stroke:none;stroke-width:2.59800005;marker:none;visibility:visible;display:inline;overflow:visible;enable-background:accumulate"
         d="m 987.82393,1381.0552 c -20.57898,0.7476 -41.05491,59.9984 -47.59375,80.7188 l 66.75002,1.3437 0,-79.5625 c -6.3989,-1.174 -12.42389,-2.0528 -17.96877,-2.4687 -0.39575,-0.03 -0.7917,-0.046 -1.1875,-0.031 z m 19.15627,95.25 -66.46877,1 c 6.88087,22.4175 27.22431,82.0617 48.5,80.625 5.69559,-0.3846 11.69227,-1.0496 17.96877,-1.9062 z"
         id="path4142"
         inkscape:connector-curvature="0"
         sodipodi:nodetypes="cccccccccscc" />
    </g>
    <path
       inkscape:connector-curvature="0"
       style="opacity:0.5;color:#000000;fill:url(#linearGradient4515);fill-opacity:1;fill-rule:nonzero;stroke:none;stroke-width:2.59800005;marker:none;visibility:visible;display:inline;overflow:visible;enable-background:accumulate"
       d="m 572.59592,1441.2173 c -28.22026,0.9886 -56.34375,95.9375 -56.34375,95.9375 0,0 28.05242,99.0552 57.6875,97.125 12.16551,-0.7924 25.48733,-2.5931 40.03125,-5.0625 10.32386,-25.6494 16.4375,-57.2481 16.4375,-91.4375 0,-33.4126 -5.84952,-64.3579 -15.75,-89.6875 -15.05786,-3.3672 -28.83831,-5.9843 -40.71875,-6.8438 -0.44789,-0.032 -0.89581,-0.047 -1.34375,-0.031 z"
       id="path3042-4-7" />
    <rect
       y="1178.9526"
       x="-99.965179"
       height="183.50101"
       width="8.3702211"
       id="rect4586"
       style="opacity:0.5;color:#000000;fill:#800000;fill-opacity:1;fill-rule:nonzero;stroke:none;stroke-width:2.59800005;marker:none;visibility:visible;display:inline;overflow:visible;enable-background:accumulate" />
    <rect
       y="1178.9526"
       x="186.40593"
       height="183.50101"
       width="8.3702211"
       id="rect4602"
       style="opacity:0.5;color:#000000;fill:#800000;fill-opacity:1;fill-rule:nonzero;stroke:none;stroke-width:2.59800005;marker:none;visibility:visible;display:inline;overflow:visible;enable-background:accumulate" />
    <rect
       style="opacity:0.5;color:#000000;fill:#800000;fill-opacity:1;fill-rule:nonzero;stroke:none;stroke-width:2.59800005;marker:none;visibility:visible;display:inline;overflow:visible;enable-background:accumulate"
       id="rect4588"
       width="7.0824947"
       height="183.50101"
       x="-55.538601"
       y="1198.9124" />
    <rect
       style="opacity:0.5;color:#000000;fill:#800000;fill-opacity:1;fill-rule:nonzero;stroke:none;stroke-width:2.59800005;marker:none;visibility:visible;display:inline;overflow:visible;enable-background:accumulate"
       id="rect4604"
       width="7.0824947"
       height="183.50101"
       x="230.8325"
       y="1198.9124" />
  </g>
</svg>
